<?xml version="1.0" encoding="UTF-8"?>
<svg viewBox="0 0 401 250" version="1.1" xmlns="http://www.w3.org/2000/svg" xmlns:xlink="http://www.w3.org/1999/xlink">
    <!-- Generator: Sketch 52.4 (67378) - http://www.bohemiancoding.com/sketch -->
    <title>deltalogo</title>
    <desc>Created with Sketch.</desc>
    <g id="Page-1" stroke="none" stroke-width="1" fill="none" fill-rule="evenodd">
        <g id="deltalogo">
            <polygon id="black" fill="#1A1919" points="0.246 249.397 400.693 249.397 400.693 0.59 0.246 0.59"></polygon>
            <polygon id="red" fill="#BA2442" points="0.244 206.632 400.981 206.632 400.981 1 0.244 1"></polygon>
            <path d="M101.0943,141.6703 C108.7413,140.9273 115.2203,139.0153 119.0453,136.0413 C123.0803,133.0663 125.3113,128.3943 125.3113,123.0823 C125.3113,117.4533 123.0803,112.6733 119.0453,109.4873 C115.2203,106.4063 109.0603,104.4953 101.0943,104.1763 L101.0943,141.6703 Z M72.3103,103.8573 C73.0533,103.9643 73.7973,103.9643 74.6473,103.9643 C83.2503,103.9643 90.8973,100.8833 96.2083,94.7233 C98.7573,91.6433 101.4133,87.5013 102.5813,83.6763 C103.6433,79.9593 104.4933,75.3923 104.4933,70.5063 C104.4933,58.1853 100.1383,48.5193 92.2783,41.9343 C84.3123,35.3493 73.3723,31.6313 59.0333,31.6313 L58.0773,31.6313 L58.0773,86.3323 C58.0773,93.3423 59.3513,98.1223 61.3703,100.3533 C62.7513,101.7333 65.0873,102.7953 68.0613,103.4333 L70.9293,100.4593 L71.9913,100.4593 L72.3103,103.8573 Z M377.7843,69.1253 L400.5143,69.1253 L400.5143,74.4363 L379.6963,74.4363 L385.8573,91.0053 C387.5563,95.7853 390.4243,100.3533 392.1233,101.9463 C393.5043,103.1143 395.8413,104.4953 400.5143,104.6013 L400.5143,106.6193 L381.8213,106.6193 C375.8723,106.6193 373.0043,107.8943 370.2423,109.4873 C366.9503,111.5043 360.5773,117.7723 352.6123,125.7373 L341.6713,136.6783 L363.2333,160.5763 C367.4813,165.2503 372.2613,169.9233 376.1913,172.4733 C380.5463,175.4463 385.1143,177.4643 389.1503,178.8453 L388.8303,180.1193 C383.5203,179.8013 379.4843,179.4833 377.1473,179.1643 C373.9603,178.8453 370.9873,177.8893 369.4993,177.4643 C366.4193,176.7213 362.3833,173.6413 358.2403,169.1803 C358.1343,169.0733 357.6043,168.5423 357.6043,168.5423 L332.7493,141.9883 L346.0263,127.6493 C346.0263,127.5433 346.9823,126.6933 346.9823,126.6933 C347.3003,126.3753 348.1503,125.5253 348.6823,124.9943 C355.3723,117.6663 359.3033,112.4613 359.3033,110.1243 C359.3033,108.7433 358.1343,107.4693 357.6043,107.1503 C356.9663,106.8323 354.6293,106.6193 352.2923,106.6193 L352.2923,104.4953 L369.1813,104.4953 C371.4113,104.1763 373.2173,103.4333 374.2803,102.6903 C375.1293,102.0523 376.6153,100.3533 376.6153,98.3353 C376.6153,97.6973 376.2973,96.1043 376.2973,95.3603 C376.2973,93.8733 375.1293,91.7493 374.9163,91.0053 L368.7553,74.4363 L356.2233,74.4363 L357.1793,69.1253 L366.7383,69.1253 L355.6923,39.2783 L337.7413,91.3243 C337.1043,93.3423 336.7853,96.3163 336.7853,97.6973 C336.7853,100.0333 338.1663,102.3703 339.7593,103.0073 C341.3533,103.5393 345.0713,104.6013 349.3193,104.6013 L349.3193,106.6193 L349.0003,106.6193 L343.0523,106.6193 L338.0603,106.6193 C336.0413,107.2563 334.5553,108.1063 333.7043,109.1693 C332.4303,110.9743 331.0493,116.0723 331.0493,124.6753 L331.0493,159.5143 C331.0493,162.1693 331.3683,164.6123 331.3683,166.2063 C331.3683,168.0113 331.5803,169.8173 331.6873,170.4543 C331.9003,172.3663 333.2803,174.0663 334.3423,174.8103 C335.5113,175.5533 337.4223,176.7213 339.0163,177.1463 C340.3973,177.5703 343.0523,178.1023 346.3453,178.1023 L346.3453,180.1193 L341.0333,180.1193 L337.7413,180.1193 L334.0243,180.1193 C330.7313,180.1193 327.8643,179.8013 326.6953,179.8013 C323.5083,179.8013 320.7473,180.1193 319.1543,180.1193 L306.8323,180.1193 L306.8323,178.1023 C310.1253,177.7823 312.6743,177.3583 313.8433,177.1463 C315.2233,176.8273 317.0303,175.2333 318.0913,174.4903 C318.9413,173.7473 320.0033,171.9413 320.1103,170.4543 C320.2153,169.3923 320.7473,165.5683 320.7473,159.5143 L320.7473,124.6753 C320.7473,116.7103 319.5783,111.6113 318.0913,109.8063 C317.1363,108.5303 315.1173,107.4693 312.1443,106.6193 L302.4783,106.6193 L302.4783,125.7373 L300.5663,125.7373 C299.1853,118.7283 297.4863,114.1613 291.8563,110.7613 C288.0323,108.4253 283.7833,107.1503 279.5353,106.6193 L271.7813,106.6193 L271.7813,106.5133 C264.8783,107.2563 258.3993,110.0183 253.7253,114.4793 C248.0953,119.8963 244.8033,129.9863 244.8033,140.9273 C244.8033,146.6623 245.8653,151.7613 247.4583,156.2223 C249.1573,160.6823 252.3443,165.3563 255.4243,168.5423 C258.5053,171.6223 262.2233,174.2773 266.0463,175.7653 C269.4453,177.1463 274.1183,178.4213 278.6853,178.4213 C284.1033,178.4213 289.6253,176.4023 293.2373,173.1093 C297.0613,169.8173 301.2033,163.8693 304.4953,155.9023 L306.1963,156.5403 C305.5583,158.8773 304.6023,162.7013 303.2213,167.4813 C302.3713,170.6663 300.8843,173.8533 299.5033,176.8273 C295.8923,178.4213 291.6443,179.5893 288.2443,180.1193 C284.5283,180.7573 280.2793,181.8193 276.0313,181.8193 C270.2943,181.8193 264.6653,180.9703 259.7803,179.4833 C254.8943,178.1023 249.7953,175.3403 246.0773,172.4733 C241.2983,168.8613 237.3673,163.9763 235.4563,159.1953 C233.5443,154.7343 231.8453,148.5733 231.8453,141.6703 C231.8453,136.0413 233.3323,130.0923 235.4563,124.9943 C236.5183,122.5513 238.7483,119.8963 240.1293,117.7723 C241.6163,115.6473 243.9533,113.0983 246.0773,111.3993 C248.4143,109.5933 251.0703,108.0003 253.8313,106.6193 L240.5553,106.6193 L229.2963,106.6193 C227.2783,107.4693 225.7903,108.9563 224.9413,110.7613 C224.1983,112.2483 223.0293,115.6473 222.9223,119.7903 C222.8173,123.8263 222.6043,129.3493 222.6043,136.0413 C222.6043,137.6343 222.2853,139.8643 222.2853,140.9273 C222.2853,145.1753 222.0733,149.5293 221.8613,152.2913 C221.7543,155.0533 221.0113,158.1333 220.9053,160.5763 C220.7983,162.7013 219.6303,165.0373 219.2053,166.2063 C217.0813,171.3043 213.0443,175.5533 208.2653,177.7823 C203.4863,180.1193 196.6873,181.8193 189.0403,181.8193 C182.7743,181.8193 177.5693,180.8633 173.4273,179.4833 C169.0723,177.9953 165.3543,174.8103 163.2303,172.1533 C161.8493,170.2413 160.2563,167.2683 159.5123,164.5063 C158.9813,162.0633 158.5573,157.1773 158.5573,150.9103 L158.5573,122.7643 C158.5573,118.0903 158.2383,114.6913 157.9193,113.0983 C157.6003,111.7173 156.4323,110.1243 155.5833,109.4873 C154.5203,108.8503 152.6093,107.4693 150.9093,107.1503 C149.7403,107.0443 147.4043,106.6193 144.9613,106.6193 L142.7313,106.6193 L128.3913,106.6193 C128.8163,106.8323 129.0293,106.9383 129.3473,107.1503 C133.8083,110.1243 136.6763,115.1163 136.6763,121.7023 C136.6763,126.0563 135.1893,129.9863 133.2773,132.6423 C131.3653,135.5103 127.3293,138.2723 123.0803,139.9703 C126.6923,146.9813 130.1973,152.8223 132.9583,157.1773 C135.7203,161.6393 139.4373,166.2063 142.3053,169.1803 C144.9613,172.0473 148.3603,174.9153 151.2283,176.5083 C154.2023,178.1023 157.9193,179.4833 161.5303,180.1193 L161.2123,181.8193 L158.5573,181.8193 C148.5733,181.5003 142.0943,180.0143 139.0133,178.8453 C137.2073,178.1023 134.6583,176.4023 132.6403,174.1723 C130.7283,172.1533 128.1793,168.6493 125.7363,164.8253 C123.9303,162.0633 121.8063,158.4523 119.6823,154.5223 C117.5573,150.5923 115.7513,148.1493 115.4333,147.6183 C114.9023,146.9813 113.6273,145.6013 112.4593,145.2813 C111.7163,145.0683 109.1673,144.2193 106.8303,144.0073 L101.0943,143.2643 L101.0943,159.5143 C101.0943,166.8433 102.5813,172.1533 104.4933,174.1723 C106.5113,176.4023 111.0783,177.7823 117.7703,178.1023 L117.7703,180.1193 L104.4933,180.1193 C100.7753,180.1193 97.9073,179.8013 96.5273,179.8013 C93.2343,179.8013 90.4733,180.1193 88.8793,180.1193 L76.8773,180.1193 L76.8773,178.1023 C82.6133,177.7823 86.3303,176.6143 87.8183,174.8103 C89.5163,172.8973 90.8973,167.4813 90.8973,159.8333 L90.8973,123.4013 C90.8973,119.0463 90.4733,115.9663 90.3663,114.2663 C90.3663,112.5673 89.3043,110.7613 88.2423,109.4873 C87.6053,108.8503 85.1623,107.5753 84.5253,107.4693 C82.4003,106.9383 78.5763,106.6193 73.3723,106.6193 L73.3723,106.4063 C73.0533,106.5133 72.7353,106.5133 72.5223,106.5133 L73.9033,121.0643 L71.9913,121.3823 C70.6113,116.3913 68.0613,112.8853 64.9813,110.7613 C62.2193,108.9563 57.0153,107.4693 50.4293,107.4693 L42.0393,107.4693 L42.0393,157.1773 C42.0393,162.4883 42.5703,166.7363 42.7823,168.8613 C42.8883,170.9853 44.1633,172.8973 45.1183,173.8533 C46.0743,174.8103 47.9873,175.9783 50.0043,176.5083 C51.8103,176.9343 54.6783,177.7823 57.6523,178.1023 L57.6523,180.1193 L51.0673,180.1193 L44.6943,180.1193 C41.4013,180.1193 38.3213,179.8013 36.7283,179.8013 C35.6663,179.8013 28.8683,180.1193 17.1843,180.1193 L16.8653,180.1193 L16.8653,178.1023 C19.8403,177.7823 22.6013,176.9343 24.1953,176.5083 C25.8943,175.9783 27.7003,174.7033 28.8683,173.8533 C29.3993,173.4293 30.7803,170.9853 31.0983,168.8613 C31.3113,166.7363 31.8423,162.4883 31.8423,157.1773 L31.8423,107.4693 L24.1953,107.4693 C17.1843,107.4693 11.9803,109.0623 9.2193,110.7613 C6.2443,112.5673 2.4203,116.0723 1.1463,121.0643 L0.2963,121.0643 L0.2963,100.4593 L3.9073,100.4593 L7.2003,104.1763 L22.4953,104.1763 L37.1523,104.1763 C40.7633,103.4333 43.3133,102.2643 44.4813,100.9903 C46.1813,99.0783 47.4553,95.3603 47.4553,89.4123 L47.4553,45.5453 C47.4553,40.5533 46.6063,37.0483 44.8013,35.2423 C42.9943,33.5433 39.4893,31.9503 34.1793,31.3133 L34.1793,30.6753 C35.5603,30.6753 42.2513,29.2953 54.1473,28.9763 C63.0693,28.7633 66.9993,28.9763 65.7243,28.9763 C81.9753,28.9763 94.8273,32.4813 103.8563,39.5973 C112.5653,46.3953 117.4513,56.1673 117.4513,68.1693 C117.4513,80.0653 112.8843,89.8373 104.1753,96.3163 C100.6703,98.8653 96.2083,101.5213 91.4283,103.2203 C95.6773,102.7953 99.9263,102.4773 103.7493,102.4773 L107.7863,102.4773 C113.4153,102.4773 118.0883,103.0073 121.9123,104.0703 C124.9933,103.3273 127.3293,102.3703 128.7103,101.3093 C130.6223,99.9273 131.3653,95.6793 131.3653,89.7313 L131.3653,47.5643 C131.3653,41.6153 130.4093,37.1543 128.7103,35.6673 C126.9053,33.9683 123.3993,32.5873 117.7703,32.2693 L117.7703,30.3573 C119.7883,30.3573 121.8063,30.6753 123.0803,30.6753 L129.4533,30.6753 L147.2983,30.6753 L167.2663,30.6753 C170.8773,30.6753 174.9143,30.6753 178.5253,30.3573 C178.2063,33.3313 177.8883,36.1993 177.8883,38.3233 C177.8883,40.3413 177.1443,43.9523 177.1443,47.2453 L175.2323,47.2453 C174.9143,42.2533 173.2143,38.2173 170.5593,36.3053 C168.3283,34.6053 163.5493,33.3313 156.3263,33.3313 L141.9873,33.3313 L141.9873,64.4523 L152.9273,64.4523 C158.9813,64.4523 163.5493,63.3903 165.5673,62.1153 C167.7973,60.8403 169.6033,57.8663 170.2403,53.5113 L171.8333,53.5113 C171.8333,56.8043 171.5143,60.4163 171.5143,62.8583 L171.5143,72.7373 L171.5143,79.1093 L169.9223,79.1093 C169.6033,75.0733 167.7973,72.5243 165.5673,71.1433 C163.5493,69.9753 159.3003,68.8063 152.9273,68.8063 L141.9873,68.8063 L141.9873,88.9873 C141.9873,95.0423 143.4743,99.2903 145.7053,100.9903 C147.9353,102.5833 152.6093,103.9643 159.9373,103.9643 C166.5223,103.9643 171.7273,102.0523 175.2323,99.2903 C178.9493,96.2103 181.4983,90.6873 182.7743,83.6763 L184.4723,84.1023 C184.4723,88.6693 183.6233,92.9173 183.1983,95.9983 C182.7743,98.8653 182.0303,101.7333 181.2863,104.2823 C182.4553,104.1763 183.5173,104.1763 184.3663,104.1763 L184.3663,106.6193 C178.4193,106.9383 174.1703,107.1503 172.1523,109.4873 C170.1343,111.8243 168.8593,116.0723 168.8593,122.7643 L168.8593,149.9543 C168.8593,155.5843 169.7093,159.6203 170.1343,162.1693 C170.5593,164.5063 172.5773,167.7993 174.1703,169.4983 C175.7633,171.4103 179.2693,173.7473 182.7743,174.8103 C185.5353,175.5533 189.7833,176.8273 194.0323,176.8273 C199.1313,176.8273 203.9103,175.6583 207.3093,173.8533 C210.3893,172.1533 213.4703,168.6493 215.2753,164.5063 C216.0193,162.7013 217.1883,159.5143 217.6123,155.5843 C218.0363,151.6543 218.2493,145.2813 218.2493,136.6783 C218.2493,128.0743 217.9303,122.0213 217.6123,118.7283 C217.4003,115.8593 216.1253,112.7793 215.2753,111.3993 C214.2133,109.9123 211.7703,108.2123 209.9653,107.4693 C209.1153,107.1503 207.9473,106.8323 206.7783,106.6193 L194.7763,106.6193 L194.7763,104.6013 C200.4063,104.2823 204.4413,102.6903 206.3543,100.6703 C208.0523,98.7593 209.0083,93.6613 209.0083,86.0133 L209.0083,49.2633 C209.0083,42.5713 208.2653,38.0043 206.3543,36.3053 C204.7603,34.7123 200.7243,33.3313 194.7763,32.5873 L194.7763,30.6753 L202.1053,30.6753 L214.0003,30.6753 L226.0033,30.6753 L233.8633,30.6753 L233.8633,32.5873 C228.2343,33.0123 223.9853,34.3933 222.2853,36.3053 C220.7983,38.1103 219.6303,42.5713 219.6303,49.2633 L219.6303,86.0133 C219.6303,91.3243 219.9483,95.0423 219.9483,96.6353 C219.9483,98.1223 220.5863,100.1403 221.0113,100.9903 C221.2233,101.3093 222.4973,102.4773 224.3043,102.6903 C225.3653,102.7953 228.9773,103.3273 233.8633,103.3273 C239.1743,103.3273 243.5293,103.0073 245.2283,102.6903 C247.4583,102.3703 249.6893,101.0963 251.1763,100.3533 C253.3003,99.1843 255.7433,96.7413 257.4433,94.7233 C258.9303,92.9173 261.4793,89.4123 263.8163,85.0573 L265.0903,85.6943 L259.4603,104.4953 C259.6733,104.2823 259.8863,104.2823 260.0983,104.1763 C262.1163,103.6453 265.1963,102.4773 268.0643,102.1583 C270.8253,101.9463 274.0123,101.5213 276.9873,101.5213 C278.5793,101.5213 280.2793,101.5213 281.8723,101.6273 C282.6153,101.2023 283.2533,100.7773 283.6773,100.3533 C284.2093,99.9273 285.6963,97.4843 286.0143,95.3603 C286.2273,93.2363 286.6523,88.9873 286.6523,83.6763 L286.6523,33.9683 L279.0043,33.9683 C272.1013,33.9683 267.0023,35.5623 264.1343,37.2603 C261.1603,39.1733 258.5053,42.5713 257.1243,47.5643 L255.1063,47.5643 L257.4433,26.9583 L258.8233,26.9583 L262.1163,30.6753 L277.4103,30.6753 L292.6003,30.6753 L307.5763,30.6753 L312.8873,30.6753 L318.1983,30.6753 L322.1273,30.6753 L325.8453,26.9583 L326.8013,26.9583 L328.8193,47.5643 L326.8013,47.8823 C325.5273,42.8903 322.9773,39.2783 319.8973,37.2603 C317.1363,35.3493 311.9313,33.9683 305.2403,33.9683 L296.9543,33.9683 L296.9543,83.6763 C296.9543,88.9873 297.3793,93.2363 297.5923,95.3603 C297.6983,97.4843 299.1853,99.5033 299.9293,100.3533 C300.6723,101.0963 302.7963,102.4773 304.9213,103.0073 C306.1963,103.3273 307.8953,103.7513 309.8073,104.1763 L314.4803,104.1763 L320.6413,104.1763 C322.2343,103.7513 323.5083,103.2203 324.1463,103.0073 C326.4833,101.8393 328.5003,100.0333 330.0943,95.7853 L354.3113,33.6493 L353.9913,31.6313 C355.3723,31.3133 357.1793,30.0383 358.0283,29.2953 C358.6653,28.8703 360.3653,26.9583 361.6393,25.3653 L377.7843,69.1253 Z" id="Fill-3" fill="#FFFFFE"></path>
            <path d="M29.0401,221.6078 L29.0401,225.5638 L28.6461,225.5638 C28.4111,224.6488 28.1521,223.9938 27.8671,223.5968 C27.5821,223.1958 27.1891,222.8788 26.6901,222.6448 C26.4131,222.5118 25.9261,222.4508 25.2331,222.4508 L24.1231,222.4508 L24.1231,233.7148 C24.1231,234.4618 24.1651,234.9278 24.2471,235.1168 C24.3341,235.3038 24.4981,235.4658 24.7421,235.6048 C24.9901,235.7488 25.3231,235.8188 25.7461,235.8188 L26.2411,235.8188 L26.2411,236.2148 L18.4471,236.2148 L18.4471,235.8188 L18.9421,235.8188 C19.3731,235.8188 19.7211,235.7418 19.9831,235.5898 C20.1741,235.4918 20.3241,235.3178 20.4331,235.0718 C20.5151,234.9028 20.5571,234.4508 20.5571,233.7148 L20.5571,222.4508 L19.4771,222.4508 C18.4771,222.4508 17.7461,222.6558 17.2931,223.0748 C16.6561,223.6558 16.2551,224.4868 16.0861,225.5638 L15.6701,225.5638 L15.6701,221.6078 L29.0401,221.6078 Z" id="Fill-5" fill="#FFFFFE"></path>
            <path d="M52.688,222.3949 L52.688,228.7919 L53.314,228.7919 C54.329,228.7919 55.09,228.7049 55.596,228.5199 C56.102,228.3359 56.499,228.0049 56.788,227.5269 C57.076,227.0489 57.222,226.4279 57.222,225.6599 C57.222,224.5449 56.956,223.7259 56.424,223.1929 C55.896,222.6599 55.042,222.3949 53.861,222.3949 L52.688,222.3949 Z M52.688,229.5569 L52.688,233.6529 C52.688,234.4439 52.737,234.9399 52.834,235.1419 C52.935,235.3469 53.108,235.5129 53.355,235.6339 C53.606,235.7559 54.071,235.8189 54.753,235.8189 L54.753,236.2149 L47.131,236.2149 L47.131,235.8189 C47.821,235.8189 48.286,235.7559 48.533,235.6269 C48.776,235.5019 48.948,235.3399 49.05,235.1379 C49.147,234.9359 49.196,234.4439 49.196,233.6529 L49.196,224.1739 C49.196,223.3839 49.147,222.8869 49.05,222.6809 C48.948,222.4759 48.776,222.3139 48.525,222.1929 C48.278,222.0679 47.813,222.0079 47.131,222.0079 L47.131,221.6079 L54.048,221.6079 C55.851,221.6079 57.166,221.7329 58.002,221.9759 C58.834,222.2179 59.515,222.6699 60.043,223.3289 C60.568,223.9829 60.834,224.7549 60.834,225.6369 C60.834,226.7149 60.437,227.6049 59.646,228.3109 C59.141,228.7549 58.437,229.0899 57.529,229.3109 L61.108,234.2549 C61.576,234.8949 61.91,235.2919 62.105,235.4509 C62.408,235.6749 62.752,235.7959 63.15,235.8189 L63.15,236.2149 L58.462,236.2149 L53.666,229.5569 L52.688,229.5569 Z" id="Fill-7" fill="#FFFFFE"></path>
            <path d="M80.3423,221.6078 L88.0233,221.6078 L88.0233,222.0078 L87.6423,222.0078 C87.0643,222.0078 86.6673,222.0678 86.4503,222.1848 C86.2333,222.3018 86.0793,222.4678 85.9893,222.6738 C85.8993,222.8828 85.8503,223.4058 85.8503,224.2368 L85.8503,231.3878 C85.8503,232.6968 85.9513,233.5608 86.1543,233.9878 C86.3563,234.4108 86.6863,234.7598 87.1473,235.0428 C87.6083,235.3218 88.1893,235.4618 88.8933,235.4618 C89.6993,235.4618 90.3843,235.2848 90.9503,234.9278 C91.5203,234.5728 91.9433,234.0838 92.2243,233.4578 C92.5053,232.8338 92.6483,231.7448 92.6483,230.1928 L92.6483,224.2368 C92.6483,223.5818 92.5763,223.1158 92.4383,222.8368 C92.2993,222.5558 92.1233,222.3618 91.9133,222.2548 C91.5833,222.0888 91.1193,222.0078 90.5153,222.0078 L90.5153,221.6078 L95.6643,221.6078 L95.6643,222.0078 L95.3573,222.0078 C94.9413,222.0078 94.5923,222.0888 94.3153,222.2548 C94.0373,222.4198 93.8363,222.6668 93.7123,222.9978 C93.6183,223.2288 93.5693,223.6408 93.5693,224.2368 L93.5693,229.7848 C93.5693,231.5018 93.4533,232.7418 93.2243,233.5028 C92.9923,234.2628 92.4303,234.9618 91.5383,235.6018 C90.6463,236.2418 89.4253,236.5608 87.8813,236.5608 C86.5963,236.5608 85.5993,236.3918 84.8953,236.0528 C83.9403,235.5938 83.2613,235.0058 82.8643,234.2888 C82.4713,233.5688 82.2723,232.6048 82.2723,231.3878 L82.2723,224.2368 C82.2723,223.3978 82.2273,222.8768 82.1303,222.6698 C82.0363,222.4638 81.8713,222.3018 81.6353,222.1808 C81.4033,222.0558 80.9723,222.0018 80.3423,222.0078 L80.3423,221.6078 Z" id="Fill-9" fill="#FFFFFE"></path>
            <path d="M127.92,221.2768 L127.92,226.3368 L127.493,226.3368 C127.17,225.0168 126.571,224.0058 125.691,223.2988 C124.814,222.5968 123.817,222.2438 122.704,222.2438 C121.774,222.2438 120.924,222.5058 120.149,223.0308 C119.373,223.5558 118.803,224.2408 118.447,225.0898 C117.986,226.1738 117.754,227.3808 117.754,228.7078 C117.754,230.0128 117.923,231.2048 118.26,232.2778 C118.597,233.3518 119.122,234.1638 119.841,234.7118 C120.557,235.2628 121.486,235.5358 122.629,235.5358 C123.566,235.5358 124.424,235.3378 125.203,234.9318 C125.983,234.5318 126.803,233.8398 127.669,232.8548 L127.669,234.1168 C126.833,234.9688 125.964,235.5898 125.061,235.9728 C124.154,236.3588 123.101,236.5498 121.891,236.5498 C120.306,236.5498 118.893,236.2378 117.661,235.6128 C116.428,234.9878 115.476,234.0898 114.805,232.9218 C114.139,231.7488 113.801,230.5028 113.801,229.1818 C113.801,227.7888 114.172,226.4678 114.918,225.2178 C115.66,223.9678 116.66,222.9978 117.923,222.3098 C119.186,221.6188 120.526,221.2768 121.947,221.2768 C122.992,221.2768 124.098,221.4978 125.263,221.9428 C125.938,222.1998 126.365,222.3318 126.548,222.3318 C126.781,222.3318 126.983,222.2478 127.156,222.0788 C127.328,221.9098 127.44,221.6408 127.493,221.2768 L127.92,221.2768 Z" id="Fill-11" fill="#FFFFFE"></path>
            <path d="M155.3755,227.1996 L160.6095,233.6316 C161.3525,234.5356 161.9895,235.1486 162.5215,235.4726 C162.9105,235.7006 163.3195,235.8186 163.7505,235.8186 L163.7505,236.2156 L156.0005,236.2156 L156.0005,235.8186 C156.4915,235.7736 156.8065,235.6966 156.9495,235.5906 C157.0955,235.4836 157.1675,235.3506 157.1675,235.1926 C157.1675,234.8916 156.8295,234.3216 156.1545,233.4906 L152.7415,229.2776 L152.1905,229.7296 L152.1905,233.7156 C152.1905,234.4766 152.2355,234.9506 152.3255,235.1376 C152.4115,235.3256 152.5805,235.4836 152.8275,235.6166 C153.0785,235.7526 153.4755,235.8186 154.0265,235.8186 L154.0265,236.2156 L146.5175,236.2156 L146.5175,235.8186 L147.0125,235.8186 C147.4425,235.8186 147.7915,235.7416 148.0535,235.5906 C148.2445,235.4916 148.3915,235.3176 148.4925,235.0716 C148.5745,234.9026 148.6115,234.4506 148.6115,233.7156 L148.6115,224.1076 C148.6115,223.3616 148.5745,222.8946 148.4925,222.7076 C148.4135,222.5196 148.2485,222.3576 148.0055,222.2186 C147.7575,222.0786 147.4285,222.0086 147.0125,222.0086 L146.5175,222.0086 L146.5175,221.6076 L153.9255,221.6076 L153.9255,222.0086 C153.4235,222.0086 153.0375,222.0786 152.7755,222.2216 C152.5835,222.3246 152.4345,222.4936 152.3255,222.7286 C152.2355,222.9096 152.1905,223.3686 152.1905,224.1076 L152.1905,228.6526 L157.7135,224.2696 C158.4825,223.6596 158.8675,223.1706 158.8675,222.8066 C158.8675,222.5306 158.7105,222.3176 158.3955,222.1596 C158.2345,222.0786 157.8335,222.0306 157.1965,222.0086 L157.1965,221.6076 L163.0045,221.6076 L163.0045,222.0086 C162.4835,222.0456 162.0795,222.1346 161.7835,222.2806 C161.4835,222.4276 160.8015,222.9286 159.7335,223.7726 L155.3755,227.1996 Z" id="Fill-13" fill="#FFFFFE"></path>
            <path d="M217.8521,221.2768 L217.8521,226.3368 L217.4251,226.3368 C217.1021,225.0168 216.5021,224.0058 215.6231,223.2988 C214.7461,222.5968 213.7491,222.2438 212.6361,222.2438 C211.7061,222.2438 210.8561,222.5058 210.0811,223.0308 C209.3051,223.5558 208.7361,224.2408 208.3791,225.0898 C207.9181,226.1738 207.6861,227.3808 207.6861,228.7078 C207.6861,230.0128 207.8551,231.2048 208.1921,232.2778 C208.5291,233.3518 209.0541,234.1638 209.7741,234.7118 C210.4901,235.2628 211.4181,235.5358 212.5611,235.5358 C213.4981,235.5358 214.3561,235.3378 215.1351,234.9318 C215.9151,234.5318 216.7361,233.8398 217.6011,232.8548 L217.6011,234.1168 C216.7651,234.9688 215.8961,235.5898 214.9931,235.9728 C214.0861,236.3588 213.0341,236.5498 211.8231,236.5498 C210.2381,236.5498 208.8261,236.2378 207.5931,235.6128 C206.3601,234.9878 205.4091,234.0898 204.7371,232.9218 C204.0711,231.7488 203.7331,230.5028 203.7331,229.1818 C203.7331,227.7888 204.1041,226.4678 204.8501,225.2178 C205.5911,223.9678 206.5921,222.9978 207.8551,222.3098 C209.1181,221.6188 210.4581,221.2768 211.8791,221.2768 C212.9241,221.2768 214.0301,221.4978 215.1951,221.9428 C215.8701,222.1998 216.2971,222.3318 216.4801,222.3318 C216.7131,222.3318 216.9151,222.2478 217.0871,222.0788 C217.2601,221.9098 217.3721,221.6408 217.4251,221.2768 L217.8521,221.2768 Z" id="Fill-15" fill="#FFFFFE"></path>
            <path d="M242.0699,222.4506 L242.0699,228.3946 L242.3669,228.3946 C243.3099,228.3946 243.9929,228.1036 244.4199,227.5236 C244.8429,226.9426 245.1129,226.0826 245.2329,224.9506 L245.6489,224.9506 L245.6489,232.5966 L245.2329,232.5966 C245.1429,231.7636 244.9589,231.0826 244.6779,230.5496 C244.3939,230.0166 244.0669,229.6606 243.6929,229.4756 C243.3219,229.2956 242.7789,229.2036 242.0699,229.2036 L242.0699,233.3186 C242.0699,234.1236 242.1039,234.6116 242.1749,234.7926 C242.2429,234.9726 242.3749,235.1196 242.5649,235.2336 C242.7529,235.3506 243.0589,235.4066 243.4869,235.4066 L244.3749,235.4066 C245.7649,235.4066 246.8779,235.0906 247.7169,234.4586 C248.5559,233.8296 249.1559,232.8666 249.5229,231.5716 L249.9279,231.5716 L249.2599,236.2156 L236.3939,236.2156 L236.3939,235.8186 L236.8879,235.8186 C237.3189,235.8186 237.6679,235.7416 237.9289,235.5906 C238.1209,235.4916 238.2669,235.3176 238.3679,235.0716 C238.4509,234.9026 238.4919,234.4506 238.4919,233.7156 L238.4919,224.1076 C238.4919,223.4466 238.4729,223.0416 238.4359,222.8906 C238.3649,222.6406 238.2259,222.4466 238.0309,222.3096 C237.7499,222.1076 237.3719,222.0086 236.8879,222.0086 L236.3939,222.0086 L236.3939,221.6076 L248.8519,221.6076 L248.8519,225.9286 L248.4369,225.9286 C248.2229,224.8726 247.9269,224.1156 247.5419,223.6556 C247.1589,223.1956 246.6159,222.8576 245.9109,222.6446 C245.5029,222.5126 244.7349,222.4506 243.6069,222.4506 L242.0699,222.4506 Z" id="Fill-17" fill="#FFFFFE"></path>
            <path d="M273.4,221.6078 L280.744,230.6678 L280.744,224.3868 C280.744,223.5118 280.617,222.9198 280.362,222.6118 C280.009,222.1968 279.421,221.9938 278.593,222.0078 L278.593,221.6078 L283.509,221.6078 L283.509,222.0078 C282.88,222.0858 282.461,222.1888 282.243,222.3138 C282.026,222.4388 281.857,222.6448 281.737,222.9278 C281.617,223.2118 281.557,223.7008 281.557,224.3868 L281.557,236.5498 L281.182,236.5498 L271.119,224.3868 L271.119,233.6748 C271.119,234.5128 271.313,235.0798 271.707,235.3738 C272.096,235.6708 272.546,235.8188 273.048,235.8188 L273.4,235.8188 L273.4,236.2148 L268.121,236.2148 L268.121,235.8188 C268.941,235.8108 269.51,235.6458 269.833,235.3218 C270.155,234.9988 270.316,234.4508 270.316,233.6748 L270.316,223.3658 L269.998,222.9748 C269.683,222.5888 269.405,222.3358 269.162,222.2108 C268.922,222.0888 268.574,222.0228 268.121,222.0078 L268.121,221.6078 L273.4,221.6078 Z" id="Fill-19" fill="#FFFFFE"></path>
            <path d="M315.0836,221.6078 L315.0836,225.5638 L314.6896,225.5638 C314.4536,224.6488 314.1946,223.9938 313.9106,223.5968 C313.6256,223.1958 313.2316,222.8788 312.7336,222.6448 C312.4566,222.5118 311.9696,222.4508 311.2756,222.4508 L310.1666,222.4508 L310.1666,233.7148 C310.1666,234.4618 310.2086,234.9278 310.2906,235.1168 C310.3776,235.3038 310.5416,235.4658 310.7856,235.6048 C311.0326,235.7488 311.3656,235.8188 311.7896,235.8188 L312.2836,235.8188 L312.2836,236.2148 L304.4906,236.2148 L304.4906,235.8188 L304.9846,235.8188 C305.4156,235.8188 305.7646,235.7418 306.0266,235.5898 C306.2176,235.4918 306.3676,235.3178 306.4766,235.0718 C306.5586,234.9028 306.6006,234.4508 306.6006,233.7148 L306.6006,222.4508 L305.5206,222.4508 C304.5206,222.4508 303.7896,222.6558 303.3366,223.0748 C302.6986,223.6558 302.2986,224.4868 302.1306,225.5638 L301.7136,225.5638 L301.7136,221.6078 L315.0836,221.6078 Z" id="Fill-21" fill="#FFFFFE"></path>
            <path d="M338.8853,222.4506 L338.8853,228.3946 L339.1813,228.3946 C340.1253,228.3946 340.8083,228.1036 341.2353,227.5236 C341.6573,226.9426 341.9283,226.0826 342.0473,224.9506 L342.4633,224.9506 L342.4633,232.5966 L342.0473,232.5966 C341.9573,231.7636 341.7743,231.0826 341.4933,230.5496 C341.2083,230.0166 340.8823,229.6606 340.5073,229.4756 C340.1363,229.2956 339.5933,229.2036 338.8853,229.2036 L338.8853,233.3186 C338.8853,234.1236 338.9183,234.6116 338.9893,234.7926 C339.0583,234.9726 339.1893,235.1196 339.3793,235.2336 C339.5673,235.3506 339.8733,235.4066 340.3013,235.4066 L341.1893,235.4066 C342.5793,235.4066 343.6933,235.0906 344.5313,234.4586 C345.3713,233.8296 345.9713,232.8666 346.3383,231.5716 L346.7423,231.5716 L346.0753,236.2156 L333.2083,236.2156 L333.2083,235.8186 L333.7033,235.8186 C334.1343,235.8186 334.4833,235.7416 334.7443,235.5906 C334.9363,235.4916 335.0813,235.3176 335.1833,235.0716 C335.2653,234.9026 335.3063,234.4506 335.3063,233.7156 L335.3063,224.1076 C335.3063,223.4466 335.2883,223.0416 335.2503,222.8906 C335.1793,222.6406 335.0403,222.4466 334.8463,222.3096 C334.5653,222.1076 334.1863,222.0086 333.7033,222.0086 L333.2083,222.0086 L333.2083,221.6076 L345.6663,221.6076 L345.6663,225.9286 L345.2513,225.9286 C345.0373,224.8726 344.7413,224.1156 344.3563,223.6556 C343.9743,223.1956 343.4303,222.8576 342.7263,222.6446 C342.3173,222.5126 341.5493,222.4506 340.4213,222.4506 L338.8853,222.4506 Z" id="Fill-23" fill="#FFFFFE"></path>
            <path d="M370.5894,222.3949 L370.5894,228.7919 L371.2154,228.7919 C372.2304,228.7919 372.9914,228.7049 373.4974,228.5199 C374.0034,228.3359 374.4004,228.0049 374.6894,227.5269 C374.9774,227.0489 375.1234,226.4279 375.1234,225.6599 C375.1234,224.5449 374.8574,223.7259 374.3244,223.1929 C373.7964,222.6599 372.9434,222.3949 371.7624,222.3949 L370.5894,222.3949 Z M370.5894,229.5569 L370.5894,233.6529 C370.5894,234.4439 370.6384,234.9399 370.7354,235.1419 C370.8364,235.3469 371.0094,235.5129 371.2564,235.6339 C371.5074,235.7559 371.9724,235.8189 372.6534,235.8189 L372.6534,236.2149 L365.0324,236.2149 L365.0324,235.8189 C365.7224,235.8189 366.1874,235.7559 366.4344,235.6269 C366.6774,235.5019 366.8504,235.3399 366.9504,235.1379 C367.0484,234.9359 367.0974,234.4439 367.0974,233.6529 L367.0974,224.1739 C367.0974,223.3839 367.0484,222.8869 366.9504,222.6809 C366.8504,222.4759 366.6774,222.3139 366.4264,222.1929 C366.1794,222.0679 365.7144,222.0079 365.0324,222.0079 L365.0324,221.6079 L371.9494,221.6079 C373.7524,221.6079 375.0674,221.7329 375.9024,221.9759 C376.7354,222.2179 377.4164,222.6699 377.9444,223.3289 C378.4694,223.9829 378.7354,224.7549 378.7354,225.6369 C378.7354,226.7149 378.3384,227.6049 377.5484,228.3109 C377.0414,228.7549 376.3374,229.0899 375.4314,229.3109 L379.0094,234.2549 C379.4784,234.8949 379.8114,235.2919 380.0064,235.4509 C380.3094,235.6749 380.6534,235.7959 381.0514,235.8189 L381.0514,236.2149 L376.3634,236.2149 L371.5684,229.5569 L370.5894,229.5569 Z" id="Fill-25" fill="#FFFFFE"></path>
        </g>
    </g>
</svg>
