<?xml version="1.0" encoding="UTF-8"?>
<svg width="301px" height="347px" viewBox="0 0 301 347" version="1.1" xmlns="http://www.w3.org/2000/svg" xmlns:xlink="http://www.w3.org/1999/xlink">
    <!-- Generator: Sketch 51.3 (57544) - http://www.bohemiancoding.com/sketch -->
    <title>Group 133</title>
    <desc>Created with Sketch.</desc>
    <defs>
        <polygon id="path-1" points="0.00660377358 0.294915254 300.982584 0.294915254 300.982584 346.186467 0.00660377358 346.186467"></polygon>
    </defs>
    <g id="Page-1" stroke="none" stroke-width="1" fill="none" fill-rule="evenodd">
        <g id="Group-133">
            <mask id="mask-2" fill="white">
                <use xlink:href="#path-1"></use>
            </mask>
            <g id="Clip-132"></g>
            <path d="M236.659434,60.6027966 C236.618491,57.8049153 237.706415,56.6255932 237.326226,55.1333898 C237.133208,54.3752542 235.261509,53.9540678 234.588868,53.7254237 C227.593396,52.7687288 232.126415,64.459661 236.659434,60.6027966 M284.42283,119.376356 C282.042264,117.481017 280.837358,111.500169 277.591132,111.283559 C275.362642,111.133136 272.636981,114.111525 272.806604,116.909407 C272.917736,118.684407 275.386038,120.682034 277.251887,122.186271 C280.638491,124.93 284.955094,128.359661 291.599623,127.463136 C296.126792,126.84339 300.209434,124.520847 300.934717,119.586949 C301.098491,118.503898 300.887925,116.500254 299.577736,116.48822 C298.957736,116.48822 297.524717,118.215085 296.980755,118.636271 C295.70566,119.623051 294.377925,120.53161 292.845472,121.025 C289.868302,121.999746 286.879434,121.319831 284.42283,119.376356 M296.39,140.465763 C296.623962,143.227542 293.997736,144.713729 291.599623,143.636695 C291.348113,140.736525 293.430377,138.55839 296.044906,139.76178 C295.998113,140.170932 296.120943,140.387542 296.39,140.465763 M278.620566,142.228729 C277.468302,137.367034 285.235849,139.503051 285.458113,143.636695 C283.381698,145.128898 279.041698,144.02178 278.620566,142.228729 M288.868113,136.247881 C285.984528,135.85678 285.001887,132.336864 281.69717,132.378983 C277.140755,132.445169 273.976415,138.895339 269.384906,141.873729 C268.343774,142.559661 265.425094,143.317797 264.261132,143.979661 C260.956415,145.862966 256.072453,150.086864 256.405849,153.829407 C256.569623,155.682627 258.868302,157.800593 260.155094,157.692288 C262.670189,157.487712 262.278302,152.668136 264.945472,152.770424 C266.998491,152.860678 267.653585,157.054492 268.700566,158.402288 C272.853396,163.673136 280.427925,163.871695 286.452453,163.378305 C289.63434,163.113559 294.483208,163.095508 297.38434,161.741695 C298.922642,161.031695 300.069057,157.644153 297.823019,156.645339 C296.659057,156.121864 293.35434,156.74161 291.856981,156.488898 C289.961887,156.17 288.078491,155.73678 286.136604,155.935339 C283.346604,156.230169 281.872642,158.143559 279.299057,157.692288 C275.707736,157.072542 272.613585,153.498475 272.122264,148.552542 C275.74283,146.049492 279.901509,149.737881 283.74434,150.315508 C287.505283,150.869068 293.342642,150.887119 296.857925,149.118136 C299.881887,147.595847 297.706038,143.805169 298.583396,140.929068 C299.571887,137.703983 299.139057,132.409068 295.068113,132.499322 C293.711132,132.529407 292.640755,133.058898 291.558679,133.853136 C291.079057,134.196102 289.365283,136.314068 288.868113,136.247881 M278.275472,242.073983 C275.725283,239.841695 276.263396,231.207373 277.591132,228.012373 C281.100566,229.691102 279.556415,238.96322 278.275472,242.073983 M273.151698,216.417712 C274.023208,215.617458 275.567358,216.273305 276.222453,216.760678 C276.421321,219.257712 277.228491,221.122966 277.251887,223.794492 C275.386038,221.845 273.800943,219.600678 273.151698,216.417712 M270.759434,295.522542 C267.951887,292.405763 270.583962,287.38161 271.098679,283.217881 C271.519811,279.818305 271.367736,276.442797 273.151698,274.427119 C274.573019,280.961525 272.70717,290.119322 270.759434,295.522542 M262.904151,288.133729 C262.506415,291.322712 263.565094,294.379322 261.529623,296.924492 C262.35434,298.398644 262.711132,301.653814 260.500189,301.852373 C258.166415,300.281949 260.371509,298.133898 260.500189,296.220508 C260.687358,293.386525 259.821698,290.588644 260.155094,287.784746 C260.623019,283.963983 261.29566,279.679915 262.213962,275.829068 C262.459623,274.794153 263.331132,273.759237 263.576792,272.664153 C263.956981,270.901186 263.565094,268.855424 263.921887,267.038305 C264.729057,262.934746 266.337547,259.655508 266.653396,255.78661 C267.138868,249.865932 265.57717,242.122119 264.600377,237.152119 C263.635283,232.236271 263.927736,226.983475 262.904151,222.392542 C262.213962,219.372034 260.18434,217.36839 260.155094,213.60178 L260.839434,213.60178 C264.319623,214.865339 265.7,217.753475 267.676981,221.333559 C271.730377,228.656186 270.917358,246.394153 269.384906,257.543559 C267.986981,267.766356 264.079811,278.374237 262.904151,288.133729 M254.35283,280.750932 C252.130189,276.430763 253.978491,272.965 254.692075,269.150254 C256.786038,257.934661 256.58717,241.610678 253.323396,232.940254 C251.633019,228.445593 249.609245,223.180763 247.854528,220.274576 C247.018113,218.896695 245.555849,218.21678 244.43283,216.760678 C243.748491,215.864153 243.725094,214.438136 243.07,213.60178 C242.040566,212.26 240.180566,211.447712 238.97566,210.081864 C236.033585,206.778559 234.600566,204.347712 230.769434,201.291102 C227.002642,198.294661 222.323396,195.430593 227.002642,190.039407 C227.295094,189.979237 227.341887,190.177797 227.347736,190.38839 L228.032075,190.38839 C230.231321,194.383644 232.974528,198.890339 236.922642,201.640085 C237.642075,202.151525 238.911321,202.061271 239.654151,202.699068 C240.677736,203.577542 241.268491,205.575169 242.391509,206.567966 C246.006226,209.805085 251.393208,213.228729 253.668491,217.813644 C255.411509,221.333559 257.979245,229.173644 258.113774,234.691186 C258.13717,235.900593 257.628302,237.18822 257.768679,238.560085 C258.008491,240.918729 259.511698,243.313475 259.815849,245.942881 C261.184528,257.712034 257.879811,270.654492 254.35283,280.750932 M252.978302,288.133729 C250.118113,288.242034 250.463208,280.185339 254.007736,281.460932 C255.393962,283.326186 254.376226,286.984492 252.978302,288.133729 M248.199623,268.091271 C247.772642,271.11178 247.872075,274.655763 245.456415,276.533051 C245.637736,270.407797 244.485472,263.386017 243.415094,257.543559 C241.888491,249.228136 242.976415,238.475847 238.97566,232.230254 C238.016415,230.756102 236.06283,229.444407 235.208868,227.657373 C233.378113,223.866695 233.39566,220.292627 230.430189,216.760678 C228.886038,214.931525 225.46434,211.592119 223.592642,210.081864 C221.522075,208.415169 218.252453,207.386271 218.117925,205.16 C217.731887,198.318729 224.546038,203.836271 226.663396,205.863983 C228.406415,207.524661 230.822075,208.932627 232.132264,210.430847 C234.278868,212.915847 235.056792,217.121695 238.97566,217.813644 C239.700943,221.321525 243.081698,223.848644 244.43283,227.30839 C249.264151,239.685254 250.246792,253.415932 248.199623,268.091271 M241.70717,291.653644 C240.771321,288.855763 242.216038,285.985678 243.07,283.915847 L244.105283,283.915847 C244.350943,286.226356 244.608302,291.425 241.70717,291.653644 M241.02283,297.628475 C240.022642,296.984661 240.71283,293.783644 241.362075,292.70661 C242.116604,292.514068 241.853396,293.374492 242.391509,293.404576 C242.286226,295.185593 241.683774,296.437119 241.02283,297.628475 M239.309057,304.313305 C236.975283,304.174915 237.993019,300.492542 239.654151,300.43839 C241.093019,301.040085 239.665849,303.368644 239.309057,304.313305 M234.524528,281.809915 C233.167547,274.896441 236.261698,268.512458 235.553962,261.767458 C235.355094,259.836017 234.120943,258.055 233.846038,256.14161 C233.658868,254.908136 234.056604,253.770932 233.846038,252.621695 C233.541887,250.961017 232.442264,249.45678 232.132264,248.054831 C231.66434,245.942881 231.968491,244.34839 231.453774,242.783983 C230.634906,240.268898 228.102264,238.247203 228.032075,234.342203 C226.289057,230.479322 222.966792,227.145932 220.516038,223.445508 C219.75566,222.302288 219.480755,220.804068 218.802264,219.93161 C217.170377,217.813644 211.894528,216.002542 215.731509,212.187797 C219.784906,213.294915 224.932075,218.72822 227.002642,222.392542 C228.517547,225.046017 228.201698,229.059322 231.10283,230.124322 C233.296226,239.504746 238.531132,251.88161 238.97566,263.524407 C239.197925,269.655678 238.952264,278.72322 234.524528,281.809915 M231.453774,294.114576 C231.10283,293.645254 230.892264,293.049576 230.430189,292.70661 C230.588113,290.059153 231.705283,288.392458 232.816604,286.73178 C233.173396,288.891864 235.015849,293.218051 231.453774,294.114576 M224.616226,319.776864 C221.837925,317.075254 224.358868,309.132881 227.002642,307.472203 C227.078679,302.032881 229.026415,298.531017 231.10283,295.167542 L232.132264,295.167542 C232.974528,297.255424 231.529811,299.259068 230.430189,300.43839 C231.541509,307.351864 226.733585,313.880254 224.616226,319.776864 M222.902453,273.368136 C223.23,265.203136 220.37566,258.512288 219.492453,251.568729 C218.615094,244.751525 217.655849,238.168983 214.011887,232.940254 C212.415094,230.629746 207.478491,227.242203 208.215472,222.735508 C208.309057,222.097712 209.578302,219.185508 211.280377,219.93161 C213.824717,221.032712 216.673208,227.097797 218.802264,230.822288 C221.884717,236.201441 224.019623,240.455424 225.990755,247.350847 C227.698679,253.373814 229.43,267.176695 228.37717,274.776102 C228.113962,276.647373 226.88566,277.880847 226.324151,279.697966 C225.364906,282.790678 225.639811,286.689661 223.247547,288.488729 C219.047925,285.925508 222.691887,278.735254 222.902453,273.368136 M213.672642,277.947034 C213.86566,274.788136 211.479245,272.339237 210.946981,269.499237 C210.631132,267.826525 211.20434,265.840932 210.946981,263.879407 C210.631132,261.490678 209.660189,258.343814 208.888113,256.14161 C206.396415,248.987458 201.196604,241.749068 201.383774,237.152119 C201.430566,235.720085 203.003962,231.393898 204.44283,231.177288 C208.022453,230.647797 213.116981,243.132966 214.011887,247.350847 C214.707925,250.533814 214.269245,254.324492 214.368679,257.898559 C214.555849,265.058729 217.474528,273.440339 213.672642,277.947034 M213.672642,294.463559 C213.491321,295.697034 212.420943,296.250593 211.970566,297.628475 C211.51434,298.982288 212.017358,300.528644 211.625472,301.852373 C211.093208,303.669492 208.776981,306.166525 208.548868,308.880169 C207.735849,309.090763 206.98717,309.385593 205.817358,309.229153 C206.098113,303.164068 209.455472,297.303559 210.601887,290.943644 C210.876792,290.648814 211.537736,290.739068 211.625472,290.251695 C213.134528,290.733051 214.076226,291.822119 213.672642,294.463559 M199.67,221.688559 C196.359434,219.769153 198.763396,216.044661 199.67,213.60178 C201.34283,209.016864 201.986226,204.317627 205.133019,201.291102 C207.209434,199.299492 210.672075,198.348814 212.649057,195.665254 C213.766226,194.161017 213.795472,191.988898 214.707925,190.38839 C216.556226,187.157288 219.340377,185.159661 221.194528,182.307627 C223.311887,175.105339 225.704151,168.191864 227.686981,160.857203 C227.774717,160.478136 228.365472,160.622542 228.37717,160.159237 C228.926981,160.056949 228.962075,160.490169 229.394906,160.502203 C231.863208,168.354322 228.108113,175.460339 224.955472,181.254661 C223.411321,184.094661 222.259057,187.458136 220.855283,189.341441 C220.124151,190.316186 218.831509,190.851695 218.117925,191.796356 C217.106038,193.16822 216.749245,195.033475 215.731509,196.369237 C214.146415,198.457119 212.415094,199.949322 210.946981,201.995085 C208.069245,206.00839 205.501509,210.166102 203.430943,215.358729 C202.623774,217.356356 201.980377,220.334746 199.67,221.688559 M200.693585,143.281695 C201.360377,138.841186 203.781887,134.996356 204.109434,130.273051 C204.337547,126.92161 203.863774,124.177881 205.817358,121.127288 C214.011887,123.600254 205.402075,131.24178 204.793774,138.359831 C204.577358,140.82678 206.092264,142.192627 204.44283,144.689661 C202.933774,145.712542 201.512453,144.087966 200.693585,143.281695 M197.616981,123.239237 C196.236604,127.854237 197.470755,132.95661 196.242453,137.300847 C194.698302,142.788305 189.586226,146.891864 187.70283,151.717458 C186.971698,153.582712 187.539057,156.585169 185.310566,157.343305 C181.631509,154.413051 187.153019,150.574237 185.65566,145.387627 C188.393019,141.885763 189.87283,137.294831 191.803019,131.681017 C192.545849,129.502881 193.90283,127.072034 194.195283,125.345169 C195.552264,117.306525 193.610377,109.340085 198.98566,104.604746 C199.377547,104.544576 199.593962,104.682966 199.67,104.953729 C201.062075,106.397797 203.384151,110.723983 203.085849,113.750508 C202.740755,117.144068 198.623019,119.851695 197.616981,123.239237 M182.228113,136.951864 C179.403019,129.966186 184.526792,121.981695 185.310566,116.205424 C185.643962,113.738475 184.807547,110.970678 185.310566,108.473644 C185.550377,107.282288 186.579811,106.518136 187.018491,105.308729 C187.480566,104.033136 187.310943,102.432627 187.70283,101.445847 C189.50434,96.8188136 193.896981,94.8452542 196.932642,91.5900847 L197.283585,91.5900847 C202.851887,97.0474576 192.97283,101.572203 190.440189,106.012712 C187.117925,111.813051 189.100755,122.769915 186.673396,129.924068 C185.860377,132.324831 184.427358,135.543898 182.228113,136.951864 M212.303962,147.499576 C213.573208,157.397458 209.736226,164.978814 205.817358,170.700932 C203.688302,167.45178 205.086226,159.665847 205.133019,155.231356 C208.502075,153.877542 208.97,147.716186 212.303962,147.499576 M214.707925,134.135932 C216.386604,136.332119 215.023774,141.109576 212.303962,141.873729 C211.800943,139.298475 211.455849,134.009576 214.707925,134.135932 M220.855283,141.873729 C221.253019,141.813559 221.463585,141.945932 221.539623,142.228729 C226.055094,145.363559 222.475472,149.172288 221.539623,153.474407 C220.638868,157.632119 221.030755,163.113559 220.170943,167.193051 C218.305094,175.959746 211.362264,183.360593 207.870377,188.282458 C206.852642,190.996102 205.846604,193.697712 202.740755,194.263305 C202.190943,191.543644 202.284528,188.168136 201.71717,185.472542 C203.63566,181.820254 208.466981,181.164407 209.233208,176.32678 C219.63283,170.947627 217.070943,154.491271 219.831698,142.571695 C220.106604,142.270847 220.767547,142.367119 220.855283,141.873729 M241.70717,194.961271 C235.881509,194.275339 234.08,189.449746 232.477358,184.413559 C236.378679,187.085085 239.554717,190.490678 241.70717,194.961271 M247.854528,200.593136 C245.713774,200.857881 242.976415,199.167119 243.07,196.026271 C244.941698,197.259746 247.638113,197.644831 247.854528,200.593136 M258.44717,210.785847 C254.124717,209.371864 251.042264,206.688305 249.562453,202.344068 C252.791132,204.889237 256.844528,206.58 258.44717,210.785847 M258.798113,200.238136 C255.370566,199.425847 253.703585,196.802458 252.978302,193.198305 C256.569623,192.277712 259.950377,196.291017 258.798113,200.238136 M130.627736,183.01161 C130.317736,187.199407 128.697547,190.972034 128.229623,194.961271 C127.06566,205.039661 128.504528,214.720932 126.182453,223.445508 C120.128679,223.716271 121.433019,214.010932 121.397925,209.377881 C122.275283,208.174492 125.357736,209.245508 126.182453,207.975932 C126.211698,204.305593 123.176038,203.800169 120.035094,203.403051 C113.688868,195.183898 122.614528,176.687797 116.952642,167.891017 C117.531698,165.448136 118.94717,161.976356 116.268302,160.857203 C112.138868,163.649068 106.032453,162.415593 106.699245,155.935339 C106.968302,153.396186 108.799057,148.973729 110.460189,146.097627 C111.32,144.605424 113.051321,143.438136 113.870189,141.873729 C114.735849,140.225085 114.800189,138.107119 115.589811,136.951864 C118.414906,132.830254 125.246604,133.937373 129.937547,134.845932 C132.821132,141.957966 130.124717,150.038729 130.627736,157.692288 C130.72717,159.22661 131.563585,160.742881 131.651321,162.265169 C131.815094,165.129237 130.791509,168.414492 130.627736,171.753898 C130.440566,175.454322 130.885094,179.473644 130.627736,183.01161 M104.31283,236.809153 C105.424151,234.552797 106.055849,231.809068 107.038491,229.420339 C109.266981,231.345763 109.658868,235.166525 110.460189,238.560085 C108.541698,240.774322 105.260377,238.692458 104.31283,236.809153 M102.593208,148.907542 C99.3235849,147.463475 100.540189,141.759407 99.8733962,138.004831 C99.4756604,135.874831 98.2532075,133.967458 98.1537736,132.378983 C97.9256604,128.419831 100.540189,122.09 102.938302,118.672373 C103.69283,117.595339 105.892075,116.434068 107.72283,114.803475 C110.302264,112.511017 111.284906,111.710763 114.221132,109.52661 C118.350566,106.457966 120.035094,101.415763 125.158868,102.847797 C128.06,109.689068 122.070566,111.373814 118.321321,114.099492 C113.408113,117.673559 106.664151,122.673644 105.67566,130.273051 C104.868491,136.500593 108.03283,145.652373 102.593208,148.907542 M98.1537736,154.17839 C96.4926415,155.086949 92.0766038,155.562288 90.6377358,154.527373 C82.9754717,143.558475 87.1633962,121.710932 94.7379245,113.395508 C96.3756604,111.596441 97.7384906,109.424322 98.8381132,108.473644 C99.7154717,107.709492 101.52283,107.18 102.593208,106.361695 C109.571132,101.060763 116.010943,93.0762712 123.790189,94.0570339 C123.263774,97.3362712 120.146226,99.5805932 117.631132,101.445847 C113.601132,104.430254 108.237547,106.524153 103.973585,110.230593 C100.727358,113.034492 98.8849057,116.325763 96.4458491,120.074322 C95.4515094,121.602627 93.7669811,122.625508 93.3692453,123.937203 C91.9186792,128.810932 93.5037736,132.282712 94.0535849,136.602881 C94.5507547,140.507881 94.0769811,144.852119 95.0771698,147.854576 C95.919434,150.339576 98.5690566,151.675339 98.1537736,154.17839 M124.813774,125.700169 C120.871509,127.029915 117.391321,128.841017 112.852453,129.569068 C112.039434,121.674831 121.011887,118.997288 125.498113,116.560424 C128.516226,118.642288 126.703019,123.877034 124.813774,125.700169 M82.0922642,152.770424 C83.5720755,156.687458 88.6256604,160.099068 83.4609434,163.673136 C80.3960377,163.125593 79.9632075,159.094237 78.670566,155.935339 C78.0271698,154.364915 76.5473585,153.245763 75.9390566,151.717458 C75.5296226,150.688559 75.6407547,148.925593 75.254717,147.499576 C74.7809434,145.754661 73.4181132,144.184237 73.2075472,142.926695 C72.8156604,140.658305 72.9443396,137.758136 72.8624528,135.543898 C72.5641509,127.745932 76.1496226,121.006949 78.670566,114.803475 C82.2209434,113.70839 82.9462264,110.140339 85.1688679,107.414661 C86.6779245,105.567458 89.3801887,105.025932 91.6613208,103.202797 C93.135283,102.023475 93.8079245,99.6949153 95.0771698,98.6299153 C96.4633962,97.4686441 98.6567925,96.8127966 100.546038,95.465 C104.815849,92.4083898 111.208868,87.6128814 115.923208,85.6152542 C117.449811,84.9774576 119.058302,84.9714407 120.368491,84.219322 C122.023774,83.2626271 124.176226,78.8702542 126.527547,81.7523729 C126.580189,87.5226271 120.74283,88.7861864 116.952642,90.5371186 C109.27283,94.0871186 102.973396,99.9897458 96.1007547,104.255763 C87.344717,113.437627 79.8169811,122.053898 80.0450943,140.465763 C80.0860377,144.166186 80.9107547,149.653644 82.0922642,152.770424 M77.3135849,175.622797 C75.05,175.454322 74.9622642,172.698559 73.8860377,171.055932 C72.7922642,169.371186 70.9790566,168.330254 70.1309434,166.838051 C69.5050943,165.742966 69.5577358,164.262797 68.7622642,162.620169 C64.0186792,152.686186 58.0643396,144.184237 59.1932075,128.859068 C59.760566,121.187458 61.930566,117.649492 65.6915094,113.040508 C67.1888679,111.211356 69.7507547,110.044068 71.1603774,108.124661 C72.3126415,106.536186 72.5173585,104.436271 73.5467925,103.202797 C74.3422642,102.228051 76.1028302,101.836949 77.3135849,100.741864 C78.3839623,99.7490678 79.0449057,98.0883898 80.0450943,97.2219492 C82.3613208,95.2062712 85.5022642,94.1412712 87.9062264,92.3061017 C91.0764151,89.8572034 93.5096226,87.0051695 97.8145283,84.5622881 C103.458868,81.3672881 109.939623,77.9316102 116.607547,75.7775424 C117.853396,75.6692373 118.830189,75.8316949 119.69,76.1325424 C121.994528,74.4778814 124.860566,70.1637288 128.574717,72.2576271 C128.089245,75.7414407 125.158868,76.7161864 121.058679,76.4755085 C116.437925,81.5598305 110.109245,83.160339 104.31283,86.3192373 C100.323774,88.4913559 96.6154717,92.7573729 92.6907547,95.465 C91.5735849,96.2291525 90.2750943,96.4698305 89.2690566,97.2219492 C82.3028302,102.420593 77.2609434,109.923729 70.815283,115.152458 C67.2766038,124.996186 62.5037736,143.474237 70.4760377,152.066441 C70.4409434,161.729661 83.4433962,166.368729 77.3135849,175.622797 M70.815283,192.151356 C68.6335849,189.034576 68.8383019,185.382288 67.3935849,182.307627 C66.6975472,180.833475 65.7266038,179.696271 64.6620755,178.444746 C63.6092453,177.19322 62.3458491,176.513305 61.2403774,175.273814 C60.1933962,174.094492 59.8307547,172.307458 58.8481132,171.410932 C57.0524528,169.762288 54.2098113,169.641949 52.3556604,167.891017 C51.5016981,163.456525 48.0273585,159.816271 46.5416981,154.882373 C45.9626415,152.938898 46.2316981,150.664492 45.8632075,148.552542 C45.3192453,145.417712 43.7633962,141.861695 43.8101887,138.359831 C43.8277358,137.246695 44.6641509,135.898898 44.8337736,134.490932 C45.1028302,132.30678 44.3366038,129.996271 44.5003774,128.161102 C44.7343396,125.465508 46.4071698,121.831271 47.2260377,118.672373 C47.9103774,116.073051 47.7524528,113.443644 48.600566,111.987542 C49.3960377,110.603644 51.3730189,110.116271 52.3556604,108.822627 C53.0867925,107.871949 52.9932075,106.355678 53.7243396,105.308729 C54.4262264,104.303898 56.1283019,103.978983 57.1401887,102.847797 C58.1520755,101.722627 58.3333962,99.8934746 59.1932075,98.9849153 C60.070566,98.0462712 61.5971698,97.7815254 62.6090566,96.8729661 C65.4633962,94.3157627 67.8907547,90.5672034 70.815283,88.0822034 C75.1026415,84.4238983 80.3492453,82.1976271 85.1688679,79.6404237 C87.239434,78.545339 88.6373585,76.4694915 90.6377358,75.4225424 C91.5443396,74.9472034 92.6381132,75.1938983 93.7084906,74.7125424 C95.7381132,73.8280508 97.6215094,71.6920339 99.5224528,70.855678 C102.909057,69.3454237 107.371887,68.960339 111.144528,67.3357627 C118.643019,64.104661 122.093962,59.369322 130.282642,59.9529661 C131.236038,65.8074576 127.831887,65.7713559 123.445094,67.6847458 C121.824906,68.3947458 120.508868,69.8448305 118.999811,70.500678 C116.671887,71.5235593 114.057358,71.3550847 111.477925,72.2576271 C109.033019,73.1180508 107.377736,75.0434746 104.991321,76.1325424 C101.885472,77.5405085 98.2649057,78.0519492 95.4222642,79.9954237 C92.9832075,81.6561017 91.1816981,83.75 88.9298113,85.2662712 C86.5609434,86.8667797 83.7767925,87.655 81.4137736,89.1351695 C78.0564151,91.2230508 74.5586792,95.8982203 70.815283,99.3278814 C67.3701887,102.48678 63.2232075,105.784068 60.5560377,109.52661 C55.83,116.187373 50.2792453,129.514915 52.3556604,138.708814 C52.8528302,140.905 53.4845283,143.516356 54.069434,146.097627 C56.8828302,158.691102 63.9718868,169.220763 70.815283,178.793729 C72.1254717,180.610847 74.0322642,181.814237 74.2311321,183.715593 C74.5586792,186.844407 72.8332075,190.514746 70.815283,192.151356 M79.0156604,310.992119 C78.9571698,311.401271 79.0916981,311.611864 79.3607547,311.696102 C77.0620755,316.238898 70.7392453,316.660085 64.6620507,317.315932 C64.6503774,314.090847 68.7856604,315.005424 72.1839623,313.796017 C74.5703774,312.953644 76.2256604,308.880169 79.0156604,310.992119 M223.592642,47.6483051 C227.991132,47.4136441 234.337358,50.2295763 239.309057,51.1622034 C241.239245,51.5172034 242.754151,51.0418644 244.105283,51.5172034 C246.275283,52.2813559 247.439245,54.8686441 249.223208,56.0840678 C252.668302,58.4186441 259.008679,58.9 259.137358,61.7099153 C259.324528,65.5427119 246.363019,66.2767797 242.052264,65.9277966 C239.057547,65.6931356 236.571698,63.3886441 233.500943,62.4138983 C228.113962,60.7171186 222.142075,61.1683898 218.117925,58.545 C215.023774,53.0334746 217.176226,47.9912712 223.592642,47.6483051 M245.210755,5.2829661 C246.491698,5.09644068 248.761132,3.58618644 247.064906,2.09398305 C246.210943,1.34788136 242.847736,2.25644068 241.865094,2.32262712 C239.59566,2.46101695 236.565849,2.14813559 234.588868,3.51398305 C232.208302,5.16262712 230.476981,7.11813559 227.675283,8.58025424 C221.153585,12.0099153 214.210755,14.765678 208.215472,19.1640678 C202.629623,25.9632203 196.189811,31.8778814 191.124528,39.2125424 C189.287925,44.3931356 186.082642,51.9925424 185.310566,59.6039831 C184.491698,67.7208475 182.777925,71.4272881 176.765094,73.3105932 C175.916981,70.5849153 175.191698,66.2045763 175.73566,63.1178814 C176.291321,59.9890678 179.601887,56.3307627 180.526038,52.5701695 C180.976415,50.7049153 180.607925,48.7313559 181.210377,47.2933051 C181.777736,45.9394915 183.491509,44.8684746 184.286981,43.4244068 C187.404528,37.7925424 188.931132,31.0415254 193.510943,25.8488983 C197.593585,21.2098305 203.787736,16.1916949 208.548868,12.4912712 C210.841698,10.7102542 218.632642,9.5790678 217.901509,5.9929661 C217.012453,1.69084746 210.280189,4.87983051 208.203774,6.28779661 C205.80566,7.91237288 203.787736,10.0483898 201.46566,11.7752542 C196.283396,15.6381356 191.136226,19.7477119 187.363585,25.1449153 C180.976415,29.2484746 180.122453,39.0260169 175.05717,44.4833898 C171.477547,41.980339 175.484151,38.2317797 174.712075,33.580678 C178.250755,29.7057627 179.245094,24.11 182.579057,20.2230508 C184.48,18.0027966 187.854906,17.2386441 188.38717,13.8932203 C188.474906,13.3577119 195.253962,9.67533898 196.154717,8.97737288 C197.113962,8.22525424 199.354151,7.07 199.939057,6.0170339 C200.611698,4.81364407 199.810377,4.16381356 199.892264,2.62347458 C196.529057,3.44177966 193.703962,1.3659322 191.569057,4.62711864 C190.393396,6.43220339 190.176981,7.74389831 188.164906,9.10372881 C186.556415,10.1867797 184.713962,10.8005085 183.257547,12.1362712 C182.37434,12.9485593 182.228113,14.2542373 181.210377,15.2951695 C180.280377,16.2578814 178.695283,16.7933898 177.788679,17.7621186 C173.834717,22.0401695 172.881321,27.1605932 169.243208,31.4747458 C166.68717,29.7117797 163.148491,31.1317797 160.358491,29.7117797 C159.077547,26.2339831 163.21283,25.4216949 163.780189,22.6839831 C163.926415,21.9739831 168.190377,19.615339 168.939057,18.9775424 C170.664528,17.5094068 172.249623,15.8727966 173.834717,14.2482203 C176.841132,11.1675424 180.005472,8.35161017 183.123019,5.43338983 C182.193019,4.72338983 181.263019,3.75466102 180.841887,2.61144068 C179.338679,4.66322034 176.952264,4.54288136 175.05717,5.6259322 C173.086038,6.75110169 171.559434,8.96533898 170.085472,10.6922034 C167.049811,14.2542373 163.908868,18.3818644 159.334906,19.8680508 C158.00717,19.0076271 157.474906,17.3288983 157.626981,14.9461864 C157.615283,15.0665254 162.750755,11.2036441 163.242075,10.6561017 C164.873962,8.83898305 166.418113,7.00983051 168.190377,5.35516949 C167.769245,4.85576271 167.611321,4.33228814 167.435849,3.70652542 C166.301132,3.97127119 165.289245,3.59822034 165.078679,2.35271186 C163.353208,2.86415254 161.387925,4.12771186 160.153774,5.47550847 C159.200377,6.51644068 158.574528,9.10974576 156.603396,8.61635593 C155.228868,8.27940678 154.497736,7.25652542 154.550377,5.45745763 C154.123396,2.69567797 149.432453,0.294915254 147.262453,0.294915254 C144.191698,0.294915254 140.764151,3.12889831 138.828113,5.45745763 C136.886226,7.78 133.201321,11.4683898 129.937547,12.8342373 C126.673774,14.2121186 123.608868,14.1820339 121.058679,15.6501695 C118.058113,17.3830508 114.689057,21.1316102 111.823019,22.3289831 C110.20283,23.0149153 108.021132,22.8223729 106.354151,23.3879661 C99.3645283,25.770678 93.3107547,30.8369492 86.5375472,33.580678 C81.764717,35.5121186 76.3133962,35.8370339 71.4937736,37.8045763 C69.9788679,38.424322 68.2592453,40.1692373 66.37,41.3184746 C56.964717,47.0285593 48.8228302,53.1959322 40.3943396,58.9 C36.9024528,61.264661 32.89,63.4728814 29.7958491,65.9277966 C22.7009434,71.5716949 17.9339623,79.7066102 11.3479245,85.2662712 C8.27716981,89.189322 8.37075472,94.9234746 5.03679245,98.6299153 C3.38735849,100.465085 2.35207547,100.609492 1.81981132,103.437458 C1.45132075,105.362881 1.54490566,107.336441 1.34603774,109.273898 C0.901509434,113.563983 2.05962264,117.462966 5.35849057,112.330508 C9.18962264,106.373729 10.7220755,99.0811864 14.4186792,93.0040678 C17.9749057,87.1435593 21.6832075,81.1266102 27.7486792,77.8834746 C29.3045283,74.640339 31.1235849,73.3707627 33.5567925,70.855678 C36.405283,67.9013559 38.6220755,66.8664407 41.7630189,64.8748305 C44.5471698,63.1178814 46.9101887,60.434322 49.6241509,58.545 C51.4607547,57.2633898 53.6249057,56.5714407 55.4381132,55.3800847 C57.4267925,54.0744068 58.9241509,51.8421186 60.9011321,50.4582203 C64.0069811,48.2981356 68.2416981,46.6133898 72.1839623,44.8383898 C76.1028302,43.0633898 79.9866038,40.5783898 83.8001887,39.2125424 C87.9471698,37.720339 92.3983019,37.0344068 96.4458491,35.3376271 C98.4345283,34.519322 100.200943,32.8887288 102.259811,31.8237288 C105.979811,29.8922881 109.448302,28.7129661 113.536792,26.9018644 C120.707736,23.7309322 126.691321,16.6911017 135.061321,17.0581356 C135.926981,19.6694915 134.154717,22.0642373 133.359245,24.0859322 C127.703208,23.8933898 124.58566,27.7382203 120.713585,29.0138136 C118.409057,29.7719492 116.005094,29.5312712 113.870189,30.4217797 C110.243774,31.9260169 108.079623,34.519322 105.336415,36.0476271 C103.248302,37.1968644 100.803396,37.3773729 98.1537736,38.5085593 C96.2469811,39.3208475 94.679434,41.2101695 92.6907547,42.0224576 C90.0060377,43.1115254 87.2218868,43.1837288 84.8179245,44.4833898 C82.2618868,45.879322 79.805283,47.5219492 77.3135849,49.0502542 C75.775283,49.9949153 74.8862264,51.6555932 73.5467925,52.5701695 C72.5758491,53.2380508 71.1545283,53.3283051 70.1309434,53.9721186 C68.5166038,55.0010169 67.4345283,56.7519492 66.0307547,57.4920339 C63.9426415,58.5871186 61.4450943,58.5991525 59.1932075,59.6039831 C56.660566,60.7291525 54.2156604,62.7749153 51.6654717,64.5258475 C49.1562264,66.2527119 47.2260377,68.4127966 44.8337736,70.500678 C43.2486792,71.8966102 41.0143396,72.6727966 39.3649057,74.0205932 C37.3820755,75.6391525 35.3933962,78.310678 33.2175472,80.3444068 C28.0528302,85.17 24.8884906,89.6586441 20.9111321,94.7610169 C20.3145283,95.5492373 20.7356604,97.3904237 19.8933962,97.9259322 C19.2149057,99.3940678 17.1326415,100.067966 16.1266038,101.788814 C15.015283,103.70822 15.1966038,106.530169 14.079434,109.17161 C13.4067925,110.772119 11.6754717,112.053729 11.0028302,113.750508 C8.71584906,119.478644 6.76226415,127.186356 7.93207547,133.437966 C8.85622642,138.413983 15.9686792,143.022966 11.3479245,148.907542 C9.33,151.470763 4.63320755,147.577797 2.44566038,150.838983 C-0.841509434,155.706695 5.11867925,156.494915 8.2654717,156.085763 C12.2720755,155.562288 17.2671698,153.907627 18.1737736,149.256525 C19.6535849,141.699237 14.6701887,138.955508 13.7401887,134.135932 C12.0673585,125.489576 15.9803774,120.838475 17.8345283,115.507458 C19.4781132,110.778136 18.8990566,108.154746 22.6249057,105.657712 C23.0986792,103.287034 24.4322642,101.331525 25.7015094,99.3278814 C26.8654717,97.4866949 27.8481132,95.1400847 29.1173585,93.3590678 C31.3341509,90.2422881 34.7792453,88.2145763 37.3235849,85.6152542 C38.6045283,84.3095763 39.0841509,82.3540678 40.3943396,81.0544068 C41.2775472,80.1759322 42.7749057,79.8931356 43.8101887,78.9424576 C44.769434,78.0579661 45.3075472,76.5477119 46.2024528,75.7775424 C50.454717,72.0891525 56.3798113,70.5909322 59.8833962,65.9277966 C64.3462264,64.8507627 66.779434,62.1130508 70.1309434,59.9529661 C72.7103774,58.2862712 75.4535849,57.1972034 77.9920755,55.7350847 C79.4075472,54.9167797 80.3083019,53.4787288 81.7530189,52.5701695 C88.6958491,48.1777966 96.7850943,45.1512712 104.31283,41.3184746 C111.811321,37.4916949 120.193019,34.8502542 127.890377,31.1197458 C129.67434,30.2533051 131.119057,28.1774576 133.359245,28.3098305 C136.231132,36.4928814 130.200755,36.9501695 125.158868,38.8575424 C122.04717,40.0368644 118.590377,42.7324576 115.250566,44.1344068 C113.694717,44.7782203 112.033585,44.6578814 110.805283,45.1873729 C109.161698,45.885339 108.003585,47.425678 106.354151,48.3522881 C97.6507547,53.2260169 86.4849057,58.5570339 77.3135849,62.7628814 C71.1077358,65.6088983 65.0481132,70.9399153 59.5383019,74.7125424 C58.4211321,75.4827119 56.76,75.699322 55.7773585,76.4755085 C54.0109434,77.8834746 52.7767925,80.6151695 50.9928302,82.450339 C47.4950943,86.0544915 43.3715094,89.5322881 39.71,92.6490678 C37.5516981,94.4842373 35.3466038,95.7297458 33.9018868,97.5709322 C30.8779245,101.415763 29.2811321,106.482034 25.3564151,108.822627 C26.2337736,112.240254 23.5198113,114.71322 22.6249057,117.607373 C22.2681132,118.75661 22.5781132,120.170593 22.2798113,121.482288 C21.7884906,123.636356 20.4607547,125.441441 20.2326415,127.463136 C19.4196226,134.478898 21.215283,141.494661 21.6013208,147.499576 C25.2160377,153.275847 31.9892453,157.662203 32.8783019,165.081102 C29.9771698,165.580508 27.1871698,163.300085 25.3564151,161.561186 C21.8177358,158.203729 13.5120755,159.040085 9.2890566,159.900508 C4.20037736,160.941441 1.05943396,161.699576 1.32264151,167.590169 C4.18283019,167.590169 6.24754717,168.083559 9.11358491,167.156949 C11.81,166.278475 14.2198113,164.852458 17.1560377,165.081102 C19.3728302,165.249576 22.0809434,167.385593 24.3328302,168.246017 C27.1637736,169.323051 29.7666038,171.200339 31.8488679,171.410932 C35.2354717,171.753898 39.6222642,169.292966 40.0550943,167.193051 C40.3884906,165.53839 37.645283,160.044915 36.6392453,158.047288 C34.4867925,153.811356 30.1818868,150.153051 28.7781132,147.144576 C26.9824528,143.305763 25.5377358,135.898898 26.0407547,130.622034 C26.2513208,128.383729 28.0879245,125.820508 28.7781132,122.890254 C29.6437736,119.147712 29.5911321,115.549576 31.1645283,112.697542 C32.2115094,110.802203 34.6681132,109.189661 35.9490566,107.065678 C37.440566,104.592712 38.0722642,101.554153 39.3649057,100.037881 C40.9967925,98.1184746 44.1786792,97.1738136 47.2260377,95.1160169 C48.799434,94.045 52.2737736,91.0425424 53.3792453,89.8391525 C54.9935849,88.0942373 55.3562264,86.000339 56.7950943,84.9172881 C57.8479245,84.1290678 59.4622642,83.9485593 60.5560377,83.160339 C63.58,80.9761864 65.13,77.0290678 68.0779245,74.7125424 C71.745283,71.8484746 77.6937736,69.8267797 81.4137736,67.3357627 C83.2620755,66.0902542 84.6658491,64.0625424 86.1924528,63.4668644 C88.3566038,62.6365254 90.6201887,62.5161864 92.6907547,61.7099153 C94.6969811,60.9337288 96.5043396,60.4222881 98.4988679,59.2489831 C106.202075,54.7061864 114.460943,51.5894068 121.743019,47.2933051 C124.948302,45.4039831 127.06566,41.2342373 131.651321,42.3714407 C133.616604,44.110339 131.90283,47.5640678 131.651321,50.1092373 C123.263774,54.9769492 114.074906,56.2164407 106.020755,60.6509322 C100.189245,63.87 94.4922642,67.4500847 88.9298113,70.500678 C85.2507547,72.5163559 81.3318868,74.0025424 77.6469811,76.1325424 C75.1611321,77.5525424 72.9209434,79.9773729 70.4760377,81.7523729 C62.8137736,87.3120339 56.6313208,94.2255085 49.2790566,99.6828814 C46.53,107.017542 40.8213208,109.821441 39.0256604,118.317373 C38.8033962,119.376356 39.2186792,120.736186 39.0256604,122.186271 C38.8092453,123.804831 37.8032075,125.549746 37.6628302,127.102119 C37.3879245,130.134661 37.3996226,134.250254 37.6628302,137.655847 C38.0079245,142.180593 38.054717,147.662034 39.0256604,152.066441 C39.5696226,154.521356 41.1137736,157.180847 42.1022642,159.804237 C43.3071698,162.987203 43.839434,166.398814 44.8337736,167.891017 C45.91,169.497542 49.109434,171.555339 51.3320755,173.516864 C53.5079245,175.436271 56.0815094,177.175169 57.8245283,179.142712 C59.9360377,181.519407 63.89,186.519492 62.9541509,190.74339 C61.3222642,198.090085 51.0630189,190.791525 47.9162264,188.282458 C44.4243396,185.49661 41.3067925,182.235424 38.0079245,180.201695 C36.405283,179.208898 33.7615094,178.186017 31.5154717,176.68178 C28.9945283,175.003051 27.0935849,172.800847 25.3564151,172.457881 C18.7820755,171.170254 13.1845283,174.347203 6.90264151,175.520508 C4.61566038,175.947712 2.36962264,175.394153 1.99528302,178.276271 C1.83150943,179.497712 2.55679245,181.687881 3.24113208,182.680678 C4.55132075,184.557966 5.08358491,183.974322 7.66301887,183.22822 C11.909434,182.00678 16.1207547,180.322034 20.5718868,180.201695 C22.0458491,180.159576 25.6430189,180.634915 27.409434,181.254661 C31.8781132,182.813051 35.6156604,187.608559 39.3649057,189.684407 C41.1371698,190.671186 43.1375472,190.671186 44.155283,191.447373 C45.5239623,192.494322 45.810566,194.72661 47.2260377,196.026271 C49.524717,198.108136 58.4386792,201.591949 62.2639623,200.942119 C65.3932075,200.40661 65.8260377,197.27178 69.1015094,196.369237 C70.2011321,200.159915 66.8613208,203.439153 66.0307547,207.265932 C65.0832075,211.658305 65.7675472,216.405678 63.6326415,220.274576 C60.6086792,219.877458 59.6728302,217.326271 59.1932075,214.299746 C52.6364151,207.103475 45.6760377,200.322373 36.9843396,195.316271 C33.7498113,193.457034 27.719434,193.252458 24.0579245,192.644746 C19.1856604,191.832458 14.2549057,191.441356 9.33,191.856525 C5.97849057,192.139322 2.53924528,192.10322 1.70283019,195.996186 C0.100188679,203.378983 6.10716981,200.779661 10.2483019,199.901186 C16.1792453,198.649661 22.0692453,198.469153 28.0879245,199.185169 C30.7024528,199.486017 31.8371698,200.857881 33.9018868,201.640085 C35.4050943,202.223729 37.2183019,202.18161 38.3471698,202.699068 C41.7337736,204.263475 47.2201887,209.077034 50.6477358,213.240763 C54.6133962,218.072373 57.0992453,222.795678 59.1932075,229.071356 C59.760566,230.774153 60.9888679,232.260339 61.2403774,233.28322 C61.5679245,234.588898 61.2286792,235.924661 61.5854717,237.152119 C63.164717,242.633559 68.7037736,247.567458 73.2075472,249.81178 C73.8216981,252.278729 73.9035849,257.044153 72.5232075,258.608559 C71.2481132,259.288475 68.4054717,260.221102 66.7150943,259.300508 C62.6967925,253.770932 62.5739623,245.720254 60.2167925,239.270085 C59.6084906,237.609407 57.795283,235.629831 56.4558491,233.28322 C55.21,231.087034 54.1396226,228.854746 52.7066038,226.965424 C47.0037736,219.444237 39.6866038,217.169831 31.5154717,212.542797 C25.4850943,209.125169 18.7703774,206.820678 11.8333962,206.802627 C9.3709434,206.79661 4.04245283,206.561949 2.44566038,209.034915 C-2.51433962,216.718559 14.079434,213.024153 16.1266038,213.240763 C22.3967925,213.926695 27.7135849,217.591017 31.8488679,220.274576 C35.0950943,220.978559 37.7271698,221.977373 40.0550943,223.445508 C43.8979245,225.858305 46.3603774,229.041271 48.2496226,232.585254 C49.6241509,235.154492 52.2620755,237.633475 53.3792453,239.968051 C55.5316981,244.444661 55.4498113,249.980254 56.7950943,254.733644 C57.3741509,256.743305 60.1583019,262.381186 60.9011321,263.175424 C63.6443396,266.117712 68.1188679,266.340339 71.8388679,267.742288 C74.5762264,273.89161 66.6507547,277.297203 61.2403774,275.125085 C55.2567925,263.476271 51.3028302,249.721525 45.8632075,237.507119 C41.7688679,235.972797 39.4409434,232.260339 36.2941509,230.124322 C28.6845283,224.937712 18.6241509,224.654915 8.61056604,221.333559 C7.10150943,220.828136 3.22943396,221.327542 2.67962264,223.289068 C1.32264151,228.174831 8.32396226,228.006356 10.6577358,228.716356 C11.8450943,229.077373 12.7166038,230.190508 13.7401887,230.473305 C18.2498113,231.736864 22.6424528,231.393898 27.0701887,232.585254 C28.450566,232.958305 31.6207547,234.769407 32.8783019,235.750169 C38.3237736,239.992119 45.1554717,248.927288 46.8926415,256.14161 C47.2084906,257.465339 46.8458491,259.04178 47.2260377,260.359492 C47.8518868,262.495508 49.4369811,264.445 50.3084906,266.689322 C52.5077358,272.429492 53.6249057,277.922966 57.1401887,281.809915 C62.1528302,283.639068 68.8616981,280.660678 73.5467925,281.809915 C74.529434,288.669237 61.7433962,291.106102 55.4381132,288.488729 C52.7650943,287.387627 47.5301887,278.578814 46.5416981,275.125085 C45.9216981,272.922881 46.6645283,270.257373 46.2024528,268.091271 C45.8573585,266.43661 43.8628302,265.034661 43.1316981,263.524407 C42.5877358,262.417288 42.5818868,260.907034 42.1022642,259.655508 C40.7628302,256.123559 36.9843396,248.361695 34.9254717,245.942881 C33.7615094,244.571017 31.8137736,244.282203 30.1467925,243.132966 C28.2516981,241.827288 26.8186792,239.757458 25.3564151,238.909068 C21.940566,236.929492 18.109434,235.888559 14.3075472,235.016102 C10.6284906,234.179746 5.82641509,232.296441 2.10056604,232.886102 C2.04792453,234.955932 -0.443773585,236.514322 -0.0343396226,238.45178 C0.755283019,242.170254 10.774717,242.104068 13.3950943,242.783983 C14.7579245,243.132966 15.8633962,244.252119 17.1560377,244.534915 C18.7060377,244.883898 20.4022642,244.42661 21.940566,244.883898 C25.5845283,246.003051 27.7837736,248.722712 30.1467925,251.568729 C34.44,256.761356 37.2475472,262.459407 38.3471698,270.20322 C38.7916981,273.332034 40.5873585,277.182881 41.7630189,280.401949 C45.5181132,290.696949 50.1681132,295.348051 64.6620755,294.463559 C68.750566,294.216864 69.674717,291.418983 74.2311321,292.357627 C73.3069811,296.67178 66.3349057,296.61161 61.930566,297.977458 C60.3337736,298.476864 58.8656604,299.716356 57.485283,300.095424 C38.2418868,305.227881 39.2186792,284.866525 33.9018868,272.664153 C30.515283,264.908305 23.9760377,262.856525 22.2798113,256.14161 C21.835283,254.36661 15.0562264,250.882797 13.459434,249.956186 C10.5173585,248.259407 6.56339623,246.309915 3.13,246.628814 C2.56849057,248.602373 2.79660377,250.648136 2.89603774,252.669831 C8.61056604,253.710763 16.4833962,257.278814 18.1737736,263.524407 C19.659434,266.177881 22.5020755,266.827712 24.3328302,269.499237 C31.2639623,279.661864 31.3049057,300.667034 43.1316981,305.366271 C46.734717,306.792288 49.9107547,305.288051 52.7066038,305.011271 C55.6545283,304.716441 58.725283,305.432458 61.5854717,305.011271 C66.0658491,304.355424 70.0490566,302.231441 74.9213208,302.201356 C74.9564151,304.475763 72.6986792,303.982373 71.4937736,305.011271 C70.5169811,305.859661 70.2420755,307.406017 69.1015094,308.176186 C66.9373585,309.644322 62.2230189,310.486695 59.8833962,310.637119 C53.3616981,311.052288 47.9103774,311.100424 42.7866038,309.939153 C39.2069811,309.120847 33.6620755,306.280847 31.8488679,302.905339 C29.7607547,299.01839 29.6203774,292.664492 27.7486792,287.429746 C26.8888679,285.028983 26.274717,282.158898 25.0171698,279.697966 C23.9584906,277.634153 21.4901887,275.672627 19.8933962,273.368136 C16.1441509,267.970932 9.47037736,256.394322 1.84320755,258.403983 C1.29924528,258.554407 2.12981132,262.94678 2.36962264,263.416102 C3.22943396,265.070763 4.72679245,265.377627 6.03113208,266.502797 C9.83886792,269.812119 12.2428302,275.221356 15.1030189,279.342966 C16.1558491,280.865254 17.8754717,282.231102 18.524717,283.915847 C18.9750943,285.101186 18.7645283,286.485085 19.1973585,287.784746 C19.6769811,289.162627 20.9754717,290.197542 21.6013208,291.653644 C23.3150943,295.685 22.9992453,300.859576 24.3328302,304.662288 C25.1633962,307.045 27.6609434,310.907881 29.1173585,312.039068 C31.1060377,313.591441 34.1358491,313.284576 37.6628302,314.157034 C39.7626415,314.674492 41.4998113,316.028305 43.1316981,316.256949 C45.0969811,316.545763 47.6588679,315.282203 48.9398113,317.315932 C47.6998113,320.095763 41.7922642,320.234153 38.6864151,320.131864 C35.5922642,320.029576 32.4513208,318.904407 30.4860377,318.019915 C17.9222642,312.382034 21.5603774,290.823305 10.3184906,283.915847 C9.00245283,283.103559 4.34075472,272.567881 1.77886792,278.265932 C-1.68962264,285.973644 10.2015094,291.190339 9.29490566,298.681441 C12.2720755,298.904068 13.3307547,301.100254 15.1030189,302.550339 C15.1498113,306.521525 16.9981132,308.266441 17.8345283,310.992119 C18.6767925,313.705763 18.5481132,316.798475 19.1973585,318.717881 C20.4607547,322.436356 25.3037736,322.677034 27.409434,324.704746 L68.7622642,324.704746 C69.4816981,322.785339 71.4937736,323.723983 73.2075472,323.290763 C75.9039623,322.622881 78.8986792,320.107797 81.0686792,321.539831 C81.9109434,322.508559 81.4020755,322.634915 81.9050943,324.740847 C85.0928302,333.248814 101.218679,339.56661 107.991887,342.009492 C112.396226,343.591949 116.742075,346.251441 121.456415,346.185254 C126.088868,346.113051 130.259245,342.593136 134.961887,342.250169 C136.389057,334.38 119.631509,336.919153 114.987358,336.491949 C111.32,336.155 107.652642,335.162203 104.102264,334.085169 C98.9901887,332.538814 95.9896226,328.224661 92.6264151,324.596441 C89.6960377,320.192034 89.2573585,314.668475 87.2218868,308.525169 C86.1749057,305.366271 83.940566,302.634576 83.4609434,299.740424 C82.5835849,294.433475 84.0633962,288.747458 82.7766038,283.217881 C82.4256604,281.70161 80.9750943,280.215424 80.7235849,278.645 C80.4837736,277.110678 81.0686792,275.046864 81.0686792,273.019153 C81.0686792,266.388475 79.2496226,260.359492 79.7,254.384661 C79.8696226,252.194492 81.1564151,249.950169 81.0686792,247.699831 C80.9341509,244.534915 78.6003774,242.465085 77.6469811,239.968051 C77.2316981,238.860932 77.424717,237.398814 76.9626415,236.099153 C75.5237736,232.00161 72.3886792,228.168814 71.8388679,224.143475 C70.9498113,217.609068 73.4532075,216.207119 74.5762264,212.542797 C75.1435849,210.713644 75.1084906,207.951864 75.6056604,205.515 C76.0326415,203.348898 77.319434,201.074492 77.6469811,199.185169 C77.8633962,197.98178 77.3662264,196.772373 77.6469811,195.665254 C79.5186792,188.420847 85.28,184.630169 84.4845283,175.622797 C89.8364151,172.012627 89.9183019,161.440847 97.475283,161.916186 C102.370943,162.223051 103.07283,167.96322 107.038491,170.002966 C109.015472,174.70822 105.968113,179.275085 106.020755,184.064576 C106.032453,185.484576 106.874717,186.946695 107.038491,188.282458 C108.331132,199.052797 107.798868,210.581271 107.72283,223.084492 C106.441887,223.884746 104.19,223.674153 103.277547,224.841441 C102.622453,226.393814 103.470566,229.498559 102.259811,230.473305 C96.8669811,228.439576 96.7090566,220.003814 95.4222642,213.950763 C94.9192453,211.592119 93.234717,209.209407 93.0358491,206.916949 C92.9071698,205.575169 93.5564151,203.992712 93.3692453,202.699068 C93.0826415,200.689407 91.3162264,198.788051 90.9828302,196.71822 C90.0879245,191.254831 91.7666038,186.248729 90.6377358,181.254661 C82.9169811,181.856356 83.2737736,193.390847 85.5081132,200.238136 C84.4084906,202.518559 81.8583019,201.495678 81.7530189,204.113051 C81.6535849,206.489746 84.4084906,207.410339 87.555283,207.620932 C92.1584906,212.33822 90.7137736,220.804068 93.3692453,228.367373 C94.7320755,232.236271 98.5983019,241.436186 100.885283,243.481949 C106.506226,248.494068 114.706604,243.903136 115.250566,238.205085 C115.695094,233.475763 112.162264,228.391441 113.191698,223.794492 C117.403019,221.520085 118.397358,227.591186 121.397925,228.367373 C127.989811,230.064153 131.586981,224.685 133.02,219.22161 C130.773962,211.537966 133.768679,203.697881 133.70434,196.026271 C133.651698,190.605 134.915094,184.732458 135.751509,179.142712 C136.541132,173.847797 137.354151,168.107627 138.143774,162.969153 C138.424528,161.176102 139.202453,159.485339 139.173208,157.692288 C139.108868,154.003898 137.512075,149.689746 137.120189,145.387627 C136.845283,142.385169 137.968302,138.540339 137.465283,135.892881 C136.886226,132.944576 133.973396,132.643729 132.680755,129.924068 C132.750943,120.002119 134.295094,109.466441 133.359245,100.741864 C133.183774,99.1112712 132.253774,97.8597458 131.651321,96.5179661 C132.598868,91.7766102 131.891132,88.2025424 132.329811,83.160339 C132.949811,76.1205085 137.705094,70.4224576 137.465283,63.1178814 C137.389245,61.0540678 136.693208,59.2008475 136.775094,57.1370339 C136.938868,53.2260169 138.202264,48.9840678 138.483019,44.8383898 C138.956792,37.9790678 138.249057,30.9332203 139.173208,24.7959322 C139.448113,22.9727966 140.688113,21.3061017 140.881132,19.5190678 C141.45434,14.2482203 139.834151,8.4659322 146.35,7.91838983 C151.029245,13.9533898 152.743019,23.9655932 152.158113,32.5277119 C151.736981,38.6830508 152.257547,46.1561017 151.473774,51.8661864 C151.315849,52.985339 150.485283,54.5617797 150.456038,55.7350847 C150.38,58.1659322 151.830566,60.8073729 151.80717,63.4668644 C151.80717,65.2599153 151.099434,67.065 151.134528,68.7437288 C151.198868,72.9435593 153.064717,77.6849153 153.526792,82.450339 C153.731509,84.5923729 153.275283,86.8126271 153.526792,88.7801695 C153.713962,90.3024576 154.684906,91.8307627 154.889623,93.3590678 C155.46283,97.6491525 154.094151,101.22322 153.526792,105.657712 C153.327925,107.246186 153.702264,108.967034 153.526792,110.579576 C152.994528,115.435254 151.696038,120.39322 151.134528,125.345169 C149.795094,137.174492 150.771887,149.761949 151.80717,159.100254 C152.520755,165.393983 156.123774,169.070339 155.919057,174.220847 C150.438491,174.985 152.55,164.996864 148.39717,165.430085 C144.402264,165.851271 148.689623,175.033136 150.105094,177.030763 C151.590755,179.130678 154.708302,182.066949 156.942642,182.307627 C161.493208,182.788983 162.031321,179.305169 167.535283,178.793729 C168.517925,177.121017 170.167358,173.926017 168.909811,172.108898 C166.657925,172.06678 166.605283,174.569831 165.143019,175.622797 C163.745094,176.633644 161.791509,176.856271 159.68,177.385763 C159.229623,171.814068 157.568491,166.152119 158.650566,160.159237 C159.194528,157.126695 160.317547,155.496102 160.703585,151.374492 C160.978491,148.372034 162.22434,144.755847 162.411509,141.873729 C162.996415,132.854322 157.866792,121.674831 158.650566,111.638559 C158.919623,108.190847 160.106981,103.840593 161.036981,100.741864 C161.458113,99.3579661 162.417358,98.1004237 162.411509,96.8729661 C162.393962,95.0016949 160.539811,93.7140678 160.019245,91.5900847 C158.200189,84.2614407 159.773585,66.3790678 159.68,58.545 C159.656604,56.6677119 158.703208,54.6881356 158.650566,52.9191525 C158.597925,51.2584746 159.422642,49.4714407 159.68,47.2933051 C160.317547,41.7336441 159.92566,37.2209322 164.458679,36.3966102 C167.991509,43.3221186 168.722642,50.0972034 169.243208,59.2489831 C169.418679,62.1311017 170.442264,64.9530508 170.617736,67.6847458 C170.752264,69.8267797 170.103019,71.6077966 169.933396,73.6655932 C169.500566,78.7258475 170.857547,83.4130508 171.296226,88.4311864 C171.465849,90.3566102 170.71717,92.4805932 170.956981,94.4060169 C171.196792,96.3013559 172.781887,97.2038983 173.349245,98.9849153 C173.735283,100.188305 173.390189,101.794831 173.688491,103.202797 C174.191509,105.513305 175.495849,107.81178 175.73566,109.875593 C176.349811,114.983983 174.636038,119.647119 174.366981,126.049153 C174.097925,132.733983 175.121509,140.574068 175.73566,147.499576 C176.016415,150.556186 176.080755,153.859492 176.425849,156.639322 C176.987358,161.242288 180.005472,166.615424 179.835849,171.055932 C179.76566,173.185932 178.549057,174.401356 177.788679,176.32678 C176.285472,180.189661 174.741321,185.057373 173.01,189.684407 C169.295849,199.600339 166.026226,208.884492 168.909811,222.037542 C168.991698,223.764407 166.406415,222.753559 165.833208,223.794492 C161.177358,228.981102 159.364151,237.067881 153.866038,241.37 C153.129057,245.389322 149.94717,247.290678 148.052075,249.81178 C145.11,253.746864 141.688302,259.842034 140.190943,264.932373 C139.641132,266.833729 139.793208,269.613559 139.173208,271.966186 C138.529811,274.391017 136.886226,276.43678 136.775094,278.645 C136.67566,280.594492 137.833774,282.387542 137.465283,284.270847 C136.780943,287.682458 130.861698,291.34678 128.908113,293.06161 C128.639057,296.431102 126.328679,299.325254 125.498113,301.852373 C123.953962,306.539576 125.872453,312.207542 122.421509,315.558983 C123.854528,317.448305 124.287358,320.655339 126.860943,320.480847 C130.879245,320.216102 128.37,311.822458 130.966981,308.880169 C129.697736,303.621356 132.920566,299.367373 135.751509,294.818559 C137.260566,292.393729 139.828302,290.528475 140.881132,288.133729 C141.992453,285.612627 141.711698,282.519915 142.249811,279.697966 C145.238679,263.909492 151.491321,251.219746 161.036981,243.132966 C161.241698,240.792373 163.224528,239.282119 164.119434,236.809153 C165.412075,233.241102 164.581509,228.09661 168.225472,226.604407 C170.471509,229.37822 168.868868,233.854831 168.909811,237.507119 C168.968302,244.655254 168.927358,251.514576 165.833208,256.14161 C156.211509,258.90339 156.047736,271.394576 150.105094,277.947034 C152.30434,282.68839 148.338679,286.461017 148.39717,290.251695 C148.420566,291.731864 149.596226,293.085678 149.76,294.463559 C150.169434,297.706695 147.987736,305.715254 151.80717,305.715254 C155.287358,305.715254 153.708113,294.75839 153.866038,292.70661 C154.415849,285.510339 156.451321,279.150424 157.966226,273.368136 C158.826038,270.082881 159.598113,266.177881 162.066415,264.932373 C163.359057,265.714576 162.089811,269.120169 163.780189,269.499237 C166.306981,268.590678 166.166604,264.920339 167.535283,262.814407 C176.35566,261.292119 173.191321,253.71678 173.688491,245.238898 C173.834717,242.675678 175.144906,239.95 175.402264,236.809153 C176.080755,228.114661 175.811698,217.675254 175.73566,209.022881 C175.718113,205.214153 175.817547,197.482373 176.765094,194.612288 C177.455283,192.554492 179.835849,191.062288 180.871132,188.992458 C181.590566,187.530339 181.836226,185.436441 182.579057,183.715593 C183.111321,182.470085 184.216792,181.350932 184.620377,180.201695 C185.959811,176.447119 185.778491,171.964492 187.018491,168.246017 C187.884151,165.628644 189.62717,162.842797 190.773585,160.159237 C192.007736,157.301186 193.329623,154.17839 194.879623,152.066441 C195.944151,150.622373 197.81,148.209576 200.009245,148.197542 C202.138302,150.243305 200.763774,152.860678 200.693585,155.231356 C200.559057,159.461271 201.71717,163.715254 201.026981,167.891017 C200.22566,172.824915 196.862453,177.60839 196.587547,182.65661 C196.517358,183.962288 197.31283,185.219831 197.283585,186.525508 C197.225094,187.969576 196.096226,189.389576 195.897358,190.74339 C195.388491,194.43178 195.540566,199.287458 195.569811,202.699068 C195.599057,208.469322 193.271132,213.090339 192.832453,217.813644 C192.598491,220.298644 193.680566,222.753559 193.510943,225.202458 C193.40566,226.851102 192.077925,228.565932 191.803019,230.473305 C191.066038,235.659915 192.97283,240.870593 193.171698,245.942881 C193.487547,253.939407 193.259434,261.382373 194.879623,268.446271 C196.289245,274.577542 200.582453,287.808814 193.510943,289.541695 C193.34717,291.91839 191.270755,293.302288 190.773585,295.522542 C190.633208,296.220508 191.340943,297.32161 191.124528,297.977458 C190.586415,299.535847 189.118302,300.149576 188.732264,301.852373 C188.176604,304.307288 189.656415,307.285678 189.071509,309.939153 C188.732264,311.467458 186.784528,312.682881 186.000755,314.506017 C184.444906,318.086102 184.339623,322.460424 182.304151,324.584407 C181.385849,325.336525 181.309811,327.430424 179.993774,328.092288 C178.46717,328.862458 177.35,328.332966 175.952075,329.777034 C171.77,334.079153 178.356038,334.24161 181.432642,334.686864 C185.216981,335.240424 191.756226,335.739831 194.230377,332.520763 C195.370943,331.040593 195.236415,329.19339 196.125472,327.863644 C197.096415,326.413559 198.225283,326.377458 198.640566,324.704746 C198.663962,322.38822 199.348302,320.733559 200.693585,319.776864 C202.079811,316.870678 201.360377,311.79839 205.472264,311.696102 C207.577925,311.641949 204.729434,319.728729 204.548113,320.354492 C203.746792,323.140339 202.922075,327.394322 203.898868,330.210254 C204.50717,331.949153 209.233208,327.965932 209.671887,327.484576 C211.771698,325.210169 212.233774,323.519407 212.608113,320.480847 C213.157925,316.022288 213.146226,308.976441 218.117925,307.12322 C218.492264,306.978814 215.731509,320.017542 215.520943,321.088559 C214.655283,325.36661 214.146415,330.017712 219.63283,331.004492 C222.05434,331.443729 222.67434,329.085085 224.259434,328.465339 C226.136981,327.731271 229.014717,327.183729 231.032642,326.702373 C231.582453,325.089831 232.389623,324.175254 232.84,322.520593 C233.331321,320.661356 233.302075,318.579492 233.623774,316.678136 C234.167736,313.447034 234.969057,309.632288 237.940377,307.827203 C238.033962,307.773051 237.49,313.230424 237.361321,313.747881 C236.753019,316.130593 235.858113,318.429068 235.460377,320.865932 C235.156226,322.773305 234.659057,325.222203 236.039434,326.768559 C237.098113,327.941864 239.525472,328.453305 240.71283,327.243898 C241.578491,324.987542 242.847736,323.537458 243.450189,321.094576 C244.017547,318.753983 244.391887,316.365254 244.824717,314.000593 C245.620189,309.632288 246.339623,304.866864 248.878113,301.14839 C248.690943,298.013559 249.416226,295.835424 250.936981,294.463559 C253.79717,295.76322 252.440189,299.31322 251.966415,301.485339 C250.469057,308.236356 248.234717,314.710593 245.79566,321.154746 C245.321887,322.406271 243.543774,326.816695 244.871509,328.122373 C245.92434,329.163305 247.257925,327.665085 248.433585,326.955085 C249.691132,326.184915 251.399057,326.576017 252.504528,325.523051 C253.598302,324.470085 253.79717,322.027203 254.124717,320.619237 C254.861698,317.490424 255.329623,313.230424 258.798113,312.039068 C259.56434,311.780339 257.511321,319.891186 257.341698,320.426695 C256.446792,323.350932 255.358868,327.117542 259.862642,326.215 C262.699434,325.637373 263.804906,322.346102 264.600377,319.776864 C265.659057,316.395339 265.138491,311.756271 268.027925,309.939153 C268.174151,309.848898 267.565849,316.473559 267.43717,317.093305 C266.963396,319.409831 266.07434,322.550678 266.858113,324.897288 C267.384528,326.443644 269.437547,327.665085 270.987547,326.937034 C273.052264,325.980339 272.654528,322.490508 272.89434,320.583136 C273.730755,313.705763 275.222264,306.942712 276.222453,300.095424 C276.620189,297.405847 278.275472,294.908814 278.620566,292.357627 C278.836981,290.769153 278.462642,289.120508 278.620566,287.429746 C278.825283,285.245593 279.89566,283.278051 280.328491,281.099915 C281.001132,277.700339 281.229245,273.831441 281.69717,270.20322 C282.165094,266.556949 283.405094,263.006949 283.74434,259.655508 C284.007547,257.026102 283.475283,254.210169 283.74434,251.568729 C284.393585,245.088475 286.96717,239.24 286.820943,232.940254 C286.692264,227.867966 283.451887,224.456356 283.74434,219.570593 C289.581698,218.776356 287.873774,224.281864 288.868113,230.124322 C289.096226,231.436017 289.798113,232.789831 289.897547,233.63822 C290.488302,239.264068 288.558113,244.258136 288.534717,249.113814 C288.51717,250.714322 288.979245,252.399068 288.868113,254.029661 C288.733585,256.075424 287.745094,257.934661 287.505283,260.010508 C286.563585,268.319915 287.347358,277.020424 283.405094,281.460932 C286.40566,286.130085 282.475094,292.393729 281.69717,299.036441 C280.977736,305.107542 279.480377,307.953559 278.620566,312.737034 C278.246226,314.830932 278.006415,316.960932 277.585283,319.048814 C277.263585,320.601186 275.736981,323.350932 276.17566,324.897288 C277.462453,329.416017 282.539434,325.474915 283.159434,322.929746 C284.48717,317.442288 285.224151,311.900678 286.820943,306.419237 C288.587358,300.354153 288.909057,294.090508 290.242642,287.784746 C290.68717,285.654746 292.207925,283.687203 292.629057,281.460932 C293.91,274.66178 293.693585,267.272966 293.997736,260.010508 C294.108868,257.351017 295.407358,254.751695 295.70566,251.923729 C295.939623,249.727542 295.202642,247.308729 295.366415,244.883898 C295.658868,240.587797 296.974906,236.550424 296.729245,232.585254 C296.448491,227.976271 294.84,223.848644 294.336981,219.570593 C295.290377,218.186695 297.25566,219.486356 298.337736,218.656017 C299.36717,217.867797 299.291132,214.678814 299.794151,213.475424 C300.501887,211.742542 301.004906,210.009661 300.349811,208.072203 C297.934151,207.705169 296.787736,209.413983 294.693774,210.250339 C292.757736,211.026525 290.634528,211.134831 288.57566,211.032542 C286.28283,210.924237 284.019245,210.478983 281.767358,210.069831 C280.310943,209.805085 276.298491,209.901356 275.204717,209.022881 C273.116604,207.374237 271.853208,204.931356 270.41434,202.699068 C268.981321,200.46678 266.852264,198.427034 265.629811,196.026271 C264.998113,194.762712 264.846038,193.071949 264.261132,191.796356 C260.482642,183.589237 253.67434,176.735932 249.562453,168.246017 C248.901509,166.868136 248.813774,165.333814 248.199623,164.022119 C246.310377,159.99678 243.608113,155.869153 241.362075,152.066441 C240.133774,149.978559 238.092453,147.192712 236.232453,145.387627 C234.056604,143.263644 230.79283,142.210678 228.722264,139.76178 C227.50566,138.34178 226.686792,135.874831 225.294717,134.135932 C222.136226,130.182797 217.328302,125.862627 214.368679,120.778305 C212.713396,117.950339 211.502642,114.189746 209.917547,110.934576 C208.250566,107.492881 206.18,103.972966 205.472264,101.090847 C204.782075,98.2327966 203.670755,91.9631356 204.109434,89.1351695 C204.431132,87.0472881 206.238491,86.1086441 207.525283,83.864322 C208.174528,82.7391525 208.314906,81.2589831 208.888113,80.3444068 C210.39717,77.9737288 213.345094,76.6078814 214.368679,74.0205932 C215.620377,70.8135593 214.321887,67.9374576 216.755094,64.5258475 C220.99566,64.3513559 224.733208,65.7232203 228.722264,66.9867797 C232.436415,68.1600847 235.963396,71.0061017 239.654151,71.5536441 C244.637547,72.2937288 252.995849,71.6679661 258.113774,70.1516949 C260.213585,69.5199153 260.699057,68.1661017 262.904151,66.9867797 C265.916415,65.3561864 268.144906,65.7773729 268.700566,63.8218644 C270.145283,58.779661 261.336604,55.8433898 258.44717,54.3271186 C256.271321,53.1778814 254.253396,52.5822034 252.644906,51.5172034 C250.931132,50.3739831 249.743774,48.4966949 247.515283,47.6483051 C244.690189,46.5652542 240.677736,46.2463559 237.267736,45.5363559 C231.401132,44.3209322 227.248302,42.8227119 221.884717,43.0754237 C221.440189,39.3208475 223.013585,37.3472881 225.294717,35.6926271 C227.201509,34.3087288 230.623208,32.0102542 232.477358,31.8237288 C234.536226,31.6251695 236.893396,33.1835593 239.309057,33.9416949 C241.847547,34.7118644 244.690189,34.9405085 246.830943,35.6926271 C253.627547,38.069322 258.511509,44.9166102 264.600377,46.9383051 C270.145283,48.7794915 279.410189,47.9190678 278.620566,40.6144915 C275.947547,38.3581356 273.742453,41.3305085 271.098679,41.3184746 C269.197736,41.3124576 263.494906,38.6529661 261.868868,37.8045763 C259.991321,36.8238136 258.850755,34.7900847 257.08434,33.9416949 C253.060189,31.9621186 249.065283,32.154661 247.170189,28.6588136 C254.838302,23.4722034 263.758113,22.1424576 271.77717,18.4661017 C276.257547,16.420339 280.012642,12.870339 283.586415,9.50686441 C284.73283,8.41779661 287.891321,6.31788136 287.77434,4.69932203 C287.651509,3.14694915 285.721321,2.0759322 284.411132,2.19025424 C281.896038,2.40686441 280.375283,3.92313559 278.813585,5.6379661 C276.877547,7.76194915 275.058491,9.10372881 272.467358,10.3733051 C264.688113,14.1880508 256.797736,18.899322 247.515283,21.6310169 C239.812075,23.8873729 231.816415,25.1509322 225.990755,29.0138136 C223.674528,30.5361017 222.405283,33.5987288 220.170943,36.0476271 C217.082642,39.4231356 214.163962,41.6373729 212.303962,45.8913559 C210.239245,60.4884746 209.800566,73.2805085 201.383774,81.0544068 C198.816038,83.4010169 195.505472,84.9052542 192.832453,87.0292373 C188.626981,90.3566102 185.766792,94.5504237 181.555472,97.9259322 C178.695283,95.4589831 181.13434,90.6213559 182.228113,88.0822034 C188.504151,83.4972881 194.119245,78.8582203 198.98566,73.6655932 C200.278302,72.2816949 202.27283,71.3851695 203.085849,70.1516949 C206.378868,65.0974576 204.758679,57.7808475 206.507547,50.8132203 C206.92283,49.1344915 207.899623,47.4016102 208.548868,45.5363559 C209.233208,43.6169492 209.46717,41.1439831 210.262642,39.5615254 C211.01717,38.0332203 213.011698,36.7877119 214.368679,34.9826271 C215.696415,33.2136441 216.556226,30.855 217.778679,29.7117797 C221.691698,26.0354237 229.856981,23.3037288 235.208868,20.9270339 C236.600943,20.3133051 238.004717,19.1520339 238.97566,18.8150847 C239.981698,18.4661017 241.385472,18.8391525 242.391509,18.4661017 C243.81283,17.9305932 245.152264,16.3842373 246.830943,15.6501695 C251.276226,13.7066949 255.750755,11.8113559 260.043962,9.5309322 C261.79283,8.60432203 264.068113,7.65966102 265.524528,6.26974576 C265.846226,5.96889831 268.197547,2.38279661 267.676981,2.35872881 C265.062453,2.23237288 264.518491,2.76186441 262.436226,3.85694915 C260.839434,4.69932203 258.932642,4.47067797 257.335849,5.25889831 C256.242075,5.79440678 255.452453,6.79322034 254.376226,7.4129661 C252.06,8.76076271 249.27,8.95330508 246.830943,10.024322 C244.438679,11.0833051 242.122453,12.9485593 239.654151,14.2482203 C234.933962,16.7272034 231.009245,18.2976271 225.990755,20.2230508 C223.721321,21.0834746 221.603962,22.6960169 219.492453,24.0859322 C213.62,27.9488136 211.005472,28.8934746 207.525283,35.3376271 C204.530566,40.8972881 201.325283,45.9936441 200.342642,53.2741525 C200.050189,55.5425424 200.693585,57.9252542 200.342642,59.9529661 C199.874717,62.7388136 197.962075,66.4572881 196.587547,68.3947458 C192.23,74.5500847 183.368679,79.369661 177.788679,83.864322 C174.179811,77.9255932 180.859434,77.0892373 183.941887,74.7125424 C185.807736,73.2805085 188.977925,69.670339 189.75,67.6847458 C190.644906,65.404322 190.024906,62.8711864 190.440189,60.6509322 C190.639057,59.5738983 191.493019,58.6773729 191.803019,57.4920339 C192.341132,55.4282203 191.896604,52.9071186 192.487358,51.1622034 C192.97283,49.7602542 194.516981,48.4305085 195.218868,46.9383051 C196.084528,45.1091525 196.148868,42.8648305 196.932642,41.3184746 C198.143396,38.9237288 200.757925,37.7504237 202.401509,35.6926271 C204.934151,32.515678 205.770566,28.490339 208.548868,26.1978814 C213.169623,22.7682203 217.843019,20.2952542 222.563208,17.0581356 C224.376415,15.8186441 225.786038,13.9172881 227.686981,12.8342373 C233.196792,9.72949153 241.180755,9.71745763 245.813208,5.45745763 L233.167547,5.45745763" id="Fill-131" fill="#231F20" mask="url(#mask-2)"></path>
            <path d="M294.827367,297.486725 C294.453028,299.580624 293.037556,301.439861 292.780198,303.455539 C292.616424,304.737149 293.213028,306.03681 293.125292,307.330454 C292.903028,310.429183 291.598688,313.233081 290.387934,316.036979 C289.715292,317.571302 287.153405,321.753081 289.282462,322.787996 C289.960952,323.118929 290.873405,323.251302 291.592839,323.016641 C292.312273,322.787996 293.470386,322.180285 294.113783,321.837318 C296.003028,320.850539 296.816047,318.389607 297.78699,316.596556 C298.980198,314.394352 298.646801,312.517064 299.085481,310.110285 C299.296047,308.942996 300.126613,307.685454 300.009632,306.500115 C299.857556,304.977827 298.90416,303.672149 298.833971,301.969352 C298.617556,297.318251 297.85133,291.078674 299.14982,286.686302 C299.752273,284.670624 300.419066,280.711471 299.611896,278.521302 C298.950952,276.722234 298.360198,278.737912 298.260764,279.568251 C298.079443,281.114607 298.079443,282.588759 297.693405,284.123081 C297.003217,286.86681 295.733971,289.43003 295.172462,292.209861 C294.844915,293.840454 295.143217,295.687657 294.827367,297.486725" id="Fill-129" fill="#231F20" mask="url(#mask-2)"></path>
            <path d="M34.704733,35.7959681 C37.5824689,33.9427478 40.7760538,31.9451207 44.2737896,30.5251207 C48.3096387,28.8764766 50.0702047,26.9751207 53.1526576,24.8932562 C57.328884,22.083341 62.2771859,20.4587647 66.4826576,17.8654596 C68.5415255,16.5898664 70.1617142,14.5260529 72.2907708,13.2925783 C78.5434123,9.67639184 85.030016,6.51147659 91.2007708,2.73884947 C92.9320915,1.67384947 96.5585066,0.434357943 95.1898274,-2.1047946 C94.534733,-3.32623528 91.6745443,-3.73538782 90.4754877,-3.74140477 C85.7962425,-3.76547257 83.170016,0.897663027 79.5903934,3.00359523 C76.8998274,4.58605286 71.7175632,7.64266303 68.8749217,8.36469693 C67.360016,8.76181557 66.3832236,7.5163071 65.4590726,8.36469693 C64.2366198,8.39478167 65.1958651,10.6691885 64.4354877,11.1866461 C58.6098274,15.4406291 50.1462425,19.5562223 43.9286953,23.8402901 C42.5951104,24.7608834 41.6007708,26.4696969 40.1677519,27.3602054 C38.5475632,28.359019 36.3775632,28.6357986 34.704733,29.4661376 C27.5981293,32.974019 21.2109594,37.7574935 14.8881293,42.5409681 C9.50699717,46.6024088 3.21926133,49.8274935 4.33643114,57.938341 C4.65812925,60.2789342 13.3673745,52.848002 13.9171859,52.4448664 C17.8945443,49.5446969 21.9011481,46.6264766 25.1298274,42.8297817 C29.1598274,41.0607986 31.4351104,37.8958834 34.704733,35.7959681 M8.30794057,-0.0951335827 C8.1968085,0.193679977 8.09152548,0.476476587 8.06228019,0.861561333 C5.64661982,1.66181557 3.68718585,8.00367998 3.9913368,10.5608834 C7.55341227,11.2648664 11.8232236,7.5163071 14.4436009,5.53673082 C15.06945,5.06139184 23.7669972,-2.15894714 20.9711481,-2.24318443 C18.0232236,-2.33945562 18.2279406,-4.41530307 15.1981293,-3.30216748 C12.9052991,-2.46581155 10.9575632,-1.45496409 8.53605378,-0.805133583 C8.47756321,-0.534370871 8.38982736,-0.311743752 8.30794057,-0.0951335827 M26.1534123,12.2396122 C29.3820915,10.4104596 31.9381293,9.58012065 34.3596387,7.67274777 C36.7402047,5.78342574 47.6428462,0.843510485 46.8064311,-2.24920138 C40.278884,-2.61021833 36.9566198,-3.02538782 32.1077519,1.59562913 C27.6683179,5.83757828 21.9420915,8.09995116 16.7130349,11.0663071 C12.4139783,13.5031715 4.46511038,17.3359681 3.93284623,22.8113918 C3.44737453,27.8716461 6.26077076,26.6622393 8.6413368,25.0918156 C12.7707708,22.3661376 16.7013368,19.3997817 20.6845443,16.4574935 C22.5328462,15.097663 24.1881293,13.3587647 26.1534123,12.2396122 M11.454733,73.7689342 C12.5309594,72.4091037 14.0575632,71.4463918 14.8764311,70.2550359 C15.7069972,69.0335952 15.9234123,67.4631715 16.9236009,66.3801207 C18.0407708,65.1767308 20.1698274,64.8337647 21.7139783,63.5762223 C23.7026576,61.9335952 24.8432236,58.9130868 26.4985066,57.5953749 C29.2475632,55.4052054 32.2422802,53.9370698 34.3596387,50.9165613 C37.8690726,50.2607139 39.2377519,47.998341 41.5364311,46.34368 C44.1509594,44.4603749 46.7479406,42.4747817 49.3917142,40.3688495 C54.3692613,36.4157139 59.498884,33.9246969 65.1198274,30.8741037 C66.6113368,30.0618156 67.9273745,28.6839342 69.5651104,27.7091885 C71.5596387,26.5178325 74.0805821,25.7777478 76.0575632,24.5442732 C78.2802047,23.1543579 80.0115255,21.2349512 82.544167,20.3263918 C86.8081293,18.7980868 91.0896387,17.8835105 95.2015255,16.1085105 C103.273224,12.61868 110.543601,7.5163071 118.433978,3.65342574 C120.908129,2.44401896 128.073224,0.963849468 127.383035,-1.68962511 C126.926808,-3.43454036 122.797375,-5.45623528 121.177186,-4.9086929 C118.264356,-3.92793019 116.299073,-1.24437087 113.351148,-0.125218329 C109.724733,1.24664608 105.536808,2.29359523 102.039073,4.15283252 C98.1611481,6.21062913 94.7569972,9.52596811 90.7562425,11.1866461 C85.4920915,13.3587647 80.3098274,14.4117308 75.7124689,16.8064766 C70.9162425,19.3035105 67.2196387,22.5346122 61.7039783,25.2482562 C60.5809594,25.8018156 59.8615255,26.9811376 58.6273745,27.7091885 C57.5686953,28.3289342 56.1122802,28.2085952 55.2056764,28.7621546 C53.9773745,29.5202901 53.5971859,31.0365613 52.480016,31.9330868 C50.9885066,33.1063918 48.7717142,33.7802901 47.0052991,35.0919851 C43.1624689,37.9560529 39.7992613,40.6997817 34.704733,42.8297817 C25.404733,51.7348664 8.89284623,59.5869851 4.28378963,72.3549512 C3.0203934,75.8688495 1.56397831,79.2503749 1.89737453,83.0771546 C6.04435567,84.1180868 9.31982736,76.4524935 11.454733,73.7689342 M16.5843557,35.4469851 C19.3860538,30.0858834 25.510016,28.7501207 30.25945,25.5972393 C31.704167,24.6465613 32.6049217,23.0941885 34.0145443,22.438341 C35.1668085,21.8968156 36.5939783,22.2157139 37.7754877,21.7343579 C41.1737896,20.3504596 43.4666198,16.8245274 47.3503934,15.7595274 C48.0932236,15.5489342 49.6198274,15.7174088 50.4211481,15.4045274 C53.9013368,14.03868 56.2234123,9.56808676 59.3117142,6.96274777 C61.87945,4.80266303 69.0503934,2.67867998 70.1558651,-0.498269176 C71.4952991,-4.35513358 67.9039783,-4.27691324 65.3537896,-3.74140477 C58.990016,-2.39962511 53.8077519,4.86283252 48.4734123,8.31656133 C42.0920915,12.4502054 35.1609594,15.579019 28.5398274,19.2734257 C21.7958651,23.034019 15.2039783,27.7031715 8.95718585,32.2880868 C7.24341227,33.5456291 3.5058651,37.4927478 4.44171416,39.9897817 C6.24907265,44.8815613 12.6362425,38.5577478 14.1979406,36.4999512 C14.8530349,36.0005444 15.5666198,35.573341 16.5843557,35.4469851" id="Fill-130" fill="#231F20" mask="url(#mask-2)"></path>
        </g>
    </g>
</svg>