<?xml version="1.0" encoding="UTF-8"?>
<svg viewBox="0 0 129 62" version="1.1" xmlns="http://www.w3.org/2000/svg" xmlns:xlink="http://www.w3.org/1999/xlink">
    <title>Viarent</title>
    <g id="Page-1" stroke="none" stroke-width="1" fill="none" fill-rule="evenodd">
        <g id="logo">
            <g id="viarent.com" transform="translate(6.000000, 50.000000)" fill="#1A1919">
                <polyline id="Fill-3" points="11.329237 3.19694118 5.80590173 11.9936471 1.84577457 12 0.404265896 3.21458824 3.09704046 3.21105882 4.06713873 10.3927059 8.41404624 3.20188235 11.329237 3.19694118"></polyline>
                <path d="M16.679815,2.29270588 L13.9429769,2.29694118 L14.4059942,0.286588235 L17.1435318,0.282352941 L16.679815,2.29270588 Z M14.4297746,11.9767059 L11.6929364,11.9809412 L13.722659,3.18988235 L16.4594971,3.18564706 L14.4297746,11.9767059 Z" id="Fill-4"></path>
                <path d="M27.5789075,11.9527059 L20.5028555,11.9647059 C19.9838844,11.9654118 19.5502428,11.9463529 19.2012312,11.9061176 C18.8529191,11.8651765 18.571052,11.7952941 18.3556301,11.6936471 C18.1402081,11.5934118 17.984237,11.4543529 17.8877168,11.2785882 C17.7904971,11.1028235 17.742237,10.8727059 17.7415376,10.5889412 C17.7408382,10.2776471 17.791896,9.91270588 17.8954104,9.49270588 L18.0052197,9.00564706 C18.1374104,8.47764706 18.2849884,8.05129412 18.4479538,7.72658824 C18.6102197,7.40117647 18.8326358,7.15058824 19.1138035,6.97482353 C19.3956705,6.79835294 19.7474798,6.67905882 20.1699306,6.61764706 C20.5923815,6.55623529 21.1232428,6.52447059 21.7611156,6.52376471 L24.9420867,6.51811765 L24.4573873,8.62941176 L21.4981329,8.63435294 C21.2309538,8.63505882 21.0162312,8.71270588 20.8532659,8.86870588 C20.6903006,9.02470588 20.6091676,9.19764706 20.6091676,9.38752941 C20.6098671,9.69811765 20.8106012,9.85341176 21.2106705,9.85270588 L25.3274682,9.84635294 L26.0996301,6.51670588 C26.1730694,6.17858824 26.2094393,5.95482353 26.2094393,5.84682353 C26.2087399,5.61670588 26.1234104,5.46776471 25.9527514,5.40070588 C25.7820925,5.33294118 25.4372775,5.29976471 24.9176069,5.30047059 L19.3110405,5.30964706 L19.7964393,3.19835294 L26.4269595,3.18776471 C26.9459306,3.18635294 27.3795723,3.20682353 27.7278844,3.24635294 C28.076896,3.28658824 28.358763,3.35717647 28.574185,3.45811765 C28.7896069,3.55976471 28.945578,3.69811765 29.0420983,3.87388235 C29.1386185,4.04894118 29.187578,4.27905882 29.1882775,4.56352941 C29.1889769,4.87482353 29.1379191,5.24047059 29.035104,5.65905882 L27.5789075,11.9527059" id="Fill-5"></path>
                <path d="M39.4019364,5.27505882 L36.1978844,5.28 C35.8565665,5.28070588 35.5858902,5.29552941 35.3858555,5.32235294 C35.1858208,5.34988235 35.0263526,5.40776471 34.9081503,5.496 C34.7892486,5.58423529 34.6969249,5.70917647 34.6304798,5.87152941 C34.5640347,6.03458824 34.5010867,6.24423529 34.4430347,6.50117647 L33.185474,11.9421176 L30.4486358,11.9463529 L32.477659,3.17576471 L35.2144971,3.17152941 L34.9717977,4.26776471 C35.4753815,3.53576471 36.1566185,3.17011765 37.0169075,3.16870588 L39.8873353,3.16376471 L39.4019364,5.27505882" id="Fill-7"></path>
                <path d="M51.0130405,8.58141176 L44.6496994,8.592 L45.1350983,6.48 L48.8511272,6.47505882 C48.9392543,6.09529412 48.9833179,5.88635294 48.9833179,5.84541176 C48.9826185,5.43952941 48.6259133,5.23694118 47.9139017,5.23835294 L45.733104,5.24117647 C45.4365491,5.24188235 45.1882543,5.256 44.9882197,5.28352941 C44.7874855,5.31035294 44.6252197,5.36823529 44.4986243,5.45647059 C44.3734277,5.54470588 44.2692139,5.67035294 44.1880809,5.83270588 C44.106948,5.99505882 44.0370058,6.21176471 43.9782543,6.48211765 L43.4928555,8.59411765 C43.434104,8.86447059 43.4047283,9.08117647 43.4047283,9.24282353 C43.4054277,9.47364706 43.4914566,9.62541176 43.6621156,9.69952941 C43.8327746,9.77364706 44.1775896,9.81035294 44.6965607,9.80964706 L50.3038266,9.80047059 L49.8177283,11.8912941 L43.165526,11.9025882 C42.6311676,11.9032941 42.1863353,11.8835294 41.8303295,11.8432941 C41.4743237,11.8030588 41.1924566,11.7296471 40.9847283,11.6216471 C40.777,11.5136471 40.6280231,11.3752941 40.5384971,11.2065882 C40.4489711,11.0371765 40.4042081,10.8176471 40.4035087,10.5472941 C40.4035087,10.3983529 40.4181965,10.2324706 40.4475723,10.0496471 C40.476948,9.86682353 40.5210116,9.66070588 40.579763,9.43058824 L41.440052,5.63435294 C41.6456821,4.74141176 42.0415549,4.10047059 42.6269711,3.71505882 C43.2116879,3.32823529 44.0677803,3.13341176 45.1952486,3.132 L49.1113121,3.12494118 C50.1345665,3.12352941 50.8472775,3.21741176 51.2473468,3.40658824 C51.648815,3.59435294 51.8495491,3.96 51.850948,4.50141176 C51.8516474,4.812 51.7998902,5.184 51.6970751,5.61811765 L51.0130405,8.58141176" id="Fill-8"></path>
                <path d="M63.475341,11.8877647 L60.7608844,11.8912941 L62.0184451,6.45035294 C62.0918844,6.11223529 62.1289538,5.88847059 62.1282543,5.78047059 C62.1282543,5.55105882 62.0422254,5.40211765 61.8715665,5.33435294 C61.7009075,5.268 61.3560925,5.23411765 60.836422,5.23552941 L58.6563237,5.23905882 C58.3150058,5.23905882 58.0450289,5.25317647 57.8442948,5.28 C57.6442601,5.30752941 57.4847919,5.36541176 57.3665896,5.45364706 C57.2476879,5.54188235 57.1553642,5.66682353 57.0889191,5.82917647 C57.022474,5.99223529 56.9602254,6.20188235 56.9007746,6.45882353 L55.6439133,11.8997647 L52.9070751,11.9047059 L54.9367977,3.13411765 L57.6729364,3.12917647 L57.4309364,4.22541176 C57.9338208,3.49411765 58.6150578,3.12776471 59.4753468,3.12635294 L62.3457746,3.12211765 C63.3690289,3.12070588 64.0817399,3.21105882 64.4818092,3.39247059 C64.882578,3.57458824 65.0840116,3.94305882 65.0854104,4.49788235 C65.0854104,4.80847059 65.0343526,5.17411765 64.9315376,5.59411765 L63.475341,11.8877647" id="Fill-9"></path>
                <path d="M71.4102832,11.8715294 L69.2078035,11.8750588 C68.1845491,11.8764706 67.4725376,11.7868235 67.0717688,11.6047059 C66.671,11.4225882 66.4695665,11.0541176 66.4688671,10.5 C66.4681676,10.188 66.5192254,9.82305882 66.6227399,9.40305882 L68.7398902,0.206823529 L71.4767283,0.201882353 L70.7933931,3.10517647 L73.4407052,3.10094118 L72.9329249,5.21223529 L70.3303757,5.21647059 L69.5575145,8.54611765 C69.4847746,8.88494118 69.4477052,9.108 69.4477052,9.216 C69.4484046,9.44611765 69.5337341,9.59435294 69.7043931,9.66211765 C69.875052,9.72988235 70.2198671,9.76305882 70.7388382,9.76235294 L71.8963815,9.76023529 L71.4102832,11.8715294" id="Fill-10"></path>
                <path d="M87.3137399,11.8383529 L81.6176474,11.8475294 C81.0686012,11.8482353 80.6167746,11.8256471 80.2607688,11.7783529 C79.9040636,11.7317647 79.6221965,11.6576471 79.4144682,11.5567059 C79.2067399,11.4557647 79.0619595,11.3174118 78.9801272,11.1416471 C78.8982948,10.9658824 78.8563295,10.7421176 78.8563295,10.4717647 C78.8556301,10.1604706 78.9066879,9.79552941 79.0095029,9.37552941 L79.891474,5.55882353 C80.0243642,5.03152941 80.1761387,4.60447059 80.3460983,4.27976471 C80.5153584,3.95435294 80.7447688,3.70447059 81.0336301,3.528 C81.3224913,3.35152941 81.675,3.23223529 82.0897572,3.17082353 C82.5052139,3.10941176 83.024185,3.07764706 83.6480694,3.07694118 L89.3434624,3.06776471 L88.8580636,5.17976471 L84.1852254,5.18682353 C83.8446069,5.18682353 83.5739306,5.20164706 83.373896,5.22847059 C83.1731618,5.256 83.0136936,5.31388235 82.8954913,5.40211765 C82.7765896,5.49035294 82.6849653,5.61529412 82.6185202,5.77764706 C82.5513757,5.94070588 82.4891272,6.15035294 82.4296763,6.40729412 L81.9449769,8.51858824 C81.8715376,8.85741176 81.8351676,9.08047059 81.8351676,9.18847059 C81.8358671,9.41788235 81.9211965,9.56682353 82.0918555,9.63458824 C82.2625145,9.70235294 82.6073295,9.73552941 83.1263006,9.73482353 L87.7991387,9.72705882 L87.3137399,11.8383529" id="Fill-11"></path>
                <path d="M98.1778613,8.48894118 L98.6625607,6.37835294 C98.7366994,6.03952941 98.7730694,5.81647059 98.7730694,5.70847059 C98.7730694,5.47764706 98.6870405,5.32941176 98.5156821,5.26235294 C98.3450231,5.19458824 98.0002081,5.16141176 97.481237,5.16211765 L95.3011387,5.16564706 C94.9891965,5.16635294 94.7332081,5.17694118 94.5331734,5.19741176 C94.3331387,5.21788235 94.169474,5.26941176 94.0442775,5.35058824 C93.9183815,5.43176471 93.8183642,5.55388235 93.7442254,5.71552941 C93.6707861,5.87858824 93.604341,6.10164706 93.5455896,6.38611765 L93.0601908,8.49741176 C92.9867514,8.83552941 92.9496821,9.05929412 92.9503815,9.16729412 C92.9503815,9.39741176 93.035711,9.54635294 93.2070694,9.61341176 C93.3777283,9.68117647 93.7225434,9.71364706 94.2415145,9.71294118 L96.4223121,9.71011765 C96.7636301,9.70941176 97.0336069,9.69529412 97.234341,9.66776471 C97.4343757,9.64094118 97.5938439,9.58305882 97.7120462,9.49482353 C97.830948,9.40658824 97.9232717,9.28447059 97.9897168,9.12847059 C98.0561618,8.97317647 98.1191098,8.76 98.1778613,8.48894118 Z M100.693682,9.33741176 C100.576179,9.86541176 100.432098,10.2882353 100.261439,10.6065882 C100.092179,10.9249412 99.8704624,11.1755294 99.5955896,11.3590588 C99.3221156,11.5418824 98.9703064,11.664 98.5401618,11.7254118 C98.1100173,11.7875294 97.5763584,11.8185882 96.9384855,11.82 L92.7111792,11.8263529 C91.6872254,11.8284706 90.9752139,11.7381176 90.5744451,11.556 C90.1736763,11.3738824 89.9729422,11.0061176 89.9715434,10.4505882 C89.9708439,10.1392941 90.0219017,9.77364706 90.1247168,9.35505882 L91.0073873,5.53835294 C91.139578,5.00964706 91.2906532,4.58329412 91.4606127,4.25858824 C91.6312717,3.93388235 91.8529884,3.68258824 92.1271618,3.50611765 C92.4013353,3.32964706 92.748948,3.21176471 93.1720983,3.14964706 C93.5945491,3.08823529 94.1170173,3.05717647 94.7402023,3.05576471 L98.9682081,3.04941176 C99.5165549,3.048 99.9690809,3.07058824 100.325087,3.11788235 C100.681092,3.16447059 100.96296,3.23929412 101.170688,3.33952941 C101.379116,3.44117647 101.523896,3.58305882 101.605728,3.76517647 C101.68826,3.94729412 101.728827,4.16752941 101.729526,4.42447059 C101.730225,4.73576471 101.679168,5.10070588 101.575653,5.52070588 L100.693682,9.33741176 Z" id="Fill-12"></path>
                <path d="M118.779335,11.7811765 L116.064879,11.7861176 L117.322439,6.34447059 C117.381191,6.07411765 117.410566,5.85105882 117.410566,5.67529412 C117.409867,5.44517647 117.324538,5.29623529 117.153879,5.22917647 C116.98322,5.16141176 116.638405,5.12823529 116.118734,5.12894118 L115.050717,5.13035294 C114.710098,5.13105882 114.438723,5.14517647 114.238688,5.17270588 C114.038653,5.20023529 113.879185,5.25811765 113.760283,5.34635294 C113.642081,5.43388235 113.549757,5.55952941 113.483312,5.72188235 C113.416867,5.88494118 113.353919,6.09388235 113.295168,6.35152941 L112.037607,11.7924706 L109.300769,11.7967059 L110.69122,5.68517647 C110.69052,5.45576471 110.605191,5.30682353 110.433832,5.23976471 C110.263173,5.17270588 109.918358,5.13882353 109.399387,5.14023529 L108.332069,5.14164706 C107.990052,5.14235294 107.720075,5.15576471 107.519341,5.18329412 C107.319306,5.21152941 107.159838,5.26870588 107.041636,5.35694118 C106.922734,5.44517647 106.83041,5.57011765 106.763965,5.73247059 C106.69752,5.89482353 106.635272,6.10517647 106.57652,6.36211765 L105.31896,11.8030588 L102.582121,11.8072941 L104.611145,3.03670588 L107.347983,3.03317647 L107.105983,4.12870588 C107.608168,3.39741176 108.290104,3.03105882 109.150393,3.02964706 L110.90804,3.02682353 C111.887231,3.02541176 112.565671,3.09811765 112.944058,3.24635294 C113.323145,3.39458824 113.549757,3.66494118 113.624595,4.05741176 C113.772873,3.74611765 114.061035,3.49552941 114.49048,3.30494118 C114.920624,3.11505882 115.380844,3.01976471 115.86974,3.01905882 L117.628087,3.01623529 C118.650642,3.01411765 119.36685,3.10447059 119.775312,3.28658824 C120.183775,3.46870588 120.388006,3.83647059 120.389405,4.39129412 C120.390104,4.64894118 120.331353,5.01388235 120.21385,5.48752941 L118.779335,11.7811765" id="Fill-13"></path>
                <polyline id="Fill-14" points="76.3237225 11.8997647 73.7736301 11.9047059 74.2058728 9.71788235 76.7552659 9.71294118 76.3237225 11.8997647"></polyline>
            </g>
            <path d="M80.6193241,0.0814001989 L80.3957793,1.38725254 C76.1065141,1.9584336 72.7198109,3.12976867 71.0502109,7.37775532 C70.6177915,8.47734784 69.9478558,10.4309526 69.2849059,13.3172105 L64.8852654,32.3234671 C64.3368822,34.7447781 64.0686285,36.3169057 64.0707242,37.051577 C64.0853943,42.568165 74.5417007,41.2243719 77.5518707,38.9817275 C79.2172792,37.742099 81.7412394,34.9689736 84.9749541,30.4829948 L106.874657,0.0131068117 L111.984052,0 L112.079058,34.8993005 C112.301905,39.5742933 115.963847,41.0629512 119.672595,41.0539834 L128.99511,41.0291494 L129,42.7054417 L95.8385311,42.790291 L96.3107695,41.1767735 C99.8448725,40.6311162 104.169067,38.8575577 104.156492,33.8190233 L104.091524,8.95747104 L90.4364322,28.7115058 C86.7179047,33.9680271 81.8180829,40.0012995 91.8755016,41.1885007 L91.3913875,42.8020182 L46.1305582,42.9192896 L46.5420202,41.5437642 C53.774392,41.265072 55.4167474,38.1139186 56.9668907,31.5274008 L61.9477475,10.3688677 C62.3494295,8.66015337 62.598123,7.30946193 62.6072046,6.33403921 C62.6630907,0.306285494 52.7286216,1.54729361 49.4096804,4.01896236 C47.7449705,5.25859082 45.221709,8.03102641 41.9872956,12.5170052 L20.0875929,42.9868932 L14.9788965,43 L14.8831914,8.10138929 C14.6603452,3.42639651 10.9984025,1.9370488 7.2896551,1.94601662 L0.00489004175,1.96533192 L0,0.289039689 L31.1237186,0.209708987 L30.6514803,1.82322649 C27.1173772,2.36888376 22.7931832,4.14313216 22.8064562,9.18028684 L22.8714239,34.042529 L36.5258176,14.2891841 C40.244345,9.03197292 45.1441669,2.99870055 35.0867481,1.81218917 L35.5708623,0.19798184 L80.6193241,0.0814001989" id="VIA" fill="#E0001B"></path>
        </g>
    </g>
</svg>
