<svg id="Layer_1" data-name="Layer 1" xmlns="http://www.w3.org/2000/svg" viewBox="0 0 237.21 127.45">
  <title>sdtrenting</title>
  <path id="_Compound_Path_" data-name="&lt;Compound Path&gt;" d="M118.6,0C53.1,0,0,28.53,0,63.72s53.1,63.73,118.6,63.73S237.21,98.92,237.21,63.72,184.11,0,118.6,0Zm-3.78,4.7C162.88,1.9,204.49,18.09,218,42.58H156s0,0,0,0l-.2,0H59a15.4,15.4,0,0,0-5.12.84,14.83,14.83,0,0,0-7.37,5.66A15.39,15.39,0,0,0,44.62,53a16.84,16.84,0,0,0-.71,3.16A6.89,6.89,0,0,0,44.05,59a7,7,0,0,0,1.36,2.55,10.88,10.88,0,0,0,2.85,2.32L71.09,77.62H16.2a34.57,34.57,0,0,1-1.46-7.83C12.66,37.2,57.47,8.05,114.82,4.7Zm7.56,118.05c-48.06,2.81-89.66-13.38-103.13-37.89H80a14.59,14.59,0,0,0,9.29-3.12,14.7,14.7,0,0,0,3.15-3.35,15.08,15.08,0,0,0,1.91-3.94,19.58,19.58,0,0,0,.73-3.19,6.92,6.92,0,0,0-.15-2.85,6.69,6.69,0,0,0-1.33-2.54,10,10,0,0,0-2.88-2.32L67.93,49.84h72.18a8.23,8.23,0,0,1,3,.45,2.63,2.63,0,0,1,1.59,1.54,6,6,0,0,1,.21,3,29.28,29.28,0,0,1-1.11,4.73l-2.13,6.77a35.94,35.94,0,0,1-2,5.31,13.9,13.9,0,0,1-2.29,3.48,7.82,7.82,0,0,1-2.7,1.93,8.38,8.38,0,0,1-3.16.59H119.85L124.7,62,105.63,50.09,95.34,83.19c-.35,1.12,0,1.67,1,1.67h46.23a21.4,21.4,0,0,0,8.07-1.59A27.26,27.26,0,0,0,158,78.89a32,32,0,0,0,6-6.69,32.91,32.91,0,0,0,4-8.47,25.3,25.3,0,0,0,1.26-8.4,15.53,15.53,0,0,0-1.17-5.49h8.16L165.67,84.06c-.16.54.12.8.85.8h20.64a1.19,1.19,0,0,0,1.3-.8l8.6-27.68-10.35-6.54H221a34.48,34.48,0,0,1,1.45,7.82C224.55,90.26,179.74,119.4,122.38,122.75Z" style="fill: #c22033"/>
  <g>
    <path d="M71.6,110.53H68.24l3.36-19h6A5.62,5.62,0,0,1,82,93.09a4.62,4.62,0,0,1,1,4.2l-.22,1.26a6,6,0,0,1-1.16,2.7A5.64,5.64,0,0,1,79.28,103c.54,1.25,1,2.5,1.44,3.76s.78,2.53,1.08,3.79H78.16c-.26-1.17-.57-2.35-.91-3.52s-.75-2.34-1.19-3.48H72.84Zm5.83-16h-3l-1,5.88h3a3.38,3.38,0,0,0,2-.54,2.39,2.39,0,0,0,1-1.55l.23-1.21a2.27,2.27,0,0,0-.32-1.89A2.15,2.15,0,0,0,77.43,94.57Z" style="fill: #bbb"/>
    <path d="M87.82,107.32h7.67l-.56,3.21h-11l3.36-19H98l-.56,3.22H90.06l-.82,4.57H95.8l-.56,3.22H88.68Z" style="fill: #bbb"/>
    <path d="M100.72,110.53H97.5l3.36-19h3.08c1.24,2.49,2.27,4.73,3.11,6.74s1.65,4.16,2.44,6.45l.73-5.9,1.28-7.29h3.22l-3.36,19h-3.08q-1.11-3.72-2.42-7.12c-.87-2.27-1.83-4.57-2.9-6.9l-.95,6.74Z" style="fill: #bbb"/>
    <path d="M121.08,94.71h-5.32l.56-3.22h14l-.56,3.22h-5.32l-2.8,15.82h-3.36Z" style="fill: #bbb"/>
    <path d="M135.28,91.49l-3.36,19h-3.36l3.36-19Z" style="fill: #bbb"/>
    <path d="M139,110.53h-3.22l3.36-19h3.08c1.23,2.49,2.27,4.73,3.11,6.74s1.65,4.16,2.43,6.45l.73-5.9,1.29-7.29H153l-3.36,19h-3.08c-.75-2.48-1.55-4.85-2.42-7.12s-1.84-4.57-2.9-6.9l-1,6.74Z" style="fill: #bbb"/>
    <path d="M168.4,100.06l-1.62,9.27a13.6,13.6,0,0,1-3,1.11,12.17,12.17,0,0,1-2.9.38,6.2,6.2,0,0,1-5.22-2.27,7.31,7.31,0,0,1-1.16-5.85l.56-3.42a10.37,10.37,0,0,1,2.8-6.06,8.06,8.06,0,0,1,5.77-2,11.68,11.68,0,0,1,2.64.3,14.44,14.44,0,0,1,2.65.88l-1.26,2.94a14.84,14.84,0,0,0-2.25-.73,8.77,8.77,0,0,0-1.92-.22,4.5,4.5,0,0,0-3.31,1.27,6.42,6.42,0,0,0-1.67,3.63L158,102.7a5.06,5.06,0,0,0,.47,3.66,3.18,3.18,0,0,0,2.87,1.29,7.18,7.18,0,0,0,1.28-.12c.45-.09,1-.21,1.52-.38l.72-4.15h-3.1l.53-2.94Z" style="fill: #bbb"/>
  </g>
</svg>
