<?xml version="1.0" encoding="UTF-8"?>
<svg viewBox="0 0 60 60" version="1.1" xmlns="http://www.w3.org/2000/svg" xmlns:xlink="http://www.w3.org/1999/xlink">
    <!-- Generator: Sketch 52.4 (67378) - http://www.bohemiancoding.com/sketch -->
    <title>administration</title>
    <desc>Created with Sketch.</desc>
    <g id="Page-1" stroke="none" stroke-width="1" fill="none" fill-rule="evenodd">
        <g id="administration">
            <path d="M4.9075,59.0466 C2.1975,59.0466 -0.0005,56.8496 -0.0005,54.1396 L-0.0005,4.9066 C-0.0005,2.1966 2.1975,-0.0004 4.9075,-0.0004 L54.1395,-0.0004 C56.8495,-0.0004 59.0465,2.1966 59.0465,4.9066 L59.0465,54.1396 C59.0465,56.8496 56.8495,59.0466 54.1395,59.0466 L4.9075,59.0466 Z" id="panel" fill="#E0001B"></path>
            <polygon id="Clip-5" points="0 59.0467 59.047 59.0467 59.047 -0.0003 0 -0.0003"></polygon>
            <path d="M22.623,38.7247 L36.424,38.7247 L36.424,36.4237 L22.623,36.4237 L22.623,38.7247 Z M22.623,34.1237 L36.424,34.1237 L36.424,31.8237 L22.623,31.8237 L22.623,34.1237 Z M22.623,24.9227 L31.824,24.9227 L31.824,22.6227 L22.623,22.6227 L22.623,24.9227 Z M22.623,29.5237 L36.424,29.5237 L36.424,27.2237 L22.623,27.2237 L22.623,29.5237 Z M41.024,43.3247 L18.022,43.3247 L18.022,15.7227 L33.172,15.7227 L41.024,23.5747 L41.024,43.3247 Z M35.076,11.1217 L13.422,11.1217 L13.422,47.9257 L45.625,47.9257 L45.625,21.6707 L35.076,11.1217 Z" id="Fill-4" fill="#FEFEFE"></path>
        </g>
    </g>
</svg>
