<?xml version="1.0" encoding="UTF-8"?>
<svg viewBox="0 0 59 59" version="1.1" xmlns="http://www.w3.org/2000/svg" xmlns:xlink="http://www.w3.org/1999/xlink">
    <!-- Generator: Sketch 52.4 (67378) - http://www.bohemiancoding.com/sketch -->
    <title>aesthetic</title>
    <desc>Created with Sketch.</desc>
    <g id="Page-1" stroke="none" stroke-width="1" fill="none" fill-rule="evenodd">
        <g id="aesthetic" transform="translate(-1.000000, 0.000000)">
            <path d="M55.0193,58.927 L5.9073,58.927 C3.1973,58.927 0.9993,56.73 0.9993,54.02 L0.9993,4.907 C0.9993,2.197 3.1973,0 5.9073,0 L55.0193,0 C57.7303,0 59.9263,2.197 59.9263,4.907 L59.9263,54.02 C59.9263,56.73 57.7303,58.927 55.0193,58.927" id="panel" fill="#E0001B"></path>
            <path d="M39.577,36.298 C42.096,36.298 44.134,38.336 44.134,40.855 C44.134,43.374 42.096,45.411 39.577,45.411 C37.062,45.411 35.02,43.374 35.02,40.855 C35.02,38.336 37.062,36.298 39.577,36.298" id="Fill-4" fill="#FEFEFE"></path>
            <path d="M19.0721,36.298 C21.5911,36.298 23.6291,38.336 23.6291,40.855 C23.6291,43.374 21.5911,45.411 19.0721,45.411 C16.5571,45.411 14.5151,43.374 14.5151,40.855 C14.5151,38.336 16.5571,36.298 19.0721,36.298" id="Fill-6" fill="#FEFEFE"></path>
            <path d="M37.2986,20.3498 L41.8556,20.3498 L44.1336,27.1848 L37.2986,27.1848 L37.2986,20.3498 Z M12.2366,14.6548 L12.2366,37.4378 C12.2366,37.8178 12.4416,38.1408 12.7316,38.3478 C13.7326,35.8198 16.1936,34.0198 19.0716,34.0198 C22.0396,34.0198 24.5446,35.9318 25.4876,38.5768 L33.1646,38.5768 C34.1086,35.9318 36.6126,34.0198 39.5766,34.0198 C42.5006,34.0198 44.9796,35.8708 45.9576,38.4558 C46.4346,38.3168 46.9236,38.0678 47.2176,37.7718 L47.8846,37.1038 C48.3296,36.6618 48.6906,35.7868 48.6906,35.1598 L48.6906,28.3248 C48.6906,27.6968 48.4626,26.7268 48.1826,26.1658 L44.6456,19.0908 C44.3646,18.5308 43.6216,18.0718 42.9936,18.0718 L37.2986,18.0718 L37.2986,14.6548 C37.2986,14.0268 36.7866,13.5148 36.1586,13.5148 L13.3756,13.5148 C12.7526,13.5148 12.2366,14.0268 12.2366,14.6548 Z" id="Fill-8" fill="#FEFEFE"></path>
            <polygon id="Fill-10" fill="#FEFEFE" points="12.4627 18.0217 7.7567 21.4677 11.2027 16.7607 2.9557 15.2517 11.2027 13.7427 7.7557 9.0357 12.4627 12.4827 13.9727 4.2357 15.4817 12.4827 20.1887 9.0367 16.7417 13.7427 24.9887 15.2517 16.7417 16.7607 20.1887 21.4677 15.4817 18.0217 13.9727 26.2687"></polygon>
            <path d="M19.1912,9.6057 L19.1962,9.6057 L19.1912,9.6057 Z M13.9722,3.0347 L13.5462,5.3597 L12.3122,12.1037 L9.0142,9.6887 L6.7542,8.0347 L8.4092,10.2937 L10.8242,13.5917 L4.0802,14.8267 L1.7542,15.2517 L4.0802,15.6777 L10.8242,16.9127 L8.4092,20.2097 L6.7542,22.4697 L9.0142,20.8147 L12.3122,18.3997 L13.5462,25.1447 L13.9722,27.4697 L14.3982,25.1447 L15.6322,18.3997 L18.9302,20.8147 L21.1902,22.4697 L19.5352,20.2097 L17.1202,16.9127 L23.8642,15.6777 L26.1902,15.2517 L23.8642,14.8267 L17.1202,13.5917 L19.5352,10.2937 L21.1902,8.0347 L18.9302,9.6887 L15.6322,12.1037 L14.3982,5.3597 L13.9722,3.0347 Z M19.1862,10.0387 L19.1912,10.0387 L19.1862,10.0387 Z M13.9722,5.4377 L15.3312,12.8617 L19.1862,10.0387 L16.3632,13.8927 L23.7872,15.2517 L16.3632,16.6117 L19.1862,20.4657 L15.3312,17.6427 L13.9722,25.0667 L12.6132,17.6427 L8.7582,20.4657 L11.5822,16.6117 L4.1582,15.2517 L11.5822,13.8927 L8.7582,10.0387 L12.6132,12.8617 L13.9722,5.4377 Z" id="Fill-12" fill="#DF1E26"></path>
        </g>
    </g>
</svg>
