<?xml version="1.0" encoding="UTF-8"?>
<svg viewBox="0 0 59 59" version="1.1" xmlns="http://www.w3.org/2000/svg" xmlns:xlink="http://www.w3.org/1999/xlink">
    <!-- Generator: Sketch 52.4 (67378) - http://www.bohemiancoding.com/sketch -->
    <title>bulby</title>
    <desc>Created with Sketch.</desc>
    <g id="Page-1" stroke="none" stroke-width="1" fill="none" fill-rule="evenodd">
        <g id="bulby" transform="translate(0.000000, -1.000000)">
            <path d="M54.0213,59.9284 L4.9073,59.9284 C2.1973,59.9284 0.0003,57.7314 0.0003,55.0214 L0.0003,5.9074 C0.0003,3.1974 2.1973,0.9994 4.9073,0.9994 L54.0213,0.9994 C56.7313,0.9994 58.9283,3.1974 58.9283,5.9074 L58.9283,55.0214 C58.9283,57.7314 56.7313,59.9284 54.0213,59.9284" id="panel" fill="#E0001B"></path>
            <path d="M36.2986,28.1862 L43.1336,28.1862 L40.8556,21.3502 L36.2986,21.3502 L36.2986,28.1862 Z M12.3766,14.5152 L35.1596,14.5152 C35.7866,14.5152 36.2986,15.0282 36.2986,15.6552 L36.2986,19.0722 L41.9946,19.0722 C42.6216,19.0722 43.3656,19.5312 43.6456,20.0912 L47.1836,27.1662 C47.4636,27.7272 47.6906,28.6982 47.6906,29.3252 L47.6906,36.1602 C47.6906,36.7882 47.3296,37.6622 46.8856,38.1042 L46.2176,38.7722 C45.9236,39.0682 45.4346,39.3172 44.9586,39.4572 C43.9796,36.8722 41.5006,35.0212 38.5766,35.0212 C35.6136,35.0212 33.1086,36.9322 32.1646,39.5782 L24.4886,39.5782 C23.5456,36.9322 21.0406,35.0212 18.0716,35.0212 C15.1936,35.0212 12.7326,36.8212 11.7316,39.3482 C11.4426,39.1412 11.2366,38.8192 11.2366,38.4382 L11.2366,15.6552 C11.2366,15.0282 11.7536,14.5152 12.3766,14.5152 Z M13.5156,41.8562 C13.5156,44.3742 15.5586,46.4132 18.0716,46.4132 C20.5916,46.4132 22.6286,44.3742 22.6286,41.8562 C22.6286,39.3362 20.5916,37.2992 18.0716,37.2992 C15.5586,37.2992 13.5156,39.3362 13.5156,41.8562 Z M38.5766,37.2992 C41.0966,37.2992 43.1336,39.3362 43.1336,41.8562 C43.1336,44.3742 41.0966,46.4132 38.5766,46.4132 C36.0636,46.4132 34.0206,44.3742 34.0206,41.8562 C34.0206,39.3362 36.0636,37.2992 38.5766,37.2992 Z" id="Fill-4" fill="#FEFEFE"></path>
            <path d="M21.6717,31.6735 L22.6187,31.6735 L22.5917,31.7875 C22.5917,32.2325 23.0067,32.5935 23.5117,32.5935 C24.0187,32.5935 24.4317,32.2325 24.4317,31.7875 L24.4047,31.6735 L25.3527,31.6735 L25.3527,30.7525 L21.6717,30.7525 L21.6717,31.6735 Z M26.2727,25.2325 C26.2727,23.7105 25.0337,22.4725 23.5117,22.4725 C21.9897,22.4725 20.7517,23.7105 20.7517,25.2325 C20.7517,26.2155 21.2697,27.1035 22.1357,27.6085 L22.5917,27.8745 L22.5917,28.4025 L22.5917,28.9125 L24.4317,28.9125 L24.4317,28.4025 L24.4317,27.8745 L24.8897,27.6085 C25.7557,27.1035 26.2727,26.2155 26.2727,25.2325 Z M27.1927,25.2325 C27.1927,26.5915 26.4477,27.7645 25.3527,28.4025 L25.3527,29.8325 L21.6717,29.8325 L21.6717,28.4025 C20.5767,27.7645 19.8307,26.5915 19.8307,25.2325 C19.8307,23.1995 21.4797,21.5525 23.5117,21.5525 C25.5437,21.5525 27.1927,23.1995 27.1927,25.2325 Z M23.9737,19.7135 C24.0997,19.7135 24.2147,19.6615 24.2987,19.5765 C24.3817,19.4945 24.4337,19.3795 24.4337,19.2515 L24.4337,18.3315 C24.4337,18.0785 24.2267,17.8715 23.9737,17.8715 C23.7837,17.8715 23.6197,17.9885 23.5507,18.1535 L23.5137,18.3335 L23.5137,19.2535 C23.5137,19.5075 23.7207,19.7135 23.9737,19.7135 Z M29.0407,20.3535 C28.8627,20.1755 28.5697,20.1755 28.3907,20.3535 L27.7397,21.0045 C27.5627,21.1845 27.5627,21.4765 27.7397,21.6545 C27.9197,21.8345 28.2127,21.8345 28.3907,21.6545 L29.0407,21.0045 C29.2207,20.8255 29.2207,20.5325 29.0407,20.3535 Z M30.4117,25.2315 L29.4917,25.2315 C29.2397,25.2315 29.0317,25.4375 29.0317,25.6915 C29.0317,25.9445 29.2397,26.1515 29.4917,26.1515 L30.4117,26.1515 C30.6657,26.1515 30.8727,25.9445 30.8727,25.6915 C30.8727,25.4375 30.6657,25.2315 30.4117,25.2315 Z M17.5347,24.3125 L16.6147,24.3125 C16.3617,24.3125 16.1537,24.5195 16.1537,24.7725 C16.1537,25.0265 16.3617,25.2325 16.6147,25.2325 L17.5347,25.2325 C17.7877,25.2325 17.9947,25.0265 17.9947,24.7725 C17.9947,24.5195 17.7877,24.3125 17.5347,24.3125 Z M19.9357,21.0045 C19.7577,21.1845 19.4647,21.1845 19.2847,21.0045 L18.6347,20.3535 C18.4567,20.1755 18.4567,19.8825 18.6347,19.7025 C18.8147,19.5255 19.1077,19.5255 19.2847,19.7025 L19.9357,20.3535 C20.1147,20.5325 20.1147,20.8255 19.9357,21.0045 Z" id="Fill-6" fill="#DF1E26"></path>
            <path d="M21.6717,31.6735 L22.6187,31.6735 L22.5917,31.7875 C22.5917,32.2325 23.0067,32.5935 23.5117,32.5935 C24.0187,32.5935 24.4317,32.2325 24.4317,31.7875 L24.4047,31.6735 L25.3527,31.6735 L25.3527,30.7525 L21.6717,30.7525 L21.6717,31.6735 Z M26.2727,25.2325 C26.2727,23.7105 25.0337,22.4725 23.5117,22.4725 C21.9897,22.4725 20.7517,23.7105 20.7517,25.2325 C20.7517,26.2155 21.2697,27.1035 22.1357,27.6085 L22.5917,27.8745 L22.5917,28.4025 L22.5917,28.9125 L24.4317,28.9125 L24.4317,28.4025 L24.4317,27.8745 L24.8897,27.6085 C25.7557,27.1035 26.2727,26.2155 26.2727,25.2325 Z M27.1927,25.2325 C27.1927,26.5915 26.4477,27.7645 25.3527,28.4025 L25.3527,29.8325 L21.6717,29.8325 L21.6717,28.4025 C20.5767,27.7645 19.8307,26.5915 19.8307,25.2325 C19.8307,23.1995 21.4797,21.5525 23.5117,21.5525 C25.5437,21.5525 27.1927,23.1995 27.1927,25.2325 Z M23.9737,19.7135 C24.0997,19.7135 24.2147,19.6615 24.2987,19.5765 C24.3817,19.4945 24.4337,19.3795 24.4337,19.2515 L24.4337,18.3315 C24.4337,18.0785 24.2267,17.8715 23.9737,17.8715 C23.7837,17.8715 23.6197,17.9885 23.5507,18.1535 L23.5137,18.3335 L23.5137,19.2535 C23.5137,19.5075 23.7207,19.7135 23.9737,19.7135 Z M29.0407,20.3535 C28.8627,20.1755 28.5697,20.1755 28.3907,20.3535 L27.7397,21.0045 C27.5627,21.1845 27.5627,21.4765 27.7397,21.6545 C27.9197,21.8345 28.2127,21.8345 28.3907,21.6545 L29.0407,21.0045 C29.2207,20.8255 29.2207,20.5325 29.0407,20.3535 Z M30.4117,25.2315 L29.4917,25.2315 C29.2397,25.2315 29.0317,25.4375 29.0317,25.6915 C29.0317,25.9445 29.2397,26.1515 29.4917,26.1515 L30.4117,26.1515 C30.6657,26.1515 30.8727,25.9445 30.8727,25.6915 C30.8727,25.4375 30.6657,25.2315 30.4117,25.2315 Z M17.5347,24.3125 L16.6147,24.3125 C16.3617,24.3125 16.1537,24.5195 16.1537,24.7725 C16.1537,25.0265 16.3617,25.2325 16.6147,25.2325 L17.5347,25.2325 C17.7877,25.2325 17.9947,25.0265 17.9947,24.7725 C17.9947,24.5195 17.7877,24.3125 17.5347,24.3125 Z M19.9357,21.0045 C19.7577,21.1845 19.4647,21.1845 19.2847,21.0045 L18.6347,20.3535 C18.4567,20.1755 18.4567,19.8825 18.6347,19.7025 C18.8147,19.5255 19.1077,19.5255 19.2847,19.7025 L19.9357,20.3535 C20.1147,20.5325 20.1147,20.8255 19.9357,21.0045 Z" id="Stroke-8" stroke="#DF1E26" stroke-width="0.433"></path>
        </g>
    </g>
</svg>
