<?xml version="1.0" encoding="UTF-8"?>
<svg viewBox="0 0 59 59" version="1.1" xmlns="http://www.w3.org/2000/svg" xmlns:xlink="http://www.w3.org/1999/xlink">
    <!-- Generator: Sketch 52.4 (67378) - http://www.bohemiancoding.com/sketch -->
    <title>calendar</title>
    <desc>Created with Sketch.</desc>
    <g id="Page-1" stroke="none" stroke-width="1" fill="none" fill-rule="evenodd">
        <g id="calendar" transform="translate(-1.000000, 0.000000)">
            <path d="M5.9074,58.9265 C3.1974,58.9265 0.9994,56.7305 0.9994,54.0195 L0.9994,4.9065 C0.9994,2.1975 3.1974,-0.0005 5.9074,-0.0005 L55.0194,-0.0005 C57.7304,-0.0005 59.9264,2.1975 59.9264,4.9065 L59.9264,54.0195 C59.9264,56.7305 57.7304,58.9265 55.0194,58.9265 L5.9074,58.9265 Z" id="panel" fill="#E0001B"></path>
            <polygon id="Fill-4" fill="#FEFEFE" points="22.8172 30.0701 22.8172 42.1151 27.2092 42.1151 27.2092 25.9101 23.9662 25.9101 19.2542 27.2421 20.1052 30.6901"></polygon>
            <polygon id="Fill-6" fill="#FEFEFE" points="31.3534 42.115 36.2724 42.115 43.3744 29.378 43.3744 26.022 30.9844 26.022 30.9844 29.769 38.4334 29.769"></polygon>
            <polygon id="Clip-9" points="1 58.9269 59.927 58.9269 59.927 -0.0001 1 -0.0001"></polygon>
            <path d="M15.512,45.5649 L45.415,45.5649 L45.415,22.5629 L15.512,22.5629 L15.512,45.5649 Z M20.112,17.9629 L22.413,17.9629 L22.413,13.3619 L20.112,13.3619 L20.112,17.9629 Z M38.515,17.9629 L40.815,17.9629 L40.815,13.3619 L38.515,13.3619 L38.515,17.9629 Z M43.115,15.6619 L43.115,12.2119 C43.115,11.5779 42.6,11.0609 41.965,11.0609 L37.364,11.0609 C36.728,11.0609 36.214,11.5779 36.214,12.2119 L36.214,15.6619 L24.713,15.6619 L24.713,12.2119 C24.713,11.5779 24.198,11.0609 23.562,11.0609 L18.963,11.0609 C18.326,11.0609 17.812,11.5779 17.812,12.2119 L17.812,15.6619 L13.212,15.6619 L13.212,47.8649 L47.715,47.8649 L47.715,15.6619 L43.115,15.6619 Z" id="Fill-8" fill="#FEFEFE"></path>
        </g>
    </g>
</svg>
