<?xml version="1.0" encoding="UTF-8"?>
<svg viewBox="0 0 195 70" version="1.1" xmlns="http://www.w3.org/2000/svg" xmlns:xlink="http://www.w3.org/1999/xlink">
    <!-- Generator: Sketch 52.4 (67378) - http://www.bohemiancoding.com/sketch -->
    <title>felpotkocsi</title>
    <desc>Created with Sketch.</desc>
    <g id="felpotkocsi" stroke="none" stroke-width="1" fill="none" fill-rule="evenodd">
        <g>
            <rect id="box" x="0" y="0" width="194" height="70"></rect>
            <polygon id="Fill-1" fill="#6C6E70" points="7.4519 48.7576 7.4519 56.7146 8.4529 56.7146 6.0539 58.8486 6.0539 57.4876 3.9809 57.4876 3.9809 62.7856 6.0539 62.7856 6.0539 61.3226 10.0359 58.6576 16.4849 58.6576 16.4849 56.7146 78.9549 56.7146 78.9549 51.9966 169.0609 51.9966 169.0609 48.7576 78.9549 48.7576"></polygon>
            <polygon id="Fill-2" fill="#6C6E70" points="136.022 61.596 137.811 61.596 137.811 47.645 136.022 47.645"></polygon>
            <polygon id="Fill-3" fill="#6C6E70" points="101.279 61.596 103.068 61.596 103.068 47.645 101.279 47.645"></polygon>
            <polygon id="Fill-4" fill="#6C6E70" points="97.829 63.176 141.524 63.176 141.524 59.491 97.829 59.491"></polygon>
            <polygon id="Fill-5" fill="#6C6E70" points="97.829 56.609 141.524 56.609 141.524 52.925 97.829 52.925"></polygon>
            <path d="M0,49.653 L194.025,49.653 L194.025,4 L0,4 L0,49.653 Z M1.789,47.864 L192.236,47.864 L192.236,5.79 L1.789,5.79 L1.789,47.864 Z" id="Fill-6" fill="#6C6E70"></path>
            <g id="Group-23" transform="translate(15.000000, 49.560000)">
                <path d="M11.9519,6.1459 C9.4469,6.1459 7.4169,8.1769 7.4169,10.6809 C7.4169,13.1859 9.4469,15.2169 11.9519,15.2169 C14.4569,15.2169 16.4869,13.1859 16.4869,10.6809 C16.4869,8.1769 14.4569,6.1459 11.9519,6.1459 Z M22.4389,11.5769 L21.5439,11.5769 L21.2269,11.5769 C21.0149,13.7909 20.0279,15.7789 18.5419,17.2669 L18.5419,17.2709 C16.8549,18.9559 14.5249,19.9999 11.9519,19.9999 C9.3789,19.9999 7.0489,18.9559 5.3619,17.2709 C3.8749,15.7829 2.8889,13.7929 2.6769,11.5769 L1.4639,11.5769 L0.5679,11.5769 L0.5679,10.6809 C0.5679,7.4109 1.5869,4.4469 3.6799,2.3539 L3.6809,2.3519 L3.6829,2.3509 C4.4749,1.5589 5.4159,0.8959 6.5089,0.3919 L17.3989,0.3919 C18.4919,0.8949 19.4329,1.5579 20.2239,2.3499 L20.2239,2.3529 C21.1889,3.3179 21.9259,4.4689 22.4389,5.7499 L22.4389,11.5769 Z" id="Fill-7" fill="#6C6E70"></path>
                <path d="M11.9519,8.204 C10.5839,8.204 9.4739,9.313 9.4739,10.682 C9.4739,12.05 10.5839,13.16 11.9519,13.16 C13.3199,13.16 14.4299,12.05 14.4299,10.682 C14.4299,9.313 13.3199,8.204 11.9519,8.204" id="Fill-9" fill="#6C6E70"></path>
                <path d="M32.9265,6.1459 C30.4215,6.1459 28.3915,8.1769 28.3915,10.6809 C28.3915,13.1859 30.4215,15.2169 32.9265,15.2169 C35.4315,15.2169 37.4615,13.1859 37.4615,10.6809 C37.4615,8.1769 35.4315,6.1459 32.9265,6.1459 Z M43.4135,11.5769 L42.5185,11.5769 L42.2015,11.5769 C41.9895,13.7909 41.0025,15.7789 39.5165,17.2669 L39.5165,17.2709 C37.8305,18.9559 35.4995,19.9999 32.9265,19.9999 C30.3535,19.9999 28.0235,18.9559 26.3375,17.2709 C24.8495,15.7829 23.8625,13.7929 23.6515,11.5769 L22.4395,11.5769 L21.5435,11.5769 L21.5435,10.6809 C21.5435,7.4109 22.5625,4.4469 24.6545,2.3539 L24.6555,2.3519 L24.6575,2.3509 C25.4495,1.5589 26.3915,0.8959 27.4835,0.3919 L38.3735,0.3919 C39.4665,0.8949 40.4075,1.5579 41.1995,2.3499 L41.1995,2.3529 C42.1635,3.3179 42.9005,4.4689 43.4135,5.7499 L43.4135,11.5769 Z" id="Fill-11" fill="#6C6E70"></path>
                <path d="M32.9265,8.204 C31.5585,8.204 30.4485,9.313 30.4485,10.682 C30.4485,12.05 31.5585,13.16 32.9265,13.16 C34.2945,13.16 35.4045,12.05 35.4045,10.682 C35.4045,9.313 34.2945,8.204 32.9265,8.204" id="Fill-13" fill="#6C6E70"></path>
                <path d="M53.9011,6.1459 C56.4061,6.1459 58.4361,8.1769 58.4361,10.6809 C58.4361,13.1859 56.4061,15.2169 53.9011,15.2169 C51.3961,15.2169 49.3661,13.1859 49.3661,10.6809 C49.3661,8.1769 51.3961,6.1459 53.9011,6.1459 Z M43.4141,11.5769 L44.3091,11.5769 L44.6261,11.5769 C44.8381,13.7909 45.8251,15.7789 47.3111,17.2669 L47.3111,17.2709 C48.9981,18.9559 51.3291,19.9999 53.9011,19.9999 C56.4741,19.9999 58.8041,18.9559 60.4901,17.2709 C61.9781,15.7829 62.9651,13.7929 63.1761,11.5769 L64.3881,11.5769 L65.2841,11.5769 L65.2841,10.6809 C65.2841,7.4109 64.2661,4.4469 62.1731,2.3539 L62.1721,2.3519 L62.1711,2.3509 C61.3791,1.5589 60.4361,0.8959 59.3441,0.3919 L48.4541,0.3919 C47.3611,0.8949 46.4201,1.5579 45.6291,2.3499 L45.6291,2.3529 C44.6641,3.3179 43.9271,4.4689 43.4141,5.7499 L43.4141,11.5769 Z" id="Fill-15" fill="#6C6E70"></path>
                <path d="M53.9011,8.204 C55.2691,8.204 56.3791,9.313 56.3791,10.682 C56.3791,12.05 55.2691,13.16 53.9011,13.16 C52.5331,13.16 51.4231,12.05 51.4231,10.682 C51.4231,9.313 52.5331,8.204 53.9011,8.204" id="Fill-17" fill="#6C6E70"></path>
                <g id="Group-22" transform="translate(143.000000, 2.000000)">
                    <path d="M0.8757,0.1312 L0.8757,16.1312" id="Fill-19" fill="#6C6E70"></path>
                    <path d="M0.8757,0.1312 L0.8757,16.1312" id="Stroke-21" stroke="#6C6E70" stroke-width="2"></path>
                </g>
            </g>
        </g>
    </g>
</svg>
