<?xml version="1.0" encoding="UTF-8"?>
<svg viewBox="0 0 59 59" version="1.1" xmlns="http://www.w3.org/2000/svg" xmlns:xlink="http://www.w3.org/1999/xlink">
    <!-- Generator: Sketch 52.4 (67378) - http://www.bohemiancoding.com/sketch -->
    <title>freeze</title>
    <desc>Created with Sketch.</desc>
    <g id="Page-1" stroke="none" stroke-width="1" fill="none" fill-rule="evenodd">
        <g id="freeze">
            <path d="M54.0214,58.9279 L4.9074,58.9279 C2.1974,58.9279 0.0004,56.7319 0.0004,54.0209 L0.0004,4.9069 C0.0004,2.1979 2.1974,-0.0001 4.9074,-0.0001 L54.0214,-0.0001 C56.7314,-0.0001 58.9284,2.1979 58.9284,4.9069 L58.9284,54.0209 C58.9284,56.7319 56.7314,58.9279 54.0214,58.9279" id="panel" fill="#E0001B"></path>
            <path d="M39.2782,36.8243 C41.9912,36.8243 44.1852,39.0193 44.1852,41.7313 C44.1852,44.4443 41.9912,46.6383 39.2782,46.6383 C36.5712,46.6383 34.3712,44.4443 34.3712,41.7313 C34.3712,39.0193 36.5712,36.8243 39.2782,36.8243" id="Fill-4" fill="#FEFEFE"></path>
            <path d="M17.1962,36.8243 C19.9092,36.8243 22.1032,39.0193 22.1032,41.7313 C22.1032,44.4443 19.9092,46.6383 17.1962,46.6383 C14.4892,46.6383 12.2892,44.4443 12.2892,41.7313 C12.2892,39.0193 14.4892,36.8243 17.1962,36.8243" id="Fill-6" fill="#FEFEFE"></path>
            <path d="M36.8251,19.6495 L41.7321,19.6495 L44.1851,27.0105 L36.8251,27.0105 L36.8251,19.6495 Z M9.8361,13.5155 L9.8361,38.0515 C9.8361,38.4615 10.0551,38.8085 10.3671,39.0315 C11.4451,36.3095 14.0961,34.3715 17.1961,34.3715 C20.3921,34.3715 23.0911,36.4295 24.1061,39.2785 L32.3731,39.2785 C33.3881,36.4295 36.0871,34.3715 39.2781,34.3715 C42.4271,34.3715 45.0961,36.3645 46.1501,39.1495 C46.6631,38.9985 47.1901,38.7295 47.5071,38.4115 L48.2251,37.6925 C48.7051,37.2155 49.0931,36.2735 49.0931,35.5975 L49.0931,28.2375 C49.0931,27.5615 48.8481,26.5165 48.5471,25.9135 L44.7361,18.2945 C44.4341,17.6895 43.6351,17.1965 42.9591,17.1965 L36.8251,17.1965 L36.8251,13.5155 C36.8251,12.8395 36.2731,12.2895 35.5981,12.2895 L11.0621,12.2895 C10.3911,12.2895 9.8361,12.8395 9.8361,13.5155 Z" id="Fill-8" fill="#FEFEFE"></path>
            <path d="M30.1337,27.3712 L28.4107,26.3762 L29.8647,25.5102 C30.0987,25.3962 30.1707,25.0832 30.0377,24.8522 C29.9027,24.6162 29.6107,24.5662 29.3887,24.6952 L27.4507,25.8312 L24.3697,24.0382 L27.4507,22.2652 L29.3887,23.3972 C29.4487,23.4412 29.5277,23.4682 29.6137,23.4682 C29.7787,23.4682 29.9257,23.3912 30.0377,23.2422 C30.1677,23.0082 30.0987,22.6982 29.8647,22.5852 L28.4107,21.7202 L30.1337,20.7252 C30.3587,20.5952 30.4347,20.3062 30.3067,20.0672 C30.1837,19.8392 29.8797,19.7602 29.6487,19.8932 L27.9177,20.8982 L27.8917,19.1672 C27.8887,18.8982 27.6847,18.6832 27.4157,18.6832 C27.1487,18.6832 26.9387,18.9162 26.9407,19.1672 L26.9567,21.4522 L23.8937,23.2262 L23.8937,19.6262 L25.8237,18.5262 C26.0487,18.3982 26.1477,18.1012 26.0147,17.8692 C25.8787,17.6322 25.6017,17.5632 25.3647,17.6952 L23.8937,18.5262 L23.8937,16.5622 C23.8937,16.2952 23.6777,16.0782 23.4097,16.0782 C23.1417,16.0782 22.9347,16.2952 22.9347,16.5622 L22.9347,18.5452 L21.4107,17.6952 C21.1737,17.5642 20.9037,17.6392 20.7707,17.8692 C20.6357,18.1052 20.7197,18.3942 20.9517,18.5262 L22.9347,19.6432 L22.9347,23.2082 L19.8007,21.4002 L19.8197,19.1672 C19.8447,18.9162 19.6197,18.6832 19.3517,18.6832 L19.3337,18.6832 C19.0827,18.6832 18.8607,18.8982 18.8587,19.1672 L18.8407,20.8472 L17.1537,19.8782 C16.9177,19.7402 16.6267,19.8222 16.5047,20.0492 C16.3757,20.2892 16.4427,20.5722 16.6777,20.7082 L18.3817,21.6942 L16.8937,22.5852 C16.6597,22.6982 16.5867,23.0122 16.7297,23.2422 C16.8207,23.3922 16.9537,23.4682 17.1367,23.4682 C17.2307,23.4682 17.3107,23.4442 17.3867,23.3972 L19.3337,22.2472 L22.4577,24.0382 L19.3337,25.8482 L17.3867,24.6952 C17.1537,24.5592 16.8517,24.6232 16.7297,24.8522 C16.6007,25.0912 16.6707,25.3772 16.8937,25.5102 L18.3817,26.3922 L16.6777,27.3882 C16.4437,27.5242 16.3657,27.8112 16.5047,28.0462 C16.6007,28.2082 16.7297,28.2882 16.9107,28.2882 C16.9537,28.2882 17.0407,28.2632 17.1537,28.2182 L18.8407,27.2482 L18.8587,28.9292 C18.8607,29.1962 19.0827,29.4022 19.3337,29.4022 L19.3517,29.4022 C19.6197,29.4022 19.8207,29.1802 19.8197,28.9102 L19.8007,26.6792 L22.9347,24.8882 L22.9347,28.4332 L20.9517,29.5512 C20.7157,29.6842 20.6327,29.9742 20.7707,30.2082 C20.8657,30.3722 20.9947,30.4522 21.1777,30.4522 C21.2637,30.4522 21.3427,30.4362 21.4107,30.3972 L22.9347,29.5342 L22.9347,31.5502 C22.9347,31.8172 23.1417,32.0262 23.4097,32.0262 C23.6777,32.0262 23.8937,31.8172 23.8937,31.5502 L23.8937,29.5672 L25.3647,30.3972 C25.4327,30.4362 25.5117,30.4522 25.5907,30.4522 C25.7797,30.4522 25.9207,30.3742 26.0147,30.2082 C26.1457,29.9752 26.0617,29.6842 25.8237,29.5512 L23.8937,28.4692 L23.8937,24.8702 L26.9567,26.6432 L26.9407,28.9102 C26.9387,29.1802 27.1487,29.4022 27.4157,29.4022 C27.6847,29.4022 27.8887,29.1962 27.8917,28.9292 L27.9177,27.1882 L29.6487,28.2012 C29.7157,28.2402 29.8047,28.2542 29.9007,28.2542 C30.0807,28.2542 30.2147,28.1782 30.3067,28.0282 C30.4477,27.7972 30.3587,27.5002 30.1337,27.3712" id="Fill-10" fill="#DF1E26"></path>
            <path d="M30.1337,27.3712 L28.4107,26.3762 L29.8647,25.5102 C30.0987,25.3962 30.1707,25.0832 30.0377,24.8522 C29.9027,24.6162 29.6107,24.5662 29.3887,24.6952 L27.4507,25.8312 L24.3697,24.0382 L27.4507,22.2652 L29.3887,23.3972 C29.4487,23.4412 29.5277,23.4682 29.6137,23.4682 C29.7787,23.4682 29.9257,23.3912 30.0377,23.2422 C30.1677,23.0082 30.0987,22.6982 29.8647,22.5852 L28.4107,21.7202 L30.1337,20.7252 C30.3587,20.5952 30.4347,20.3062 30.3067,20.0672 C30.1837,19.8392 29.8797,19.7602 29.6487,19.8932 L27.9177,20.8982 L27.8917,19.1672 C27.8887,18.8982 27.6847,18.6832 27.4157,18.6832 C27.1487,18.6832 26.9387,18.9162 26.9407,19.1672 L26.9567,21.4522 L23.8937,23.2262 L23.8937,19.6262 L25.8237,18.5262 C26.0487,18.3982 26.1477,18.1012 26.0147,17.8692 C25.8787,17.6322 25.6017,17.5632 25.3647,17.6952 L23.8937,18.5262 L23.8937,16.5622 C23.8937,16.2952 23.6777,16.0782 23.4097,16.0782 C23.1417,16.0782 22.9347,16.2952 22.9347,16.5622 L22.9347,18.5452 L21.4107,17.6952 C21.1737,17.5642 20.9037,17.6392 20.7707,17.8692 C20.6357,18.1052 20.7197,18.3942 20.9517,18.5262 L22.9347,19.6432 L22.9347,23.2082 L19.8007,21.4002 L19.8197,19.1672 C19.8447,18.9162 19.6197,18.6832 19.3517,18.6832 L19.3337,18.6832 C19.0827,18.6832 18.8607,18.8982 18.8587,19.1672 L18.8407,20.8472 L17.1537,19.8782 C16.9177,19.7402 16.6267,19.8222 16.5047,20.0492 C16.3757,20.2892 16.4427,20.5722 16.6777,20.7082 L18.3817,21.6942 L16.8937,22.5852 C16.6597,22.6982 16.5867,23.0122 16.7297,23.2422 C16.8207,23.3922 16.9537,23.4682 17.1367,23.4682 C17.2307,23.4682 17.3107,23.4442 17.3867,23.3972 L19.3337,22.2472 L22.4577,24.0382 L19.3337,25.8482 L17.3867,24.6952 C17.1537,24.5592 16.8517,24.6232 16.7297,24.8522 C16.6007,25.0912 16.6707,25.3772 16.8937,25.5102 L18.3817,26.3922 L16.6777,27.3882 C16.4437,27.5242 16.3657,27.8112 16.5047,28.0462 C16.6007,28.2082 16.7297,28.2882 16.9107,28.2882 C16.9537,28.2882 17.0407,28.2632 17.1537,28.2182 L18.8407,27.2482 L18.8587,28.9292 C18.8607,29.1962 19.0827,29.4022 19.3337,29.4022 L19.3517,29.4022 C19.6197,29.4022 19.8207,29.1802 19.8197,28.9102 L19.8007,26.6792 L22.9347,24.8882 L22.9347,28.4332 L20.9517,29.5512 C20.7157,29.6842 20.6327,29.9742 20.7707,30.2082 C20.8657,30.3722 20.9947,30.4522 21.1777,30.4522 C21.2637,30.4522 21.3427,30.4362 21.4107,30.3972 L22.9347,29.5342 L22.9347,31.5502 C22.9347,31.8172 23.1417,32.0262 23.4097,32.0262 C23.6777,32.0262 23.8937,31.8172 23.8937,31.5502 L23.8937,29.5672 L25.3647,30.3972 C25.4327,30.4362 25.5117,30.4522 25.5907,30.4522 C25.7797,30.4522 25.9207,30.3742 26.0147,30.2082 C26.1457,29.9752 26.0617,29.6842 25.8237,29.5512 L23.8937,28.4692 L23.8937,24.8702 L26.9567,26.6432 L26.9407,28.9102 C26.9387,29.1802 27.1487,29.4022 27.4157,29.4022 C27.6847,29.4022 27.8887,29.1962 27.8917,28.9292 L27.9177,27.1882 L29.6487,28.2012 C29.7157,28.2402 29.8047,28.2542 29.9007,28.2542 C30.0807,28.2542 30.2147,28.1782 30.3067,28.0282 C30.4477,27.7972 30.3587,27.5002 30.1337,27.3712 Z" id="Stroke-12" stroke="#DF1E26" stroke-width="0.433"></path>
        </g>
    </g>
</svg>
