<svg viewBox="0 0 95 70" xmlns="http://www.w3.org/2000/svg"><g fill="none" fill-rule="evenodd"><path d="M0 0H95V70H0z"/><path d="M66.721 37.55c1.393 1.201 2.78 2.545 3.965 3.626 1.204 1.098 2.598 2.416 4.022 3.613a1.79 1.79 0 0 0-1.153.51l-.004.004c-.717.691-1.029 2.591-1.062 3.577-.012.335.067.654.228.936h-1.602c-3.752 0-10.86-2.895-10.86-2.895v-9.806h5.297c.446 0 .831.143 1.17.435" fill="#6C6E70"/><path d="M74.188 45.932l-.016.016c-.5.483-.765 2.276-.789 2.963a.849.849 0 0 0 .244.638.843.843 0 0 0 .63.267h1.979c2.117 0-.36-3.81-1.149-4.084a.864.864 0 0 0-.899.2m-17.124-8.737v7.935c0 .986-.805 1.791-1.791 1.791H37.559a1.796 1.796 0 0 1-1.791-1.79v-7.936c0-.986.806-1.79 1.79-1.79h17.715c.986 0 1.79.804 1.79 1.79" fill="#6C6E70"/><path d="M0 69.487L94.209 69.487 94.209 29 0 29z"/><path fill="#6C6E70" d="M59.211 50.975L63.343 50.975 63.343 49.783 59.211 49.783z"/><path fill="#6C6E70" d="M52.631 49.905L56.761 49.905 56.761 48.712 52.631 48.712z"/><path fill="#6C6E70" d="M10.359 50.728L34.411 50.728 34.411 49.536 10.359 49.536z"/><path d="M92.182 54.895c-2.046-1.104-5.847-3.191-6.4-3.746-.228-.226-.284-1.927-.233-3.407 2.95 1.238 5.753 2.649 5.95 3.518.495 1.784.657 2.485.683 3.632v.003zm-90.42-1.736c1.613-.356 3.3-1.532 3.361-2.845v-10.72H2.16c-.183 3.733-.283 8.906-.346 11.71.096.285.147.515.14.68 0 .394-.08.8-.192 1.175" fill="#6C6E70"/><path d="M24.298 64.777h49.02v-1.789h-49.02v1.789zm-18.583.005c-2.126 0-3.524-.817-4.328-1.516-.909-.794-1.274-1.604-1.314-1.693L0 61.218v-5.581l.13-.216c.014-.023.193-.323.371-.755.24-.574.366-1.094.366-1.507.02-.422.044-1.504.076-2.962.098-4.485.263-11.99.616-14.425.681-4.683 1.762-6.77 3.503-6.77L5.766 29h49.025c4.624.239 8.312 2.305 11.016 4.08 1.556 1.022 3.897 3.159 6.375 5.421 2.647 2.416 5.381 4.912 7.091 5.973 1.369.439 12.54 4.115 13.099 6.587.704 2.525.755 2.986.684 5.575a2.663 2.663 0 0 1 1.152 2.242l-.046 3.074a2.693 2.693 0 0 1-2.223 2.606l-.402.061c-.823.111-3.13.158-4.507.158h-2.894v-1.789h2.894c1.733 0 3.685-.065 4.262-.143l.338-.052a.888.888 0 0 0 .741-.868l.046-3.076a.868.868 0 0 0-.551-.841l-.573-.235-.043-.645c.085-2.922.091-3.093-.615-5.629-.654-1.186-9.153-4.557-11.977-5.34l-.223-.097c-1.855-1.121-4.704-3.722-7.461-6.239-2.316-2.116-4.713-4.302-6.149-5.246-3.786-2.484-6.801-3.617-10.08-3.788l-49.678.003c-.015 0-1.007.225-1.735 5.239-.338 2.324-.507 10.054-.599 14.206a182.874 182.874 0 0 1-.075 2.969c0 .609-.169 1.347-.502 2.147-.135.323-.27.59-.365.767v4.878c.112.191.357.555.772.917.861.749 1.985 1.131 3.354 1.073h7.563v1.789H5.941a5.765 5.765 0 0 1-.226.005z" fill="#6C6E70"/><path d="M18.837 59.095a3.94 3.94 0 1 1-.001 7.882 3.94 3.94 0 0 1 .001-7.882m0-3.913a7.598 7.598 0 0 0-5.383 2.238 7.597 7.597 0 0 0-2.236 5.382v1.976H12.624a6.452 6.452 0 0 0 1.651 2.82 6.434 6.434 0 0 0 4.562 1.89 6.43 6.43 0 0 0 4.56-1.89h.002a6.444 6.444 0 0 0 1.652-2.82h1.405v-1.975a7.6 7.6 0 0 0-2.237-5.38l-.002-.002h-.002a7.598 7.598 0 0 0-5.378-2.239m60.09 3.913a3.941 3.941 0 1 0 0 7.882 3.941 3.941 0 0 0 0-7.882zm6.212 5.683a6.433 6.433 0 0 1-1.65 2.82h-.004a6.432 6.432 0 0 1-4.559 1.89 6.434 6.434 0 0 1-4.562-1.89 6.442 6.442 0 0 1-1.65-2.82h-1.408v-1.975c0-2.097.857-4.003 2.237-5.383a7.598 7.598 0 0 1 5.382-2.238h.001c2.092 0 3.996.857 5.378 2.238l.002.001.002.002a7.6 7.6 0 0 1 2.237 5.38v1.975H85.14z" fill="#6C6E70"/><path d="M78.926 61.402a1.633 1.633 0 1 0-.001 3.267 1.633 1.633 0 0 0 .001-3.267m-60.089 0a1.634 1.634 0 1 0 0 3.268 1.634 1.634 0 0 0 0-3.268" fill="#6C6E70"/></g></svg>