<?xml version="1.0" encoding="UTF-8"?>
<svg viewBox="0 0 220 70" version="1.1" xmlns="http://www.w3.org/2000/svg" xmlns:xlink="http://www.w3.org/1999/xlink">
    <!-- Generator: Sketch 52.4 (67378) - http://www.bohemiancoding.com/sketch -->
    <title>hutos</title>
    <desc>Created with Sketch.</desc>
    <defs>
        <polygon id="path-1" points="0 70 219.20907 70 219.20907 0 0 0"></polygon>
    </defs>
    <g id="hutos" stroke="none" stroke-width="1" fill="none" fill-rule="evenodd">
        <g id="hladnjace">
            <polygon id="Fill-1" fill="#5B5C5F" points="60.8067209 32.343907 57.9448605 32.343907 57.9448605 26.3922791 52.3643953 26.3922791 52.3643953 32.343907 49.5041628 32.343907 49.5041628 18.4562326 52.3643953 18.4562326 52.3643953 24.083907 57.9448605 24.083907 57.9448605 18.4562326 60.8067209 18.4562326"></polygon>
            <polygon id="Fill-2" fill="#5B5C5F" points="66.1674186 30.0451395 72.2427674 30.0451395 72.2427674 32.3437442 63.3055581 32.3437442 63.3055581 18.4560698 66.1674186 18.4560698"></polygon>
            <path d="M77.6614186,27.1645581 L81.1337442,27.1645581 L79.3886279,21.9666512 L77.6614186,27.1645581 Z M81.9053721,29.4826977 L76.8881628,29.4826977 L75.9342093,32.3445581 L72.8916512,32.3445581 L78.0618837,18.4552558 L80.7137442,18.4552558 L85.9116512,32.3445581 L82.869093,32.3445581 L81.9053721,29.4826977 Z" id="Fill-3" fill="#5B5C5F"></path>
            <g id="Group-37">
                <path d="M90.0709535,20.7737209 L90.0709535,30.0446512 L91.4546744,30.0446512 C92.5730465,30.0446512 93.4293256,29.68 94.0202558,28.9474419 C94.611186,28.2165116 94.9139767,27.1713953 94.9253721,25.8104651 L94.9253721,25.0762791 C94.9253721,23.6632558 94.6339767,22.5937209 94.0479302,21.8660465 C93.4635116,21.1383721 92.6088605,20.7737209 91.4823488,20.7737209 L90.0709535,20.7737209 Z M87.209093,32.3432558 L87.209093,18.4555814 L91.4823488,18.4555814 C92.7032791,18.4555814 93.7956047,18.7306977 94.7593256,19.2809302 C95.7230465,19.8311628 96.4751395,20.6125581 97.0156047,21.6267442 C97.5560698,22.6409302 97.8263023,23.7934884 97.8263023,25.0844186 L97.8263023,25.724186 C97.8263023,27.0151163 97.5609535,28.1627907 97.0286279,29.1672093 C96.4979302,30.1716279 95.749093,30.9513953 94.7837442,31.5048837 C93.8167674,32.0583721 92.7260698,32.3383721 91.5116512,32.3432558 L87.209093,32.3432558 Z" id="Fill-4" fill="#5B5C5F"></path>
                <polygon id="Fill-6" fill="#5B5C5F" points="111.198744 32.343907 108.336884 32.343907 102.766186 23.2064651 102.766186 32.343907 99.9059535 32.343907 99.9059535 18.4562326 102.766186 18.4562326 108.346651 27.6132093 108.346651 18.4562326 111.198744 18.4562326"></polygon>
                <path d="M119.29693,18.455907 L122.158791,18.455907 L122.158791,28.0703256 C122.158791,28.9542791 121.963442,29.7356744 121.571116,30.4128837 C121.180419,31.090093 120.628558,31.6126512 119.917163,31.982186 C119.20414,32.350093 118.399953,32.5340465 117.502977,32.5340465 C116.034605,32.5340465 114.890186,32.1612558 114.069721,31.4140465 C113.249256,30.6668372 112.839023,29.6103256 112.839023,28.2428837 L115.720419,28.2428837 C115.720419,28.9233488 115.863674,29.4247442 116.148558,29.7486977 C116.43507,30.0742791 116.887628,30.2354419 117.502977,30.2354419 C118.049953,30.2354419 118.486233,30.0482326 118.810186,29.673814 C119.13414,29.2977674 119.29693,28.763814 119.29693,28.0703256 L119.29693,18.455907 Z" id="Fill-8" fill="#5B5C5F"></path>
                <path d="M127.99614,27.1645581 L131.468465,27.1645581 L129.723349,21.9666512 L127.99614,27.1645581 Z M132.240093,29.4826977 L127.222884,29.4826977 L126.26893,32.3445581 L123.226372,32.3445581 L128.396605,18.4552558 L131.048465,18.4552558 L136.246372,32.3445581 L133.203814,32.3445581 L132.240093,29.4826977 Z" id="Fill-10" fill="#5B5C5F"></path>
                <path d="M142.666349,16.0140465 L144.058209,14.6498605 L146.415419,14.6498605 L146.415419,14.7556744 L143.534023,17.4352093 L141.788907,17.4352093 L138.907512,14.7361395 L138.907512,14.6498605 L141.264721,14.6498605 L142.666349,16.0140465 Z M148.246814,27.7170698 C148.137744,29.2114884 147.585884,30.3884651 146.591233,31.2463721 C145.596581,32.105907 144.284488,32.5340465 142.656581,32.5340465 C140.875651,32.5340465 139.475651,31.9349767 138.454953,30.7368372 C137.434256,29.5386977 136.924721,27.8928837 136.924721,25.8010233 L136.924721,24.9512558 C136.924721,23.6163721 137.15914,22.4393953 137.629605,21.4219535 C138.10007,20.4045116 138.772395,19.6247442 139.648209,19.0810233 C140.522395,18.5373023 141.538209,18.2654419 142.695651,18.2654419 C144.297512,18.2654419 145.588442,18.6935814 146.566814,19.5531163 C147.546814,20.4110233 148.113326,21.6156744 148.264721,23.1686977 L145.404488,23.1686977 C145.334488,22.2717209 145.083791,21.6205581 144.655651,21.2168372 C144.225884,20.8131163 143.573093,20.6112558 142.695651,20.6112558 C141.741698,20.6112558 141.027047,20.9531163 140.553326,21.6368372 C140.079605,22.3205581 139.837047,23.3803256 139.824023,24.8177674 L139.824023,25.8677674 C139.824023,27.3686977 140.05193,28.4642791 140.506116,29.1577674 C140.960302,29.8512558 141.678209,30.198 142.656581,30.198 C143.540535,30.198 144.199837,29.9961395 144.636116,29.5924186 C145.072395,29.1886977 145.321465,28.5635814 145.384953,27.7170698 L148.246814,27.7170698 Z" id="Fill-12" fill="#5B5C5F"></path>
                <polygon id="Fill-14" fill="#5B5C5F" points="158.48114 26.306 152.986953 26.306 152.986953 30.0453023 159.435093 30.0453023 159.435093 32.343907 150.125093 32.343907 150.125093 18.4562326 159.415558 18.4562326 159.415558 20.7743721 152.986953 20.7743721 152.986953 24.083907 158.48114 24.083907"></polygon>
                <polygon id="Fill-16" fill="#6D6E70" points="7.99367442 47.7891628 7.99367442 56.2835814 9.06646512 56.2835814 6.49437209 58.5626512 6.49437209 57.1105581 4.27065116 57.1105581 4.27065116 62.7675349 6.49437209 62.7675349 6.49437209 61.2047442 10.766 58.3591628 17.6846047 58.3591628 20.4406512 54.7973023 82.0634419 54.9177674 84.6973953 51.2468372 181.357628 51.2468372 181.357628 47.7891628 84.6973953 47.7891628"></polygon>
                <mask id="mask-2" fill="white">
                    <use xlink:href="#path-1"></use>
                </mask>
                <g id="Clip-19"></g>
                <polygon id="Fill-18" fill="#6D6E70" mask="url(#mask-2)" points="145.915814 61.4974419 147.835116 61.4974419 147.835116 46.602093 145.915814 46.602093"></polygon>
                <polygon id="Fill-20" fill="#6D6E70" mask="url(#mask-2)" points="108.644884 61.4974419 110.564186 61.4974419 110.564186 46.602093 108.644884 46.602093"></polygon>
                <polygon id="Fill-21" fill="#6D6E70" mask="url(#mask-2)" points="104.944651 63.1823256 151.818605 63.1823256 151.818605 59.2476744 104.944651 59.2476744"></polygon>
                <polygon id="Fill-22" fill="#6D6E70" mask="url(#mask-2)" points="104.944651 56.1725581 151.818605 56.1725581 151.818605 52.237907 104.944651 52.237907"></polygon>
                <path d="M1.91930233,46.8348837 L206.218372,46.8348837 L206.218372,1.91116279 L1.91930233,1.91116279 L1.91930233,46.8348837 Z M0.00162790698,48.7444186 L208.139302,48.7444186 L208.139302,0 L0.00162790698,0 L0.00162790698,48.7444186 Z" id="Fill-23" fill="#6D6E70" mask="url(#mask-2)"></path>
                <path d="M28.9116279,55.2076977 C26.2255814,55.2076977 24.0474419,57.3760698 24.0474419,60.0507209 C24.0474419,62.7237442 26.2255814,64.8937442 28.9116279,64.8937442 C31.5976744,64.8937442 33.7774419,62.7237442 33.7774419,60.0507209 C33.7774419,57.3760698 31.5976744,55.2076977 28.9116279,55.2076977 Z M40.162093,61.0063023 L39.2016279,61.0063023 L38.8613953,61.0063023 C38.6351163,63.3700233 37.5753488,65.492814 35.9816279,67.0816512 L35.9816279,67.084907 C34.1713953,68.8853721 31.6725581,69.9988605 28.9116279,69.9988605 C26.1523256,69.9988605 23.6534884,68.8853721 21.8432558,67.084907 C20.247907,65.4960698 19.1881395,63.3732791 18.9634884,61.0063023 L17.6611628,61.0063023 L16.7006977,61.0063023 L16.7006977,60.0507209 C16.7006977,56.5572326 17.7930233,53.3942093 20.037907,51.159093 L20.0411628,51.1558372 L20.0427907,51.1542093 C20.8909302,50.3093256 21.9002326,49.601186 23.0739535,49.0639767 L34.755814,49.0639767 C35.927907,49.601186 36.9388372,50.3093256 37.7853488,51.1542093 L37.7853488,51.1574651 C38.8223256,52.1895581 39.6102326,53.417 40.162093,54.7844419 L40.162093,61.0063023 Z" id="Fill-24" fill="#6D6E70" mask="url(#mask-2)"></path>
                <path d="M28.9116279,57.4055349 C27.4448837,57.4055349 26.2548837,58.5906512 26.2548837,60.0508837 C26.2548837,61.5111163 27.4448837,62.6962326 28.9116279,62.6962326 C30.38,62.6962326 31.57,61.5111163 31.57,60.0508837 C31.57,58.5906512 30.38,57.4055349 28.9116279,57.4055349" id="Fill-25" fill="#6D6E70" mask="url(#mask-2)"></path>
                <path d="M51.4128837,55.2076977 C48.7268372,55.2076977 46.5486977,57.3760698 46.5486977,60.0507209 C46.5486977,62.7237442 48.7268372,64.8937442 51.4128837,64.8937442 C54.0989302,64.8937442 56.2770698,62.7237442 56.2770698,60.0507209 C56.2770698,57.3760698 54.0989302,55.2076977 51.4128837,55.2076977 Z M62.6617209,61.0063023 L61.7012558,61.0063023 L61.3626512,61.0063023 C61.1363721,63.3700233 60.0766047,65.492814 58.4812558,67.0816512 L58.4812558,67.084907 C56.6726512,68.8853721 54.172186,69.9988605 51.4128837,69.9988605 C48.6535814,69.9988605 46.1531163,68.8853721 44.3428837,67.084907 C42.7475349,65.4960698 41.6877674,63.3732791 41.4631163,61.0063023 L40.1624186,61.0063023 L39.2019535,61.0063023 L39.2019535,60.0507209 C39.2019535,56.5572326 40.2942791,53.3942093 42.5391628,51.159093 L42.5407907,51.1558372 L42.5424186,51.1542093 C43.392186,50.3093256 44.4014884,49.601186 45.5735814,49.0639767 L57.2570698,49.0639767 C58.4291628,49.601186 59.4384651,50.3093256 60.2866047,51.1542093 L60.2866047,51.1574651 C61.3219535,52.1895581 62.1114884,53.417 62.6617209,54.7844419 L62.6617209,61.0063023 Z" id="Fill-26" fill="#6D6E70" mask="url(#mask-2)"></path>
                <path d="M51.4128837,57.4055349 C49.9461395,57.4055349 48.7545116,58.5906512 48.7545116,60.0508837 C48.7545116,61.5111163 49.9461395,62.6962326 51.4128837,62.6962326 C52.8796279,62.6962326 54.0712558,61.5111163 54.0712558,60.0508837 C54.0712558,58.5906512 52.8796279,57.4055349 51.4128837,57.4055349" id="Fill-27" fill="#6D6E70" mask="url(#mask-2)"></path>
                <path d="M73.9126744,55.2076977 C76.5987209,55.2076977 78.7768605,57.3760698 78.7768605,60.0507209 C78.7768605,62.7237442 76.5987209,64.8937442 73.9126744,64.8937442 C71.2266279,64.8937442 69.0484884,62.7237442 69.0484884,60.0507209 C69.0484884,57.3760698 71.2266279,55.2076977 73.9126744,55.2076977 Z M62.6622093,61.0063023 L63.6243023,61.0063023 L63.962907,61.0063023 C64.189186,63.3700233 65.2505814,65.492814 66.8443023,67.0816512 L66.8443023,67.084907 C68.652907,68.8853721 71.1533721,69.9988605 73.9126744,69.9988605 C76.6719767,69.9988605 79.1724419,68.8853721 80.9810465,67.084907 C82.5763953,65.4960698 83.6361628,63.3732791 83.8624419,61.0063023 L85.1631395,61.0063023 L86.1236047,61.0063023 L86.1236047,60.0507209 C86.1236047,56.5572326 85.0312791,53.3942093 82.7863953,51.159093 L82.7847674,51.1558372 L82.7831395,51.1542093 C81.9333721,50.3093256 80.9240698,49.601186 79.7519767,49.0639767 L68.0684884,49.0639767 C66.8963953,49.601186 65.887093,50.3093256 65.0389535,51.1542093 L65.0389535,51.1574651 C64.0036047,52.1895581 63.2140698,53.417 62.6622093,54.7844419 L62.6622093,61.0063023 Z" id="Fill-28" fill="#6D6E70" mask="url(#mask-2)"></path>
                <path d="M73.9126744,57.4055349 C75.3794186,57.4055349 76.5710465,58.5906512 76.5710465,60.0508837 C76.5710465,61.5111163 75.3794186,62.6962326 73.9126744,62.6962326 C72.4459302,62.6962326 71.2543023,61.5111163 71.2543023,60.0508837 C71.2543023,58.5906512 72.4459302,57.4055349 73.9126744,57.4055349" id="Fill-29" fill="#6D6E70" mask="url(#mask-2)"></path>
                <g id="Group-32" mask="url(#mask-2)">
                    <g transform="translate(169.302326, 50.465116)">
                        <path d="M1.12911628,0.455813953 L1.12911628,17.5390698" id="Fill-30" stroke="none" fill="#6D6E70" fill-rule="evenodd"></path>
                        <path d="M1.12911628,0.455813953 L1.12911628,17.5390698" id="Stroke-31" stroke="#6D6E70" stroke-width="1.315" fill="none"></path>
                    </g>
                </g>
                <polygon id="Stroke-33" stroke="#6D6E70" stroke-width="1.315" mask="url(#mask-2)" points="207.481628 27.7460465 218.139535 27.7460465 218.139535 5.83116279 207.481628 5.83116279"></polygon>
                <path d="M207.482116,9.65739535 L218.140023,9.65739535" id="Stroke-34" stroke="#6D6E70" stroke-width="1.315" mask="url(#mask-2)"></path>
                <path d="M207.482116,13.1357442 L218.140023,13.1357442" id="Stroke-35" stroke="#6D6E70" stroke-width="1.315" mask="url(#mask-2)"></path>
                <path d="M207.482116,16.614907 L218.140023,16.614907" id="Stroke-36" stroke="#6D6E70" stroke-width="1.315" mask="url(#mask-2)"></path>
            </g>
        </g>
    </g>
</svg>
