<?xml version="1.0" encoding="UTF-8"?>
<svg viewBox="0 0 40 40" version="1.1" xmlns="http://www.w3.org/2000/svg" xmlns:xlink="http://www.w3.org/1999/xlink">
    <!-- Generator: Sketch 52.4 (67378) - http://www.bohemiancoding.com/sketch -->
    <title>instagram</title>
    <desc>Created with Sketch.</desc>
    <g id="Page-1" stroke="none" stroke-width="1" fill="none" fill-rule="evenodd">
        <g id="instagram">
            <polygon id="Fill-1" fill="#232020" points="0 40 40 40 40 0 0 0"></polygon>
            <path d="M14.2662504,8.6105506 C10.8231186,8.6105506 8.021784,11.2769358 8.021784,14.5542008 L8.021784,24.5174466 C8.021784,27.7947115 10.8231186,30.4610967 14.2662504,30.4610967 L24.7333991,30.4610967 C28.1768814,30.4610967 30.978216,27.7947115 30.978216,24.5174466 L30.978216,14.5542008 C30.978216,11.2769358 28.1768814,8.6105506 24.7333991,8.6105506 L14.2662504,8.6105506 Z M24.7333991,32.3854848 L14.2662504,32.3854848 C9.70812291,32.3854848 6,28.8556606 6,24.5174466 L6,14.5542008 C6,10.2159867 9.70812291,6.68649613 14.2662504,6.68649613 L24.7333991,6.68649613 C29.2918771,6.68649613 33,10.2159867 33,14.5542008 L33,24.5174466 C33,28.8556606 29.2918771,32.3854848 24.7333991,32.3854848 Z" id="Fill-14" fill="#FFFFFF"></path>
            <path d="M19.9998204,15.3687463 C17.3100413,15.3687463 15.1217891,17.4515563 15.1217891,20.0120687 C15.1217891,22.5722391 17.3100413,24.655049 19.9998204,24.655049 C22.6895994,24.655049 24.8782109,22.5722391 24.8782109,20.0120687 C24.8782109,17.4515563 22.6895994,15.3687463 19.9998204,15.3687463 Z M19.9998204,26.6745985 C16.1399317,26.6745985 13,23.6856243 13,20.0120687 C13,16.3381711 16.1399317,13.3491969 19.9998204,13.3491969 C23.859709,13.3491969 27,16.3381711 27,20.0120687 C27,23.6856243 23.859709,26.6745985 19.9998204,26.6745985 Z" id="Fill-15" fill="#FFFFFF"></path>
            <path d="M28,12.8732897 C28,13.6618716 27.3285038,14.3010113 26.5,14.3010113 C25.6714962,14.3010113 25,13.6618716 25,12.8732897 C25,12.0847078 25.6714962,11.4455681 26.5,11.4455681 C27.3285038,11.4455681 28,12.0847078 28,12.8732897" id="Fill-16" fill="#FFFFFF"></path>
        </g>
    </g>
</svg>
