<?xml version="1.0" encoding="UTF-8"?>
<svg viewBox="0 0 97 70" version="1.1" xmlns="http://www.w3.org/2000/svg" xmlns:xlink="http://www.w3.org/1999/xlink">
    <!-- Generator: Sketch 52.4 (67378) - http://www.bohemiancoding.com/sketch -->
    <title>kisteherauto</title>
    <desc>Created with Sketch.</desc>
    <g id="kisteherauto" stroke="none" stroke-width="1" fill="none" fill-rule="evenodd">
        <g>
            <rect id="box" x="0" y="0" width="97" height="70"></rect>
            <path d="M1.7913,54.6594 L55.9013,54.6594 L55.9013,26.6854 C55.9013,26.5644 55.8793,26.4494 55.8333,26.3424 C55.7863,26.2334 55.7223,26.1364 55.6383,26.0544 C55.5563,25.9724 55.4583,25.9044 55.3543,25.8614 C55.2423,25.8144 55.1253,25.7894 55.0073,25.7894 L2.6873,25.7894 C2.1923,25.7894 1.7913,26.1924 1.7913,26.6854 L1.7913,54.6594 Z M57.6923,56.4494 L0.0003,56.4494 L0.0003,26.6854 C0.0003,25.2054 1.2053,24.0004 2.6873,24.0004 L55.0073,24.0004 C55.3653,24.0004 55.7173,24.0704 56.0513,24.2124 C56.3733,24.3474 56.6603,24.5434 56.9073,24.7904 C57.1513,25.0344 57.3463,25.3224 57.4803,25.6414 C57.6203,25.9684 57.6923,26.3224 57.6923,26.6854 L57.6923,56.4494 Z" id="Fill-1" fill="#6C6E70"></path>
            <polygon id="Clip-4" points="0 69.4154 96.093 69.4154 96.093 24.0004 0 24.0004"></polygon>
            <polygon id="Fill-3" fill="#6C6E70" points="0.896 47.8584 56.797 47.8584 56.797 46.6664 0.896 46.6664"></polygon>
            <polygon id="Fill-5" fill="#6C6E70" points="49.244 48.9384 50.439 48.9384 50.439 45.5844 49.244 45.5844"></polygon>
            <path d="M49.8411,44.5813 C49.2871,44.5813 48.8381,45.0313 48.8381,45.5843 C48.8381,46.1393 49.2871,46.5883 49.8411,46.5883 C50.3961,46.5883 50.8441,46.1393 50.8441,45.5843 C50.8441,45.0313 50.3961,44.5813 49.8411,44.5813" id="Fill-6" fill="#6C6E70"></path>
            <path d="M49.8411,47.9363 C49.2871,47.9363 48.8381,48.3853 48.8381,48.9393 C48.8381,49.4933 49.2871,49.9433 49.8411,49.9433 C50.3961,49.9433 50.8441,49.4933 50.8441,48.9393 C50.8441,48.3853 50.3961,47.9363 49.8411,47.9363" id="Fill-7" fill="#6C6E70"></path>
            <polygon id="Fill-8" fill="#6C6E70" points="40.846 48.9384 42.04 48.9384 42.04 45.5844 40.846 45.5844"></polygon>
            <path d="M41.4436,44.5813 C40.8886,44.5813 40.4396,45.0313 40.4396,45.5843 C40.4396,46.1393 40.8886,46.5883 41.4436,46.5883 C41.9976,46.5883 42.4466,46.1393 42.4466,45.5843 C42.4466,45.0313 41.9976,44.5813 41.4436,44.5813" id="Fill-9" fill="#6C6E70"></path>
            <path d="M41.4436,47.9363 C40.8886,47.9363 40.4396,48.3853 40.4396,48.9393 C40.4396,49.4933 40.8886,49.9433 41.4436,49.9433 C41.9976,49.9433 42.4466,49.4933 42.4466,48.9393 C42.4466,48.3853 41.9976,47.9363 41.4436,47.9363" id="Fill-10" fill="#6C6E70"></path>
            <polygon id="Fill-11" fill="#6C6E70" points="32.449 48.9384 33.643 48.9384 33.643 45.5844 32.449 45.5844"></polygon>
            <path d="M33.0452,44.5813 C32.4912,44.5813 32.0422,45.0313 32.0422,45.5843 C32.0422,46.1393 32.4912,46.5883 33.0452,46.5883 C33.5992,46.5883 34.0482,46.1393 34.0482,45.5843 C34.0482,45.0313 33.5992,44.5813 33.0452,44.5813" id="Fill-12" fill="#6C6E70"></path>
            <path d="M33.0452,47.9363 C32.4912,47.9363 32.0422,48.3853 32.0422,48.9393 C32.0422,49.4933 32.4912,49.9433 33.0452,49.9433 C33.5992,49.9433 34.0482,49.4933 34.0482,48.9393 C34.0482,48.3853 33.5992,47.9363 33.0452,47.9363" id="Fill-13" fill="#6C6E70"></path>
            <polygon id="Fill-14" fill="#6C6E70" points="24.049 48.9384 25.244 48.9384 25.244 45.5844 24.049 45.5844"></polygon>
            <path d="M24.6478,44.5813 C24.0938,44.5813 23.6438,45.0313 23.6438,45.5843 C23.6438,46.1393 24.0938,46.5883 24.6478,46.5883 C25.2018,46.5883 25.6508,46.1393 25.6508,45.5843 C25.6508,45.0313 25.2018,44.5813 24.6478,44.5813" id="Fill-15" fill="#6C6E70"></path>
            <path d="M24.6478,47.9363 C24.0938,47.9363 23.6438,48.3853 23.6438,48.9393 C23.6438,49.4933 24.0938,49.9433 24.6478,49.9433 C25.2018,49.9433 25.6508,49.4933 25.6508,48.9393 C25.6508,48.3853 25.2018,47.9363 24.6478,47.9363" id="Fill-16" fill="#6C6E70"></path>
            <polygon id="Fill-17" fill="#6C6E70" points="15.653 48.9384 16.847 48.9384 16.847 45.5844 15.653 45.5844"></polygon>
            <path d="M16.2493,44.5813 C15.6953,44.5813 15.2453,45.0313 15.2453,45.5843 C15.2453,46.1393 15.6953,46.5883 16.2493,46.5883 C16.8033,46.5883 17.2533,46.1393 17.2533,45.5843 C17.2533,45.0313 16.8033,44.5813 16.2493,44.5813" id="Fill-18" fill="#6C6E70"></path>
            <path d="M16.2493,47.9363 C15.6953,47.9363 15.2453,48.3853 15.2453,48.9393 C15.2453,49.4933 15.6953,49.9433 16.2493,49.9433 C16.8033,49.9433 17.2533,49.4933 17.2533,48.9393 C17.2533,48.3853 16.8033,47.9363 16.2493,47.9363" id="Fill-19" fill="#6C6E70"></path>
            <polygon id="Fill-20" fill="#6C6E70" points="7.255 48.9384 8.449 48.9384 8.449 45.5844 7.255 45.5844"></polygon>
            <path d="M7.8519,44.5813 C7.2969,44.5813 6.8479,45.0313 6.8479,45.5843 C6.8479,46.1393 7.2969,46.5883 7.8519,46.5883 C8.4059,46.5883 8.8549,46.1393 8.8549,45.5843 C8.8549,45.0313 8.4059,44.5813 7.8519,44.5813" id="Fill-21" fill="#6C6E70"></path>
            <path d="M7.8519,47.9363 C7.2969,47.9363 6.8479,48.3853 6.8479,48.9393 C6.8479,49.4933 7.2969,49.9433 7.8519,49.9433 C8.4059,49.9433 8.8549,49.4933 8.8549,48.9393 C8.8549,48.3853 8.4059,47.9363 7.8519,47.9363" id="Fill-22" fill="#6C6E70"></path>
            <path d="M19.1731,59.0237 C16.9971,59.0237 15.2331,60.7887 15.2331,62.9647 C15.2331,65.1407 16.9971,66.9057 19.1731,66.9057 C21.3491,66.9057 23.1131,65.1407 23.1131,62.9647 C23.1131,60.7887 21.3491,59.0237 19.1731,59.0237 Z M41.3641,60.5857 L41.4841,62.3687 L25.6081,63.4307 C25.4941,65.0257 24.8001,66.4617 23.7351,67.5257 L23.7321,67.5257 C22.5651,68.6927 20.9511,69.4157 19.1731,69.4157 C17.3921,69.4157 15.7781,68.6927 14.6111,67.5257 C13.4441,66.3587 12.7231,64.7457 12.7231,62.9647 C12.7231,61.1857 13.4451,59.5727 14.6111,58.4057 L14.6111,58.4017 C15.7781,57.2357 17.3921,56.5137 19.1731,56.5137 C20.9511,56.5137 22.5651,57.2357 23.7321,58.4017 L23.7351,58.4057 C24.6061,59.2767 25.2291,60.3967 25.4891,61.6477 L41.3641,60.5857 Z" id="Fill-23" fill="#6C6E70"></path>
            <path d="M88.9134,64.7048 L86.0044,64.7048 L86.0044,62.9158 L88.9134,62.9158 C90.6884,62.9158 92.6014,62.8518 93.1734,62.7738 L93.5134,62.7208 C93.9434,62.6468 94.2484,62.2908 94.2544,61.8548 L94.3014,58.7758 C94.3074,58.3978 94.1004,58.0808 93.7464,57.9348 L93.1774,57.6988 L93.1344,57.0568 C93.2204,54.1328 93.2254,53.9628 92.5194,51.4288 C91.8654,50.2398 83.3654,46.8698 80.5414,46.0858 L80.3184,45.9898 C78.4644,44.8688 75.6134,42.2678 72.8574,39.7498 C71.9654,38.9358 71.0824,38.1298 70.2484,37.3878 C67.5174,34.9568 63.2954,33.6648 57.6924,33.5418 L57.6924,62.9158 L75.6144,62.9158 L75.6144,64.7048 L55.9014,64.7048 L55.9014,31.7428 L56.7974,31.7428 C63.3004,31.7428 68.2264,33.1928 71.4384,36.0508 C72.2774,36.7968 73.1674,37.6078 74.0644,38.4278 C76.7114,40.8438 79.4464,43.3408 81.1564,44.4018 C82.5264,44.8398 93.6974,48.5168 94.2554,50.9908 C94.9594,53.5168 95.0104,53.9758 94.9394,56.5698 C95.6824,57.0898 96.1054,57.9088 96.0924,58.8058 L96.0454,61.8818 C96.0264,63.1688 95.0904,64.2648 93.8194,64.4848 L93.4194,64.5468 C92.6624,64.6498 90.5334,64.7048 88.9134,64.7048" id="Fill-24" fill="#6C6E70"></path>
            <path d="M68.6048,37.4788 C69.9978,38.6798 71.3838,40.0238 72.5698,41.1048 C73.7728,42.2028 75.1678,43.5208 76.5918,44.7178 C76.1708,44.7388 75.7648,44.9138 75.4388,45.2268 L75.4338,45.2318 C74.7168,45.9228 74.4068,47.8228 74.3728,48.8078 C74.3608,49.1428 74.4398,49.4628 74.5998,49.7448 L72.9978,49.7448 C69.2468,49.7448 62.1398,46.8498 62.1398,46.8498 L62.1398,37.0438 L67.4358,37.0438 C67.8818,37.0438 68.2668,37.1868 68.6048,37.4788" id="Fill-25" fill="#6C6E70"></path>
            <path d="M76.0726,45.8601 L76.0556,45.8761 C75.5556,46.3581 75.2906,48.1521 75.2666,48.8391 C75.2586,49.0851 75.3406,49.3011 75.5106,49.4771 C75.6816,49.6551 75.8936,49.7441 76.1406,49.7441 L78.1206,49.7441 C80.2366,49.7441 77.7596,45.9341 76.9696,45.6601 C76.6506,45.5481 76.3156,45.6261 76.0726,45.8601" id="Fill-26" fill="#6C6E70"></path>
            <path d="M80.8099,59.0237 C78.6329,59.0237 76.8689,60.7887 76.8689,62.9647 C76.8689,65.1407 78.6329,66.9057 80.8099,66.9057 C82.9859,66.9057 84.7499,65.1407 84.7499,62.9647 C84.7499,60.7887 82.9859,59.0237 80.8099,59.0237 Z M80.8099,55.1107 C82.9009,55.1107 84.8059,55.9677 86.1879,57.3477 L86.1899,57.3497 L86.1919,57.3517 C87.5719,58.7337 88.4279,60.6377 88.4279,62.7307 L88.4279,63.8117 L88.4279,64.7057 L87.5339,64.7057 L87.0229,64.7057 C86.7209,65.7877 86.1439,66.7547 85.3719,67.5257 L85.3689,67.5257 C84.2019,68.6927 82.5879,69.4157 80.8099,69.4157 C79.0289,69.4157 77.4149,68.6927 76.2479,67.5257 C75.4759,66.7547 74.8999,65.7877 74.5969,64.7057 L74.0849,64.7057 L73.1899,64.7057 L73.1899,63.8117 L73.1899,62.7307 C73.1899,60.6347 74.0469,58.7277 75.4269,57.3477 C76.8069,55.9677 78.7139,55.1107 80.8089,55.1107 L80.8099,55.1107 Z" id="Fill-27" fill="#6C6E70"></path>
            <path d="M80.8099,61.3308 C79.9079,61.3308 79.1759,62.0618 79.1759,62.9648 C79.1759,63.8678 79.9079,64.5988 80.8099,64.5988 C81.7119,64.5988 82.4439,63.8678 82.4439,62.9648 C82.4439,62.0618 81.7119,61.3308 80.8099,61.3308" id="Fill-28" fill="#6C6E70"></path>
            <path d="M15.6429,55.5535 L9.4799,55.5535 L7.0119,55.5535 L7.0119,63.2385 L9.4799,63.2385 L9.4799,60.5285 L11.9529,60.5285 C12.1189,59.3655 12.4769,58.5255 13.1109,57.0555 C13.6219,56.1175 14.5749,55.5535 15.6429,55.5535 Z M56.7979,55.5535 L48.7099,55.5535 L40.6239,55.5535 L32.5379,55.5535 L22.7049,55.5535 C23.7739,55.5535 24.7249,56.1175 25.2369,57.0555 C25.8709,58.5255 26.2289,59.3655 26.3959,60.5285 L32.5389,60.5285 L40.6239,63.5125 L48.7109,63.5125 L56.7979,63.5125 L56.7979,62.7395 L56.7979,55.5535 Z" id="Fill-29" fill="#6C6E70"></path>
            <path d="M13.1106,57.0559 C12.1736,59.2299 11.8376,60.0279 11.8376,62.5279 L14.6316,62.5279 C14.8516,60.2139 16.8016,58.4029 19.1726,58.4029 C21.5446,58.4029 23.4946,60.2139 23.7146,62.5279 L26.5096,62.5279 C26.5096,60.0279 26.1736,59.2299 25.2366,57.0559 C24.7246,56.1179 23.7736,55.5539 22.7046,55.5539 L19.1736,55.5539 L15.6426,55.5539 C14.5746,55.5539 13.6226,56.1179 13.1106,57.0559" id="Fill-30" fill="#6C6E70"></path>
            <path d="M24.2288,61.9309 L25.9058,61.9309 C25.8548,59.9979 25.5238,59.2309 24.6898,57.2909 C24.3068,56.5969 23.5548,56.1499 22.7058,56.1499 L15.6428,56.1499 C14.7928,56.1499 14.0408,56.5969 13.6338,57.3409 C12.8208,59.2349 12.4928,59.9979 12.4418,61.9309 L14.1188,61.9309 C14.5968,59.5429 16.6828,57.8059 19.1728,57.8059 C21.6648,57.8059 23.7498,59.5429 24.2288,61.9309 Z M27.1078,63.1239 L23.1708,63.1239 L23.1198,62.5829 C22.9258,60.5409 21.2298,58.9979 19.1728,58.9979 C17.1178,58.9979 15.4208,60.5409 15.2268,62.5829 L15.1748,63.1239 L11.2398,63.1239 L11.2398,62.5279 C11.2398,59.8869 11.6268,58.9909 12.5628,56.8189 C13.2068,55.6339 14.3488,54.9569 15.6428,54.9569 L22.7058,54.9569 C23.9998,54.9569 25.1418,55.6339 25.7608,56.7689 C26.7198,58.9909 27.1078,59.8889 27.1078,62.5279 L27.1078,63.1239 Z" id="Fill-31" fill="#6C6E70"></path>
            <path d="M19.1731,61.3308 C18.2711,61.3308 17.5391,62.0618 17.5391,62.9648 C17.5391,63.8678 18.2711,64.5988 19.1731,64.5988 C20.0751,64.5988 20.8081,63.8678 20.8081,62.9648 C20.8081,62.0618 20.0751,61.3308 19.1731,61.3308" id="Fill-32" fill="#6C6E70"></path>
            <polygon id="Fill-33" fill="#6C6E70" points="11.24 66.9954 12.434 66.9954 12.434 62.5274 11.24 62.5274"></polygon>
            <polygon id="Fill-34" fill="#6C6E70" points="61.095 50.9024 65.227 50.9024 65.227 49.7094 61.095 49.7094"></polygon>
            <path d="M94.0647,54.823 C92.0197,53.719 88.2187,51.632 87.6637,51.077 C87.4377,50.851 87.3817,49.15 87.4327,47.67 C90.3817,48.908 93.1847,50.319 93.3817,51.188 C93.8777,52.972 94.0387,53.673 94.0647,54.82 L94.0647,54.823 Z" id="Fill-35" fill="#6C6E70"></path>
        </g>
    </g>
</svg>
