<?xml version="1.0" encoding="UTF-8"?>
<svg viewBox="0 0 141 70" version="1.1" xmlns="http://www.w3.org/2000/svg" xmlns:xlink="http://www.w3.org/1999/xlink">
    <!-- Generator: Sketch 52.4 (67378) - http://www.bohemiancoding.com/sketch -->
    <title>kommunalis</title>
    <desc>Created with Sketch.</desc>
    <defs>
        <polygon id="path-1" points="0 69.3057463 140.932435 69.3057463 140.932435 0.00052238806 0 0.00052238806"></polygon>
    </defs>
    <g id="kommunalis" stroke="none" stroke-width="1" fill="none" fill-rule="evenodd">
        <g>
            <path d="M134.309104,62.4487761 L126.869098,62.4487761 L126.600358,62.2001194 C126.168493,61.7989254 125.74813,61.4541493 125.340315,61.1563881 L126.441415,59.6435522 C126.817859,59.9172836 127.201623,60.2275821 127.597936,60.5775821 L134.064415,60.5775821 L139.061715,59.2402687 L139.061715,52.294597 L137.410588,47.5241493 L139.061715,47.5241493 L139.061715,38.6895224 C139.061715,35.3869851 136.900296,28.382806 135.322367,23.2665373 C134.805801,21.5896716 134.338383,20.0768358 134.005857,18.8899701 C133.377404,16.6531045 129.655832,15.4223582 123.521879,15.4223582 L109.934326,15.4223582 L109.934326,44.6008657 L108.063606,44.6008657 L108.063606,13.5511642 L123.521879,13.5511642 C130.775754,13.5511642 134.909323,15.1768358 135.808607,18.3853433 C136.136951,19.5607164 136.599141,21.0568358 137.111523,22.7159403 C138.814935,28.2365373 140.932435,35.1059403 140.932435,38.6895224 L140.932435,49.3953433 L140.038379,49.3953433 L140.932435,52.1378806 L140.932435,60.675791 L134.309104,62.4487761 Z" id="Fill-1" fill="#6C6E70"></path>
            <path d="M139.727394,36.0457164 C138.943135,31.4110896 136.634276,24.4487015 135.325085,20.0731791 L133.09988,20.0731791 L136.335211,35.1973582 C136.335211,35.1973582 137.925689,35.3791493 139.727394,36.0457164" id="Fill-3" fill="#6C6E70"></path>
            <path d="M116.001565,54.8313134 C113.382139,54.8313134 111.25941,56.9532537 111.25941,59.5693731 C111.25941,62.1875821 113.382139,64.3084776 116.001565,64.3084776 C118.619945,64.3084776 120.743719,62.1875821 120.743719,59.5693731 C120.743719,56.9532537 118.619945,54.8313134 116.001565,54.8313134 Z M106.161725,61.5137015 L106.161725,56.4078806 C106.161725,51.5287761 110.155173,47.5387761 115.037449,47.5387761 L116.699033,47.5387761 C122.494186,47.5387761 127.235294,52.275791 127.235294,58.0669851 L127.235294,61.5137015 L125.550705,61.5137015 C125.163804,63.4204179 124.216419,65.1265373 122.891544,66.4502687 L122.891544,66.4544478 C121.128529,68.2148955 118.691051,69.3056418 116.001565,69.3056418 C113.31417,69.3056418 110.877738,68.2148955 109.112631,66.4523582 L109.11054,66.4544478 C107.784619,65.1286269 106.83828,63.4235522 106.451378,61.5137015 L106.161725,61.5137015 Z" id="Fill-5" fill="#6C6E70"></path>
            <path d="M127.860401,60.8887164 L129.013785,60.8887164 L129.013785,56.2603582 C129.013785,50.0846866 122.635143,44.0228955 116.13834,44.0228955 L114.209062,44.0228955 C108.904332,44.0228955 103.890301,49.032597 103.890301,54.3317015 L103.890301,60.8887164 L105.537246,60.8887164 L105.537246,56.4087164 C105.537246,51.1733433 109.800479,46.913791 115.03724,46.913791 L116.697778,46.913791 C122.851599,46.913791 127.860401,51.9182687 127.860401,58.0667761 L127.860401,60.8887164 Z M130.260235,62.1372239 L126.612906,62.1372239 L126.612906,58.0667761 C126.612906,52.6046866 122.164588,48.1622985 116.697778,48.1622985 L115.03724,48.1622985 C110.48749,48.1622985 106.784741,51.860806 106.784741,56.4087164 L106.784741,62.1372239 L102.642806,62.1372239 L102.642806,54.3317015 C102.642806,48.2845373 108.155626,42.7743881 114.209062,42.7743881 L116.13834,42.7743881 C123.398489,42.7743881 130.260235,49.3293134 130.260235,56.2603582 L130.260235,62.1372239 Z" id="Fill-7" fill="#6C6E70"></path>
            <path d="M116.001565,56.9815672 C114.571076,56.9815672 113.410372,58.1402239 113.410372,59.5705224 C113.410372,60.9997761 114.571076,62.1594776 116.001565,62.1594776 C117.432054,62.1594776 118.592757,60.9997761 118.592757,59.5705224 C118.592757,58.1402239 117.432054,56.9815672 116.001565,56.9815672" id="Fill-9" fill="#6C6E70"></path>
            <path d="M120.967494,14.4860299 C115.882357,11.5742388 112.635524,10.7812537 107.831675,10.6506567 C106.828868,10.6234925 105.981868,11.3903582 105.912854,12.390209 C105.288583,21.3596119 104.664313,30.3279701 104.040042,39.2973731 L104.040042,52.5649851 C104.581704,49.3648358 106.549672,46.4728955 109.245433,44.8273731 L109.000744,44.6006567 L109.000744,14.4860299 L120.967494,14.4860299 Z" id="Fill-11" fill="#6C6E70"></path>
            <mask id="mask-2" fill="white">
                <use xlink:href="#path-1"></use>
            </mask>
            <g id="Clip-14"></g>
            <polygon id="Fill-13" fill="#6C6E70" mask="url(#mask-2)" points="136.351315 58.5915672 139.995506 58.5915672 139.995506 52.1390299 136.351315 52.1390299"></polygon>
            <polygon id="Fill-15" fill="#6C6E70" mask="url(#mask-2)" points="129.603548 55.5711194 137.59149 55.5711194 137.59149 54.3236567 129.603548 54.3236567"></polygon>
            <polygon id="Fill-16" fill="#6C6E70" mask="url(#mask-2)" points="118.185779 40.7217164 122.246151 40.7217164 122.246151 39.473209 118.185779 39.473209"></polygon>
            <polygon id="Fill-17" fill="#6C6E70" mask="url(#mask-2)" points="129.60564 58.5915672 137.590444 58.5915672 137.590444 57.3441045 129.60564 57.3441045"></polygon>
            <path d="M105.070873,49.422194 L14.5297099,49.422194 L14.5297099,55.8851791 L26.990021,55.8851791 L38.5583679,51.7039851 C39.5360778,51.0457761 41.111916,54.831 42.4692074,54.831 C43.8254531,54.831 44.7435593,51.0457761 45.7212691,51.7039851 L57.8375519,55.8851791 L103.652932,55.8851791 L103.652932,54.331597 C103.652932,52.6129403 104.16636,50.9308507 105.070873,49.422194" id="Fill-18" fill="#6C6E70" mask="url(#mask-2)"></path>
            <path d="M52.9687658,54.8313134 C50.3493399,54.8313134 48.2266115,56.9532537 48.2266115,59.5693731 C48.2266115,62.1875821 50.3493399,64.3084776 52.9687658,64.3084776 C55.5881917,64.3084776 57.7109201,62.1875821 57.7109201,59.5693731 C57.7109201,56.9532537 55.5881917,54.8313134 52.9687658,54.8313134 Z M62.666393,60.5054925 C62.4457547,62.8186269 61.4126238,64.8966866 59.8587448,66.4502687 L59.8587448,66.4544478 C58.09573,68.2148955 55.6582522,69.3056418 52.9687658,69.3056418 C50.2813707,69.3056418 47.8449386,68.2148955 46.0798325,66.4523582 L46.0777411,66.4544478 C44.5228164,64.8998209 43.4907312,62.8207164 43.270093,60.5054925 L42.0016843,60.5054925 L41.0647559,60.5054925 L41.0647559,59.5693731 C41.0647559,56.1529552 42.1303028,53.0562388 44.318909,50.8695224 L44.3199547,50.8684776 L44.3210004,50.8663881 C46.3025621,48.8886269 49.1750423,47.6777313 52.9687658,47.6777313 C56.7656263,47.6777313 59.6391522,48.8865373 61.6186226,50.8653433 L61.6186226,50.8695224 C63.8051374,53.0541493 64.8706843,56.1508657 64.8706843,59.5693731 L64.8706843,60.5054925 L63.9337559,60.5054925 L62.666393,60.5054925 Z" id="Fill-19" fill="#6C6E70" mask="url(#mask-2)"></path>
            <path d="M52.9687658,56.9815672 C51.5382769,56.9815672 50.3775732,58.1402239 50.3775732,59.5705224 C50.3775732,60.9997761 51.5382769,62.1594776 52.9687658,62.1594776 C54.3992547,62.1594776 55.5599584,60.9997761 55.5599584,59.5705224 C55.5599584,58.1402239 54.3992547,56.9815672 52.9687658,56.9815672" id="Fill-20" fill="#6C6E70" mask="url(#mask-2)"></path>
            <path d="M84.2523448,53.6161343 L67.2558781,53.6161343 L67.2558781,58.8964328 C67.2558781,59.9265821 68.0976498,60.7665821 69.1286893,60.7665821 L82.3805794,60.7665821 C83.4116189,60.7665821 84.2523448,59.9265821 84.2523448,58.8964328 L84.2523448,57.9415075 L85.5855856,57.9415075 C85.5814028,58.0010597 85.5793115,58.0606119 85.5793115,58.121209 C85.5793115,59.4971791 86.695051,60.6140448 88.0722102,60.6140448 C89.0980214,60.6140448 89.9805744,59.9944925 90.363293,59.1095672 L93.386351,59.1095672 C93.7701152,59.9944925 94.6505769,60.6140448 95.676388,60.6140448 C97.054593,60.6140448 98.1713781,59.4971791 98.1713781,58.121209 C98.1713781,58.0606119 98.1682411,58.0010597 98.1640584,57.9415075 L98.9870078,57.9415075 L98.9870078,60.571209 L103.910065,60.571209 L103.910065,53.6913582 L98.9870078,53.6913582 L98.9870078,54.8813582 L84.2523448,54.8813582 L84.2523448,53.6161343 Z" id="Fill-21" fill="#6C6E70" mask="url(#mask-2)"></path>
            <polygon id="Fill-22" fill="#6C6E70" mask="url(#mask-2)" points="137.616586 45.5412687 139.995506 45.5412687 139.995506 39.3530597 137.616586 39.3530597"></polygon>
            <path d="M131.703062,21.6851642 C132.203943,21.6851642 132.614895,22.0957612 132.614895,22.596209 L132.614895,30.9638209 C132.614895,31.4642687 132.203943,31.8738209 131.703062,31.8738209 L131.19068,31.8738209 C130.6898,31.8738209 130.279893,31.4632239 130.279893,30.9638209 L130.279893,22.596209 C130.279893,22.0957612 130.688754,21.6851642 131.19068,21.6851642 L131.703062,21.6851642 Z M129.577197,21.6987463 L118.512867,21.6987463 L118.512867,30.3557612 C118.512867,31.276209 119.165371,32.0482985 120.074066,32.2008358 L133.074993,34.3927761 L132.767564,32.4714328 C132.465362,32.6835224 132.098329,32.8088955 131.703062,32.8088955 L131.19068,32.8088955 C130.173234,32.8088955 129.342965,31.9803881 129.342965,30.9638209 L129.342965,22.596209 C129.342965,22.2702388 129.427665,21.9641194 129.577197,21.6987463 Z" id="Fill-23" fill="#6C6E70" mask="url(#mask-2)"></path>
            <path d="M31.3577177,64.3082687 C28.7382917,64.3082687 26.6155633,62.1873731 26.6155633,59.5691642 C26.6155633,56.9530448 28.7382917,54.8311045 31.3577177,54.8311045 C33.9771436,54.8311045 36.099872,56.9530448 36.099872,59.5691642 C36.099872,62.1873731 33.9771436,64.3082687 31.3577177,64.3082687 Z M37.8377905,49.2363284 C36.0977806,48.2511045 33.9478646,47.6775224 31.3577177,47.6775224 C27.5650399,47.6775224 24.691514,48.8884179 22.7099522,50.8661791 L22.7089065,50.8682687 L22.7078609,50.8693134 C20.5192547,53.0560299 19.4547535,56.1517015 19.4547535,59.5691642 L19.4547535,60.5052836 L20.3916819,60.5052836 L21.6590448,60.5052836 C21.8796831,62.8205075 22.9117683,64.8996119 24.4677386,66.4542388 L24.4687843,66.4521493 C26.2338905,68.2146866 28.6713683,69.3054328 31.3577177,69.3054328 C34.0472041,69.3054328 36.4846819,68.2146866 38.2487423,66.4542388 L38.2487423,66.4500597 C39.8026214,64.8954328 40.8347065,62.8184179 41.0563905,60.5052836 L42.3227078,60.5052836 L43.2606819,60.5052836 L43.2606819,59.5691642 C43.2606819,56.2896119 42.2683325,53.3161791 40.2585374,51.1493134 L37.8377905,51.1493134 L37.8377905,49.2363284 Z" id="Fill-24" fill="#6C6E70" mask="url(#mask-2)"></path>
            <path d="M31.3577177,56.9815672 C29.9272288,56.9815672 28.7665251,58.1402239 28.7665251,59.5715672 C28.7665251,60.9997761 29.9272288,62.1594776 31.3577177,62.1594776 C32.7892522,62.1594776 33.9489102,60.9997761 33.9489102,59.5715672 C33.9489102,58.1402239 32.7892522,56.9815672 31.3577177,56.9815672" id="Fill-25" fill="#6C6E70" mask="url(#mask-2)"></path>
            <polygon id="Fill-26" fill="#6C6E70" mask="url(#mask-2)" points="78.9871419 51.1495224 93.5063949 51.1495224 93.5063949 47.1584776 78.9871419 47.1825075"></polygon>
            <path d="M37.8381042,49.2360149 C38.6485054,49.6957164 39.3794351,50.2369104 40.0078881,50.8648209 L40.0078881,50.869 C40.0967709,50.957806 40.1720598,51.0581045 40.2578054,51.1500448 L52.3573573,51.1500448 L52.3573573,47.2279552 L37.8381042,47.2519851 L37.8381042,49.2360149 Z" id="Fill-27" fill="#6C6E70" mask="url(#mask-2)"></path>
            <path d="M40.0079927,50.8649254 C39.378494,50.2359701 38.64861,49.6958209 37.8382088,49.2361194 L37.8382088,51.1491045 L40.25791,51.1491045 C40.1721643,51.058209 40.0968754,50.9579104 40.0079927,50.8691045 L40.0079927,50.8649254 Z" id="Fill-28" fill="#6C6E70" mask="url(#mask-2)"></path>
            <path d="M39.8681854,7.02204478 L39.8681854,43.7333881 C39.8681854,43.8065224 39.8085817,43.8660746 39.7353842,43.8660746 L20.7458533,43.8963731 C20.6506965,43.8963731 20.5869101,43.8002537 20.6235089,43.7124925 L36.0284521,6.97085075 C36.0493657,6.92174627 36.0974669,6.88935821 36.1507965,6.88935821 L39.7353842,6.88935821 C39.8085817,6.88935821 39.8681854,6.94891045 39.8681854,7.02204478 Z M43.0543694,6.88935821 L58.9194114,6.88935821 C58.9926089,6.88935821 59.0522126,6.94891045 59.0522126,7.02204478 L59.0522126,43.7020448 C59.0522126,43.7751791 58.9926089,43.8347313 58.9194114,43.8347313 L43.0543694,43.859806 C42.9811719,43.859806 42.9215681,43.8002537 42.9215681,43.7271194 L42.9215681,7.02204478 C42.9215681,6.94891045 42.9811719,6.88935821 43.0543694,6.88935821 Z M62.2383965,6.88935821 L78.1013472,6.88935821 C78.1755904,6.88935821 78.2341484,6.94891045 78.2341484,7.02204478 L78.2341484,43.6707015 C78.2341484,43.7438358 78.1755904,43.8033881 78.1013472,43.8033881 L62.2383965,43.8284627 C62.1641533,43.8284627 62.1055953,43.7689104 62.1055953,43.6957761 L62.1055953,7.02204478 C62.1055953,6.94891045 62.1641533,6.88935821 62.2383965,6.88935821 Z M81.4203323,6.88935821 L97.1881262,6.88935821 C97.2623694,6.88935821 97.3209274,6.94891045 97.3209274,7.02204478 L97.3209274,43.6393582 C97.3209274,43.7124925 97.2623694,43.7720448 97.1881262,43.7720448 L81.4203323,43.7981642 C81.3471348,43.7981642 81.2875311,43.7386119 81.2875311,43.6644328 L81.2875311,7.02204478 C81.2875311,6.94891045 81.3471348,6.88935821 81.4203323,6.88935821 Z M8.16006074,25.7089104 L13.3330348,15.3384627 C13.3654509,15.2726418 13.4449225,15.2465224 13.5118459,15.2789104 L23.0703978,20.0483134 C23.1320928,20.0796567 23.1592805,20.1538358 23.1331385,20.2186119 L18.6419472,30.9296567 C18.6126681,31.0007015 18.5290138,31.0320448 18.459999,30.9975672 L8.21861877,25.8875672 C8.15378667,25.8541343 8.12764469,25.7747313 8.16006074,25.7089104 Z M13.6739262,42.4107015 L2.70789037,36.9371194 C2.64201259,36.9047313 2.61587062,36.8242836 2.64828667,36.7584627 L7.55356691,26.9271194 C7.58598296,26.8612985 7.66545457,26.8341343 7.73237802,26.8675672 L18.0521842,32.0172687 C18.1138793,32.0486119 18.1421126,32.122791 18.1149249,32.1875672 L13.8558743,42.342791 C13.8265953,42.4138358 13.742941,42.4441343 13.6739262,42.4107015 Z M13.1364472,56.6426418 L5.80100889,53.7569701 C5.75918173,53.7412985 5.72885704,53.7057761 5.71944593,53.6618955 L2.37118173,38.2336866 C2.34608543,38.1250299 2.46006444,38.0372687 2.55940395,38.0863731 L13.267157,43.430403 C13.3288521,43.4617463 13.3560398,43.5359254 13.3298978,43.6007015 L11.9914286,46.7924925 C11.9820175,46.8144328 11.9788805,46.8384627 11.9820175,46.8624925 L13.316304,56.5005522 C13.3298978,56.6008507 13.2305583,56.679209 13.1364472,56.6426418 Z M17.6276385,6.89249254 L28.5183854,6.89249254 C28.6135422,6.89249254 28.6783743,6.98861194 28.6417756,7.07637313 L23.6601607,18.9607015 C23.6308817,19.0317463 23.5472274,19.0630896 23.4782126,19.0286119 L13.9991323,14.2989104 C13.9332546,14.2665224 13.9071126,14.1860746 13.9395286,14.1202537 L17.5084311,6.96562687 C17.531436,6.92070149 17.5774459,6.89249254 17.6276385,6.89249254 Z M36.5000533,3.51473134 C36.5000533,1.36771642 34.5655472,-0.335268657 32.3466163,0.0565223881 C30.6327484,0.358462687 29.4657706,1.97891045 29.4657706,3.71741791 L29.4657706,4.4268209 C29.4657706,4.49995522 29.4061669,4.55950746 29.3329694,4.55950746 L17.8817385,4.55950746 C16.7900496,4.55950746 15.7935175,5.17592537 15.3062311,6.15174627 L0.454452099,35.9278657 C0.0152669136,36.8086119 -0.110214568,37.811597 0.0989212346,38.772791 L3.24641506,53.2701045 C3.54025086,54.6293582 4.49600148,55.7524925 5.7905521,56.2612985 L13.8652854,59.4363731 C14.9130558,59.8490597 16.0172928,58.9808507 15.863578,57.8660746 L15.0552681,52.021597 C14.6307225,48.960403 17.0085965,46.230403 20.1006694,46.2251791 L99.517899,46.1029403 C99.5910965,46.1029403 99.6507002,46.0433881 99.6507002,45.9702537 L99.6507002,6.1548806 C99.6507002,5.27413433 98.9354558,4.55950746 98.0539484,4.55950746 L36.5000533,4.55950746 L36.5000533,3.51473134 Z" id="Fill-29" fill="#6C6E70" mask="url(#mask-2)"></path>
        </g>
    </g>
</svg>
