<?xml version="1.0" encoding="UTF-8"?>
<svg viewBox="0 0 59 59" version="1.1" xmlns="http://www.w3.org/2000/svg" xmlns:xlink="http://www.w3.org/1999/xlink">
    <!-- Generator: Sketch 52.4 (67378) - http://www.bohemiancoding.com/sketch -->
    <title>law</title>
    <desc>Created with Sketch.</desc>
    <g id="Page-1" stroke="none" stroke-width="1" fill="none" fill-rule="evenodd">
        <g id="law">
            <path d="M54.0213,58.9282 L4.9073,58.9282 C2.1973,58.9282 0.0003,56.7312 0.0003,54.0212 L0.0003,4.9072 C0.0003,2.1972 2.1973,0.0002 4.9073,0.0002 L54.0213,0.0002 C56.7313,0.0002 58.9283,2.1972 58.9283,4.9072 L58.9283,54.0212 C58.9283,56.7312 56.7313,58.9282 54.0213,58.9282" id="panel" fill="#E0001B"></path>
            <path d="M35.826,30.3764 L35.826,30.2754 C35.826,29.1084 33.9,28.3994 30.706,27.6394 C28.272,27.0814 26.651,26.7764 25.687,26.7764 C24.167,26.7764 23.102,27.3354 23.102,28.5524 L23.102,28.6524 C23.102,29.7684 25.028,30.4784 28.222,31.2374 C30.605,31.8474 32.226,32.1504 33.241,32.1504 C34.762,32.1504 35.826,31.5424 35.826,30.3764 M40.946,39.5524 L40.946,39.6534 C40.946,44.1654 37.094,47.8654 29.236,47.8654 C24.268,47.8654 19.858,46.1424 17.222,43.8604 L21.125,38.3354 C23.66,40.1604 26.752,41.3264 29.439,41.3264 C31.467,41.3264 32.226,40.7184 32.226,39.8064 L32.226,39.7044 C32.226,38.7404 30.758,38.1334 27.309,37.3714 C20.923,35.9524 15.752,34.2794 15.752,29.9714 L15.752,29.8694 C15.752,26.9294 17.678,25.2564 20.313,24.3444 C18.794,23.1274 17.931,21.3544 17.931,19.3254 L17.931,19.2244 C17.931,14.6614 21.886,11.0624 29.641,11.0624 C34.661,11.0624 39.07,12.7854 41.655,15.0674 L37.753,20.5424 C35.218,18.7174 32.177,17.6024 29.439,17.6024 C27.513,17.6024 26.701,18.1594 26.701,19.0714 L26.701,19.1734 C26.701,20.0854 27.969,20.6944 31.619,21.5054 C38.006,22.9254 43.177,24.5464 43.177,28.9064 L43.177,29.0074 C43.177,31.9484 41.25,33.6204 38.563,34.5844 C40.034,35.6994 40.946,37.4744 40.946,39.5524" id="Fill-4" fill="#FEFEFE"></path>
            <path d="M35.826,30.3764 L35.826,30.2754 C35.826,29.1084 33.9,28.3994 30.706,27.6394 C28.272,27.0814 26.651,26.7764 25.687,26.7764 C24.167,26.7764 23.102,27.3354 23.102,28.5524 L23.102,28.6524 C23.102,29.7684 25.028,30.4784 28.222,31.2374 C30.605,31.8474 32.226,32.1504 33.241,32.1504 C34.762,32.1504 35.826,31.5424 35.826,30.3764 Z M40.946,39.5524 L40.946,39.6534 C40.946,44.1654 37.094,47.8654 29.236,47.8654 C24.268,47.8654 19.858,46.1424 17.222,43.8604 L21.125,38.3354 C23.66,40.1604 26.752,41.3264 29.439,41.3264 C31.467,41.3264 32.226,40.7184 32.226,39.8064 L32.226,39.7044 C32.226,38.7404 30.758,38.1334 27.309,37.3714 C20.923,35.9524 15.752,34.2794 15.752,29.9714 L15.752,29.8694 C15.752,26.9294 17.678,25.2564 20.313,24.3444 C18.794,23.1274 17.931,21.3544 17.931,19.3254 L17.931,19.2244 C17.931,14.6614 21.886,11.0624 29.641,11.0624 C34.661,11.0624 39.07,12.7854 41.655,15.0674 L37.753,20.5424 C35.218,18.7174 32.177,17.6024 29.439,17.6024 C27.513,17.6024 26.701,18.1594 26.701,19.0714 L26.701,19.1734 C26.701,20.0854 27.969,20.6944 31.619,21.5054 C38.006,22.9254 43.177,24.5464 43.177,28.9064 L43.177,29.0074 C43.177,31.9484 41.25,33.6204 38.563,34.5844 C40.034,35.6994 40.946,37.4744 40.946,39.5524 Z" id="Stroke-6" stroke="#DF1E26" stroke-width="0.866"></path>
        </g>
    </g>
</svg>
