<?xml version="1.0" encoding="UTF-8"?>
<svg viewBox="0 0 101 70" version="1.1" xmlns="http://www.w3.org/2000/svg" xmlns:xlink="http://www.w3.org/1999/xlink">
    <!-- Generator: Sketch 52.4 (67378) - http://www.bohemiancoding.com/sketch -->
    <title>minibusz</title>
    <desc>Created with Sketch.</desc>
    <g id="minibusz" stroke="none" stroke-width="1" fill="none" fill-rule="evenodd">
        <g transform="translate(0.000000, 27.000000)" fill="#6C6E70">
            <path d="M79.71777,17.0249842 L79.7227036,17.0195803 C80.0838395,16.674714 80.5332861,16.4821391 81,16.4590498 C79.4227437,15.1400098 77.8785421,13.686364 76.5464833,12.4763843 C75.2341587,11.2840901 73.6993309,9.80293354 72.1580895,8.47898098 C71.7831396,8.15769528 71.3578675,8 70.864019,8 L65,8 L65,18.8082672 C65,18.8082672 72.8675341,22 77.0201042,22 L78.7942092,22 C78.6175881,21.6900133 78.5292775,21.3372868 78.5411181,20.9678574 C78.5786131,19.8811846 78.9249484,17.7869324 79.71777,17.0249842" id="Fill-1"></path>
            <path d="M80.8475754,17.0485044 C80.5001406,16.9407167 80.1372428,17.0157369 79.8729218,17.242091 L79.8555259,17.2576124 C79.3133537,17.7241174 79.0258381,19.4594988 79.0007107,20.124333 C78.9910463,20.3623282 79.0799587,20.5710051 79.2664814,20.7408785 C79.4501048,20.9137699 79.6801173,21 79.948304,21 L82.0937983,21 C84.3886074,21 81.703357,17.3145243 80.8475754,17.0485044" id="Fill-3"></path>
            <path d="M60.0650832,6 L40.9344355,6 C39.8697499,6 39,6.83823529 39,7.86594427 L39,16.1340557 C39,17.1617647 39.8697499,18 40.9344355,18 L60.0650832,18 C61.1302501,18 62,17.1617647 62,16.1340557 L62,7.86594427 C62,6.83823529 61.1302501,6 60.0650832,6" id="Fill-5"></path>
            <path d="M14.934476,18 L34.0660054,18 C35.1311945,18 36,17.1617647 36,16.1335913 L36,7.86594427 C36,6.83823529 35.1311945,6 34.0660054,6 L14.934476,6 C13.8697681,6 13,6.83823529 13,7.86594427 L13,16.1335913 C13,17.1617647 13.8697681,18 14.934476,18" id="Fill-7"></path>
            <polygon id="Fill-9" points="64 23 68 23 68 22 64 22"></polygon>
            <polygon id="Fill-11" points="57 22 61 22 61 21 57 21"></polygon>
            <polygon id="Fill-12" points="11 22 37 22 37 21 11 21"></polygon>
            <path d="M99.0288086,34.9685622 C99.0216417,35.4319508 98.6948329,35.8087203 98.2351982,35.8901328 L97.8735107,35.9450389 C97.254294,36.0278713 95.1615708,36.097924 93.3039206,36.097924 L92.7840843,36.097924 L92.7840843,35.8995993 C92.7840843,33.6773221 91.864815,31.6552628 90.3850973,30.1869978 L90.3831861,30.1855778 L90.3807972,30.1841578 C88.9006016,28.7177861 86.8575687,27.8080488 84.6157748,27.8080488 L84.6143414,27.8080488 C82.3687252,27.8080488 80.3252144,28.7177861 78.8450189,30.1841578 C77.3653011,31.6491095 76.4460318,33.6744821 76.4460318,35.8995993 L76.4460318,36.097924 L28.364044,36.097924 L28.364044,35.8995993 C28.364044,33.6773221 27.4452525,31.6552628 25.9655348,30.1869978 L25.9631458,30.1855778 L25.9612347,30.1841578 C24.4800835,28.7177861 22.4375284,27.8080488 20.1952567,27.8080488 L20.1947789,27.8080488 C17.9486849,27.8080488 15.9042185,28.7177861 14.4254564,30.1841578 C12.9462164,31.6491095 12.0264693,33.6744821 12.0264693,35.8995993 L12.0264693,36.097924 L6.34410472,36.097924 C4.87633173,36.1589833 3.67134362,35.7523942 2.74729644,34.958149 C2.30342889,34.5733329 2.04064402,34.1866235 1.92071855,33.9840389 L1.92071855,28.8034586 C2.02248797,28.6155472 2.16678076,28.3315501 2.31107354,27.9883869 C2.66798319,27.1387623 2.84954365,26.3549303 2.84906586,25.7083636 C2.85336597,25.6250578 2.85814388,25.5019924 2.86339958,25.3566805 C4.23800338,24.8043062 5.43869137,23.7691368 5.49315951,22.6364617 L5.49315951,11.2514915 L3.27859968,11.2514915 C3.36077968,9.61519495 3.4572934,8.25106224 3.57196316,7.46675693 C4.35362872,2.14181142 5.41719079,1.90278053 5.43248009,1.90278053 L58.69133,1.90041389 C62.2073916,2.08122537 65.43869,3.28489972 69.4975219,5.9227594 C71.0374413,6.92526914 73.6069996,9.24741871 76.0905556,11.4947824 C79.0466465,14.1676684 82.099729,16.9304868 84.0887716,18.1209079 L84.327667,18.2236202 C85.8565972,18.6439359 88.9330914,19.7628844 91.6975883,20.9320058 C91.6956771,22.1796997 91.7730792,23.3346212 91.9637177,23.523006 C92.4778205,24.0327807 95.5863267,25.7538031 97.8381542,26.9702574 C97.8921445,27.6769368 97.8692106,28.4806486 97.8281206,29.8727077 L97.8744663,30.5595073 L98.4874717,30.8080048 C98.8644486,30.9632565 99.0856657,31.2974264 99.0794544,31.7016489 L99.0288086,34.9685622 Z M84.6157748,40.3342139 C82.2822451,40.3342139 80.3906717,38.4603065 80.3906717,36.1485701 C80.3906717,33.8368338 82.2822451,31.9624529 84.6157748,31.9624529 C86.9488267,31.9624529 88.8404,33.8368338 88.8404,36.1485701 C88.8404,38.4603065 86.9488267,40.3342139 84.6157748,40.3342139 Z M20.1952567,40.3342139 C17.861727,40.3342139 15.9701537,38.4603065 15.9701537,36.1485701 C15.9701537,33.8368338 17.861727,31.9624529 20.1952567,31.9624529 C22.5287864,31.9624529 24.4203597,33.8368338 24.4203597,36.1485701 C24.4203597,38.4603065 22.5287864,40.3342139 20.1952567,40.3342139 Z M99.7641284,29.3510997 C99.8400971,26.6010611 99.7846734,26.1125861 99.0302419,23.4307069 C98.4310924,20.8056271 86.4562245,16.9001937 84.9874959,16.4349118 C83.1537353,15.3079167 80.2229672,12.6563305 77.3853683,10.0894701 C74.7288521,7.68780133 72.2194954,5.41866455 70.5510504,4.332849 C67.6522943,2.44852828 63.6976208,0.253704071 58.741498,0 L6.18213368,0 L5.42722439,0.00141998547 C3.56049619,0.00141998547 2.40137598,2.21896396 1.67178961,7.19222641 C1.2924238,9.77754662 1.11564125,17.7498184 1.01196067,22.5133963 C0.977081951,24.0616538 0.952236835,25.210422 0.929780673,25.6581908 C0.929780673,26.0974396 0.794088119,26.6493406 0.537992311,27.2589877 C0.346398247,27.717643 0.155759763,28.0361931 0.140470461,28.0603329 L0,28.2898972 L0,34.2178632 L0.0783576724,34.595106 C0.120881043,34.6892984 0.513624987,35.5498096 1.4873624,36.3928076 C2.3492968,37.1359333 3.84908176,38.0025978 6.12814333,38.0025978 C6.20697879,38.0025978 6.28820321,37.9997578 6.36942762,37.9973912 L12.0264693,37.9973912 L12.0264693,37.9983378 L12.9868286,37.9983378 L13.5348545,37.9983378 C13.8587966,39.1475794 14.4775356,40.1737556 15.3055468,40.9935605 C16.5564028,42.2327345 18.2860051,43 20.1952567,43 C22.1025971,43 23.8317216,42.2322612 25.0825776,40.9935605 L25.0859221,40.9935605 C25.9139334,40.1737556 26.5336279,39.1475794 26.8566144,37.9983378 L27.4036847,37.9983378 L28.364044,37.9983378 L28.364044,37.9973912 L76.4460318,37.9973912 L76.4460318,37.9983378 L77.4063911,37.9983378 L77.9553726,37.9983378 C78.2783591,39.1475794 78.8975758,40.1737556 79.7260649,40.9935605 C80.9769209,42.2327345 82.7060454,43 84.6157748,43 C86.5221596,43 88.2512841,42.2322612 89.5030957,40.9935605 L89.5064402,40.9935605 C90.3344515,40.1737556 90.9531904,39.1475794 91.2761769,37.9983378 L91.823725,37.9983378 L92.7840843,37.9983378 L92.7840843,37.9973912 L93.3039206,37.9973912 C94.7788604,37.9973912 97.2528606,37.9476917 98.1348622,37.8293596 L98.5658294,37.7640402 C99.9270551,37.525956 100.929938,36.3620413 100.949527,34.9974352 L100.999695,31.731942 C101.013551,30.7734518 100.554394,29.8973207 99.7641284,29.3510997 Z" id="Fill-13"></path>
            <path d="M85.0002728,34 C83.8953758,34 83,34.8951316 83,36.0002727 C83,37.1043229 83.8953758,38 85.0002728,38 C86.1051698,38 87,37.1043229 87,36.0002727 C87,34.8951316 86.1051698,34 85.0002728,34" id="Fill-14"></path>
            <path d="M20.9997273,34 C19.8956771,34 19,34.8951316 19,36.0002727 C19,37.1043229 19.8956771,38 20.9997273,38 C22.1054139,38 23,37.1043229 23,36.0002727 C23,34.8951316 22.1054139,34 20.9997273,34" id="Fill-15"></path>
        </g>
    </g>
</svg>
