<?xml version="1.0" encoding="UTF-8"?>
<svg viewBox="0 0 92 70" version="1.1" xmlns="http://www.w3.org/2000/svg" xmlns:xlink="http://www.w3.org/1999/xlink">
    <!-- Generator: Sketch 52.4 (67378) - http://www.bohemiancoding.com/sketch -->
    <title>nyergesvontato</title>
    <desc>Created with Sketch.</desc>
    <g id="nyergesvontato" stroke="none" stroke-width="1" fill="none" fill-rule="evenodd">
        <g>
            <rect id="box" x="0" y="0" width="92" height="70"></rect>
            <path d="M34.6331,47.6084 L21.0771,47.6084 C16.9081,47.6084 15.8961,49.1914 15.8941,49.1954 L17.3831,50.1894 C17.3831,50.1894 17.8441,49.4514 20.7641,49.4014 L20.7641,50.7714 L31.4241,50.7714 L31.4241,49.3984 L34.6331,49.3984 L34.6331,47.6084 Z" id="Fill-1" fill="#6C6E70"></path>
            <path d="M4.5715,51.6211 L0.0005,51.6211 L0.0005,57.8071 L4.0195,57.8071 L4.0195,56.3201 C4.0195,54.6751 4.2195,53.0641 4.5715,51.6211" id="Fill-3" fill="#6C6E70"></path>
            <path d="M12.2317,55.1529 C9.7267,55.1529 7.6967,57.1839 7.6967,59.6879 C7.6967,62.1929 9.7267,64.2239 12.2317,64.2239 C14.7367,64.2239 16.7667,62.1929 16.7667,59.6879 C16.7667,57.1839 14.7367,55.1529 12.2317,55.1529 Z M0.8487,59.6879 C0.8487,56.4179 1.8677,53.4539 3.9597,51.3609 L3.9607,51.3589 L3.9617,51.3579 C5.8577,49.4639 8.6047,48.3059 12.2317,48.3059 C15.8637,48.3059 18.6107,49.4629 20.5037,51.3569 L20.5037,51.3599 C22.5947,53.4519 23.6147,56.4159 23.6147,59.6879 L23.6147,61.5489 L23.6147,62.4439 L22.7187,62.4439 L21.1317,62.4439 C20.5737,64.2499 19.4807,65.8219 18.0407,66.9729 C16.4467,68.2459 14.4267,69.0069 12.2317,69.0069 C9.6627,69.0069 7.3317,67.9629 5.6437,66.2759 L5.6427,66.2779 C4.1547,64.7899 3.1677,62.7999 2.9567,60.5839 L1.7447,60.5839 L0.8487,60.5839 L0.8487,59.6879 Z" id="Fill-5" fill="#6C6E70"></path>
            <path d="M12.2317,57.211 C10.8637,57.211 9.7537,58.32 9.7537,59.689 C9.7537,61.057 10.8637,62.167 12.2317,62.167 C13.6007,62.167 14.7097,61.057 14.7097,59.689 C14.7097,58.32 13.6007,57.211 12.2317,57.211" id="Fill-7" fill="#6C6E70"></path>
            <g id="Group-11" transform="translate(52.000000, 7.007000)">
                <polygon id="Clip-10" points="0.413111972 0.9934 39.872 0.9934 39.872 55.4344 0.413111972 55.4344"></polygon>
                <path d="M33.5383,55.4344 L23.7893,55.4344 L23.7893,53.6454 L33.3043,53.6454 L38.0833,52.3664 L38.0833,45.7184 L36.5043,41.1534 L38.0833,41.1534 L38.0833,32.6964 C38.0833,29.5754 35.2903,20.5704 33.4443,14.6134 C32.9373,12.9844 32.4873,11.5304 32.1543,10.4014 C31.2143,7.2034 29.2443,6.0154 24.0503,5.5054 L11.6713,4.4544 L4.2673,3.0694 C3.6973,6.0824 3.2363,11.4394 2.9783,14.4424 C2.2033,23.4944 2.2033,31.9644 2.2033,38.7694 L2.2033,38.8164 L6.0253,41.5974 L4.9733,43.0444 L0.4133,39.7294 L0.4133,38.7694 C0.4113,31.9304 0.4113,23.4184 1.1923,14.2894 C1.4833,10.9364 2.0193,4.6944 2.6983,1.8244 L2.8953,0.9934 L11.9113,2.6814 L24.2123,3.7224 C29.2033,4.2114 32.5563,5.4124 33.8743,9.8954 C34.2023,11.0184 34.6503,12.4614 35.1523,14.0824 C37.1453,20.5064 39.8723,29.3044 39.8723,32.6964 L39.8723,42.9424 L39.0173,42.9424 L39.8723,45.5684 L39.8723,53.7404 L33.5383,55.4344 Z" id="Fill-9" fill="#6C6E70"></path>
            </g>
            <path d="M60.22,62.4439 L19.354,62.4439 L17.97,62.4439 L18.539,61.1809 C18.616,61.0119 18.687,60.5229 18.744,59.9029 C18.818,59.1229 18.857,58.1499 18.857,57.3009 C18.857,57.0749 18.16,56.6589 17.268,56.2279 C14.27,54.7819 14.057,52.6499 11.642,54.3579 L11.642,53.3719 L11.642,50.7709 L11.642,49.8759 L12.537,49.8759 L57.167,49.8759 C56.832,50.4679 56.554,51.0899 56.341,51.7309 L56.341,51.6669 L13.433,51.6669 L13.433,53.1249 C14.561,53.3069 16.524,53.8859 18.043,54.6189 C19.507,55.3259 20.647,56.2479 20.647,57.3009 C20.647,58.1539 20.603,59.1839 20.521,60.0649 C20.502,60.2689 20.48,60.4669 20.455,60.6529 L59.433,60.6529 L59.433,61.5479 L61.116,61.5479 L61.116,62.4439 L60.22,62.4439 Z" id="Fill-12" fill="#6C6E70"></path>
            <path d="M90.721,37.1724 C89.971,32.7364 87.763,26.0724 86.511,21.8844 L84.383,21.8844 L87.476,36.3604 C87.476,36.3604 88.998,36.5344 90.721,37.1724" id="Fill-14" fill="#6C6E70"></path>
            <path d="M79.3714,60.9507 L80.4744,60.9507 L80.4744,56.5217 C80.4744,50.6097 74.3744,44.8057 68.1614,44.8057 L66.3174,44.8057 C61.2444,44.8057 56.4484,49.6007 56.4484,54.6747 L56.4484,60.9507 L58.0234,60.9507 L58.0234,56.6617 C58.0234,51.6517 62.0994,47.5757 67.1084,47.5757 L68.6964,47.5757 C74.5824,47.5757 79.3714,52.3657 79.3714,58.2507 L79.3714,60.9507 Z M81.6664,62.1437 L78.1794,62.1437 L78.1794,58.2507 C78.1794,53.0237 73.9244,48.7687 68.6964,48.7687 L67.1084,48.7687 C62.7574,48.7687 59.2164,52.3097 59.2164,56.6617 L59.2164,62.1437 L55.2564,62.1437 L55.2564,54.6747 C55.2564,48.8867 60.5284,43.6127 66.3174,43.6127 L68.1614,43.6127 C75.1034,43.6127 81.6664,49.8857 81.6664,56.5217 L81.6664,62.1437 Z" id="Fill-16" fill="#6C6E70"></path>
            <polygon id="Clip-19" points="0 69.007 91.872 69.007 91.872 8 0 8"></polygon>
            <polygon id="Fill-18" fill="#6C6E70" points="87.493 58.752 90.978 58.752 90.978 52.576 87.493 52.576"></polygon>
            <polygon id="Fill-20" fill="#6C6E70" points="81.041 55.861 88.677 55.861 88.677 54.668 81.041 54.668"></polygon>
            <polygon id="Fill-21" fill="#6C6E70" points="70.119 41.645 74.002 41.645 74.002 40.453 70.119 40.453"></polygon>
            <polygon id="Fill-22" fill="#6C6E70" points="81.04 58.752 88.676 58.752 88.676 57.558 81.04 57.558"></polygon>
            <polygon id="Fill-23" fill="#6C6E70" points="88.702 46.26 90.978 46.26 90.978 40.338 88.702 40.338"></polygon>
            <polygon id="Fill-24" fill="#6C6E70" points="58.877 22.165 86.373 22.165 86.373 20.972 58.877 20.972"></polygon>
            <path d="M54.1878,46.5967 L54.1878,50.7707 L56.7148,50.7707 C57.1438,49.8157 57.7168,48.9177 58.4028,48.1107 L58.4018,48.1097 L54.1878,46.5967 Z" id="Fill-25" fill="#6C6E70"></path>
            <path d="M83.0471,23.4273 C83.5261,23.4273 83.9181,23.8203 83.9181,24.2993 L83.9181,32.3083 C83.9181,32.7873 83.5261,33.1793 83.0471,33.1793 L82.5561,33.1793 C82.0771,33.1793 81.6851,32.7863 81.6851,32.3083 L81.6851,24.2993 C81.6851,23.8203 82.0771,23.4273 82.5561,23.4273 L83.0471,23.4273 Z M81.0131,23.4403 L70.4321,23.4403 L70.4321,31.7263 C70.4321,32.6073 71.0571,33.3463 71.9251,33.4923 L84.3591,35.5903 L84.0641,33.7513 C83.7761,33.9543 83.4251,34.0743 83.0471,34.0743 L82.5561,34.0743 C81.5831,34.0743 80.7891,33.2813 80.7891,32.3083 L80.7891,24.2993 C80.7891,23.9873 80.8701,23.6943 81.0131,23.4403 Z" id="Fill-26" fill="#6C6E70"></path>
            <path d="M68.0305,55.1529 C65.5255,55.1529 63.4955,57.1839 63.4955,59.6879 C63.4955,62.1929 65.5255,64.2239 68.0305,64.2239 C70.5355,64.2239 72.5655,62.1929 72.5655,59.6879 C72.5655,57.1839 70.5355,55.1529 68.0305,55.1529 Z M58.6205,61.5489 L58.6205,56.6619 C58.6205,51.9919 62.4395,48.1729 67.1095,48.1729 L68.6975,48.1729 C74.2395,48.1729 78.7735,52.7069 78.7735,58.2499 L78.7735,61.5489 L77.1625,61.5489 C76.7925,63.3739 75.8875,65.0069 74.6195,66.2739 L74.6195,66.2779 C72.9335,67.9629 70.6035,69.0069 68.0305,69.0069 C65.4605,69.0069 63.1305,67.9629 61.4425,66.2759 L61.4405,66.2779 C60.1735,65.0089 59.2675,63.3769 58.8975,61.5489 L58.6205,61.5489 Z" id="Fill-27" fill="#6C6E70"></path>
            <path d="M68.0305,57.211 C66.6625,57.211 65.5525,58.32 65.5525,59.689 C65.5525,61.057 66.6625,62.167 68.0305,62.167 C69.3995,62.167 70.5085,61.057 70.5085,59.689 C70.5085,58.32 69.3995,57.211 68.0305,57.211" id="Fill-28" fill="#6C6E70"></path>
            <path d="M51.179,53.2315 L46.187,53.2315 C45.926,53.2315 45.704,53.3915 45.622,53.6385 L45.159,55.0105 C45.096,55.1985 45.124,55.3885 45.241,55.5485 C45.357,55.7095 45.527,55.7975 45.725,55.7975 L50.717,55.7975 C50.978,55.7975 51.2,55.6385 51.283,55.3915 L51.744,54.0185 C51.808,53.8315 51.78,53.6405 51.663,53.4805 C51.548,53.3185 51.377,53.2315 51.179,53.2315" id="Fill-29" fill="#6C6E70"></path>
            <path d="M49.929,56.5215 L44.937,56.5215 C44.676,56.5215 44.454,56.6805 44.371,56.9285 L43.908,58.3005 C43.846,58.4885 43.874,58.6785 43.99,58.8385 C44.106,59.0005 44.277,59.0875 44.475,59.0875 L49.466,59.0875 C49.728,59.0875 49.95,58.9285 50.032,58.6815 L50.493,57.3095 C50.557,57.1205 50.53,56.9315 50.413,56.7705 C50.297,56.6095 50.126,56.5215 49.929,56.5215" id="Fill-30" fill="#6C6E70"></path>
        </g>
    </g>
</svg>
