<?xml version="1.0" encoding="UTF-8"?>
<svg viewBox="0 0 59 59" version="1.1" xmlns="http://www.w3.org/2000/svg" xmlns:xlink="http://www.w3.org/1999/xlink">
    <!-- Generator: Sketch 52.4 (67378) - http://www.bohemiancoding.com/sketch -->
    <title>penny</title>
    <desc>Created with Sketch.</desc>
    <g id="Page-1" stroke="none" stroke-width="1" fill="none" fill-rule="evenodd">
        <g id="penny">
            <path d="M54.0214,58.9286 L4.9074,58.9286 C2.1974,58.9286 0.0004,56.7316 0.0004,54.0216 L0.0004,4.9076 C0.0004,2.1976 2.1974,-0.0004 4.9074,-0.0004 L54.0214,-0.0004 C56.7314,-0.0004 58.9284,2.1976 58.9284,4.9076 L58.9284,54.0216 C58.9284,56.7316 56.7314,58.9286 54.0214,58.9286" id="panel" fill="#E0001B"></path>
            <path d="M21.5311,27.7889 C20.5431,27.7889 19.7461,26.9909 19.7461,26.0039 C19.7461,25.0169 20.5431,24.2199 21.5311,24.2199 C22.5181,24.2199 23.3151,25.0169 23.3151,26.0039 C23.3151,26.9909 22.5181,27.7889 21.5311,27.7889 M42.8361,20.4079 C41.4391,19.1229 39.8211,18.1199 38.0851,17.3899 C37.8581,17.7309 37.6001,18.0529 37.3071,18.3459 C36.9191,18.7339 36.4821,19.0669 36.0071,19.3329 C36.5101,19.4999 36.9941,19.6899 37.4581,19.9079 C37.9291,20.1309 38.1121,20.7099 37.8501,21.1619 C37.6211,21.5619 37.1171,21.7209 36.7001,21.5219 C33.5361,20.0269 30.0021,20.3089 28.4511,20.5429 C27.9951,20.6099 27.5591,20.3209 27.4521,19.8729 L27.4521,19.8689 C27.3291,19.3609 27.6701,18.8569 28.1851,18.7779 C28.4681,18.7339 28.8081,18.6899 29.1891,18.6549 C29.0741,18.5559 28.9631,18.4529 28.8551,18.3459 C28.3081,17.7989 27.8761,17.1599 27.5751,16.4459 C27.5431,16.3709 27.5111,16.2909 27.4831,16.2159 C27.0111,16.2959 26.5441,16.3939 26.0881,16.5099 C23.4301,14.9629 20.2421,14.9589 18.3461,15.1449 C17.5211,15.2249 17.0331,16.1049 17.3941,16.8509 L19.0011,20.1429 C17.2161,21.6969 15.8671,23.6009 15.1101,25.7229 L13.1501,25.7149 C12.4921,25.7099 11.9571,26.2459 11.9571,26.9039 L11.9571,31.2989 C11.9571,31.7419 12.2031,32.1469 12.5951,32.3529 L15.1371,33.6779 C16.2011,36.6079 18.4011,39.1229 21.3041,40.8559 L21.3041,44.7469 C21.3041,45.5129 21.9271,46.1349 22.6931,46.1349 L26.2541,46.1349 C26.8051,46.1349 27.3051,45.8059 27.5271,45.3029 L28.4201,43.2519 C29.1891,43.3469 29.9701,43.3939 30.7711,43.3939 C32.0331,43.3939 33.2581,43.2749 34.4361,43.0499 L34.4361,44.7469 C34.4361,45.5129 35.0581,46.1349 35.8241,46.1349 L39.3701,46.1349 C39.8811,46.1349 40.3531,45.8529 40.5941,45.4009 C42.4831,41.8549 44.5331,38.2989 46.0481,34.5859 C46.8131,32.7059 47.0911,30.7119 46.9251,28.7649 C46.6551,25.6229 45.2271,22.6049 42.8361,20.4079" id="Fill-4" fill="#FEFEFE"></path>
            <path d="M21.5311,27.7889 C20.5431,27.7889 19.7461,26.9909 19.7461,26.0039 C19.7461,25.0169 20.5431,24.2199 21.5311,24.2199 C22.5181,24.2199 23.3151,25.0169 23.3151,26.0039 C23.3151,26.9909 22.5181,27.7889 21.5311,27.7889 Z M42.8361,20.4079 C41.4391,19.1229 39.8211,18.1199 38.0851,17.3899 C37.8581,17.7309 37.6001,18.0529 37.3071,18.3459 C36.9191,18.7339 36.4821,19.0669 36.0071,19.3329 C36.5101,19.4999 36.9941,19.6899 37.4581,19.9079 C37.9291,20.1309 38.1121,20.7099 37.8501,21.1619 C37.6211,21.5619 37.1171,21.7209 36.7001,21.5219 C33.5361,20.0269 30.0021,20.3089 28.4511,20.5429 C27.9951,20.6099 27.5591,20.3209 27.4521,19.8729 L27.4521,19.8689 C27.3291,19.3609 27.6701,18.8569 28.1851,18.7779 C28.4681,18.7339 28.8081,18.6899 29.1891,18.6549 C29.0741,18.5559 28.9631,18.4529 28.8551,18.3459 C28.3081,17.7989 27.8761,17.1599 27.5751,16.4459 C27.5431,16.3709 27.5111,16.2909 27.4831,16.2159 C27.0111,16.2959 26.5441,16.3939 26.0881,16.5099 C23.4301,14.9629 20.2421,14.9589 18.3461,15.1449 C17.5211,15.2249 17.0331,16.1049 17.3941,16.8509 L19.0011,20.1429 C17.2161,21.6969 15.8671,23.6009 15.1101,25.7229 L13.1501,25.7149 C12.4921,25.7099 11.9571,26.2459 11.9571,26.9039 L11.9571,31.2989 C11.9571,31.7419 12.2031,32.1469 12.5951,32.3529 L15.1371,33.6779 C16.2011,36.6079 18.4011,39.1229 21.3041,40.8559 L21.3041,44.7469 C21.3041,45.5129 21.9271,46.1349 22.6931,46.1349 L26.2541,46.1349 C26.8051,46.1349 27.3051,45.8059 27.5271,45.3029 L28.4201,43.2519 C29.1891,43.3469 29.9701,43.3939 30.7711,43.3939 C32.0331,43.3939 33.2581,43.2749 34.4361,43.0499 L34.4361,44.7469 C34.4361,45.5129 35.0581,46.1349 35.8241,46.1349 L39.3701,46.1349 C39.8811,46.1349 40.3531,45.8529 40.5941,45.4009 C42.4831,41.8549 44.5331,38.2989 46.0481,34.5859 C46.8131,32.7059 47.0911,30.7119 46.9251,28.7649 C46.6551,25.6229 45.2271,22.6049 42.8361,20.4079 Z" id="Stroke-6" stroke="#DF1E26" stroke-width="0.866"></path>
            <path d="M31.3231,18.5711 C31.8661,18.7861 32.4611,18.9051 33.0841,18.9051 C33.3881,18.9051 33.6861,18.8771 33.9711,18.8211 C35.1851,18.5951 36.2361,17.9091 36.9381,16.9541 C37.5211,16.1611 37.8661,15.1801 37.8661,14.1181 C37.8701,11.4721 35.7241,9.3311 33.0841,9.3311 C30.4381,9.3311 28.2971,11.4721 28.2971,14.1181 C28.2971,14.8031 28.4391,15.4551 28.7011,16.0461 C29.2051,17.1951 30.1521,18.1071 31.3231,18.5711" id="Fill-8" fill="#FEFEFE"></path>
            <path d="M31.3231,18.5711 C31.8661,18.7861 32.4611,18.9051 33.0841,18.9051 C33.3881,18.9051 33.6861,18.8771 33.9711,18.8211 C35.1851,18.5951 36.2361,17.9091 36.9381,16.9541 C37.5211,16.1611 37.8661,15.1801 37.8661,14.1181 C37.8701,11.4721 35.7241,9.3311 33.0841,9.3311 C30.4381,9.3311 28.2971,11.4721 28.2971,14.1181 C28.2971,14.8031 28.4391,15.4551 28.7011,16.0461 C29.2051,17.1951 30.1521,18.1071 31.3231,18.5711 Z" id="Stroke-10" stroke="#DF1E26" stroke-width="0.866"></path>
        </g>
    </g>
</svg>
