<?xml version="1.0" encoding="UTF-8"?>
<svg viewBox="0 0 209 70" version="1.1" xmlns="http://www.w3.org/2000/svg" xmlns:xlink="http://www.w3.org/1999/xlink">
    <!-- Generator: Sketch 52.4 (67378) - http://www.bohemiancoding.com/sketch -->
    <title>ponyvas</title>
    <desc>Created with Sketch.</desc>
    <defs>
        <polygon id="path-1" points="0 70 208.137674 70 208.137674 0 0 0"></polygon>
    </defs>
    <g id="ponyvas" stroke="none" stroke-width="1" fill="none" fill-rule="evenodd">
        <g id="poluprikolice" transform="translate(0.000000, 0.000000)">
            <path d="M35.3241163,25.1327674 L37.8799302,25.1327674 C38.636907,25.1327674 39.214814,24.9553256 39.6120233,24.598814 C40.0092326,24.2423023 40.2078372,23.7343953 40.2078372,23.0718372 C40.2078372,22.3913721 40.0076047,21.8427674 39.6071395,21.4227674 C39.2066744,21.0027674 38.653186,20.7862558 37.9466744,20.7732326 L35.3241163,20.7732326 L35.3241163,25.1327674 Z M35.3241163,27.450907 L35.3241163,32.3443953 L32.4622558,32.3443953 L32.4622558,18.455093 L37.8799302,18.455093 C38.9234186,18.455093 39.8399302,18.647186 40.6327209,19.0281163 C41.4238837,19.4090465 42.0327209,19.9511395 42.4592326,20.6543953 C42.8857442,21.3576512 43.0973721,22.1569535 43.0973721,23.0539302 C43.0973721,24.4148605 42.6317907,25.4876512 41.7006279,26.2723023 C40.7694651,27.0585814 39.4801628,27.450907 37.8327209,27.450907 L35.3241163,27.450907 Z" id="Fill-1" fill="#5B5C5F"></path>
            <path d="M53.5713256,25.0850698 C53.5713256,23.628093 53.3108605,22.5227442 52.7899302,21.7657674 C52.2673721,21.0087907 51.5234186,20.6311163 50.5564419,20.6311163 C49.5976047,20.6311163 48.856907,21.003907 48.3343488,21.7511163 C47.8134186,22.4983256 47.5496977,23.593907 47.543186,25.0378605 L47.543186,25.7150698 C47.543186,27.1329767 47.8036512,28.2334419 48.3245814,29.0148372 C48.8471395,29.7978605 49.5976047,30.1885581 50.5759767,30.1885581 C51.5364419,30.1885581 52.2738837,29.8108837 52.7899302,29.0571628 C53.3043488,28.3050698 53.564814,27.2062326 53.5713256,25.7622791 L53.5713256,25.0850698 Z M56.4706279,25.7150698 C56.4706279,27.0825116 56.2296977,28.2806512 55.7462093,29.3111163 C55.2627209,30.3415814 54.5708605,31.136 53.6722558,31.696 C52.7720233,32.2543721 51.7399302,32.5343721 50.5759767,32.5343721 C49.4250465,32.5343721 48.3978372,32.2576279 47.4959767,31.7041395 C46.5924884,31.1522791 45.8924884,30.3611163 45.3976047,29.333907 C44.901093,28.3066977 44.6503953,27.1264651 44.6438837,25.7915814 L44.6438837,25.1046047 C44.6438837,23.7371628 44.8896977,22.5341395 45.3829535,21.493907 C45.8745814,20.4536744 46.5713256,19.656 47.4715581,19.0992558 C48.3717907,18.5425116 49.399,18.2657674 50.5564419,18.2657674 C51.7138837,18.2657674 52.7427209,18.5425116 53.6429535,19.0992558 C54.543186,19.656 55.2383023,20.4536744 55.7315581,21.493907 C56.224814,22.5341395 56.4706279,23.733907 56.4706279,25.0948372 L56.4706279,25.7150698 Z" id="Fill-3" fill="#5B5C5F"></path>
            <polygon id="Fill-5" fill="#5B5C5F" points="61.4119767 30.0451395 67.4873256 30.0451395 67.4873256 32.3437442 58.5501163 32.3437442 58.5501163 18.4560698 61.4119767 18.4560698"></polygon>
            <path d="M79.411093,18.455907 L79.411093,27.6031163 C79.411093,29.1235814 78.9357442,30.3249767 77.9850465,31.2089302 C77.0343488,32.0928837 75.7352791,32.5340465 74.0878372,32.5340465 C72.4664419,32.5340465 71.1787674,32.105907 70.224814,31.2463721 C69.2708605,30.3884651 68.7857442,29.2082326 68.7662093,27.7089302 L68.7662093,18.455907 L71.6280698,18.455907 L71.6280698,27.6226512 C71.6280698,28.5310233 71.8462093,29.1952093 72.2808605,29.6119535 C72.7171395,30.0270698 73.3194651,30.2354419 74.0878372,30.2354419 C75.6978372,30.2354419 76.5150465,29.3905581 76.5394651,27.6991628 L76.5394651,18.455907 L79.411093,18.455907 Z" id="Fill-7" fill="#5B5C5F"></path>
            <path d="M84.6192558,25.1327674 L87.1750698,25.1327674 C87.9320465,25.1327674 88.5099535,24.9553256 88.9071628,24.598814 C89.3043721,24.2423023 89.5029767,23.7343953 89.5029767,23.0718372 C89.5029767,22.3913721 89.3027442,21.8427674 88.9022791,21.4227674 C88.501814,21.0027674 87.9483256,20.7862558 87.241814,20.7732326 L84.6192558,20.7732326 L84.6192558,25.1327674 Z M84.6192558,27.450907 L84.6192558,32.3443953 L81.7573953,32.3443953 L81.7573953,18.455093 L87.1750698,18.455093 C88.2185581,18.455093 89.1350698,18.647186 89.9278605,19.0281163 C90.7190233,19.4090465 91.3278605,19.9511395 91.7543721,20.6543953 C92.1808837,21.3576512 92.3925116,22.1569535 92.3925116,23.0539302 C92.3925116,24.4148605 91.9269302,25.4876512 90.9957674,26.2723023 C90.0646047,27.0585814 88.7753023,27.450907 87.1278605,27.450907 L84.6192558,27.450907 Z" id="Fill-9" fill="#5B5C5F"></path>
            <path d="M97.2195814,24.9419767 L99.5279535,24.9419767 C100.24586,24.9419767 100.802605,24.7596512 101.196558,24.3933721 C101.59214,24.027093 101.789116,23.5240698 101.789116,22.8810465 C101.789116,22.2266279 101.601907,21.7122093 101.230744,21.3361628 C100.857953,20.9617442 100.288186,20.772907 99.518186,20.772907 L97.2195814,20.772907 L97.2195814,24.9419767 Z M99.4986512,27.2601163 L97.2195814,27.2601163 L97.2195814,32.3440698 L94.3577209,32.3440698 L94.3577209,18.4563953 L99.518186,18.4563953 C101.159116,18.4563953 102.424,18.8210465 103.314465,19.5519767 C104.20493,20.2845349 104.649349,21.3166279 104.649349,22.6531395 C104.649349,23.6005814 104.444233,24.3901163 104.035628,25.0233721 C103.625395,25.655 103.003535,26.1596512 102.170047,26.5356977 L105.175163,32.2105814 L105.175163,32.3440698 L102.103302,32.3440698 L99.4986512,27.2601163 Z" id="Fill-11" fill="#5B5C5F"></path>
            <mask id="mask-2" fill="white">
                <use xlink:href="#path-1"></use>
            </mask>
            <g id="Clip-14"></g>
            <polygon id="Fill-13" fill="#5B5C5F" mask="url(#mask-2)" points="107.005581 32.3432558 109.867442 32.3432558 109.867442 18.4555814 107.005581 18.4555814"></polygon>
            <polygon id="Fill-15" fill="#5B5C5F" mask="url(#mask-2)" points="116.868907 26.7733721 115.381 28.3752326 115.381 32.3440698 112.51914 32.3440698 112.51914 18.4563953 115.381 18.4563953 115.381 24.7515116 116.639372 23.0243023 120.178442 18.4563953 123.697977 18.4563953 118.767047 24.6277907 123.841233 32.3440698 120.435651 32.3440698"></polygon>
            <path d="M133.132023,25.0850698 C133.132023,23.628093 132.871558,22.5227442 132.350628,21.7657674 C131.82807,21.0087907 131.084116,20.6311163 130.11714,20.6311163 C129.158302,20.6311163 128.417605,21.003907 127.895047,21.7511163 C127.374116,22.4983256 127.110395,23.593907 127.103884,25.0378605 L127.103884,25.7150698 C127.103884,27.1329767 127.364349,28.2334419 127.885279,29.0148372 C128.407837,29.7978605 129.158302,30.1885581 130.136674,30.1885581 C131.09714,30.1885581 131.834581,29.8108837 132.350628,29.0571628 C132.865047,28.3050698 133.125512,27.2062326 133.132023,25.7622791 L133.132023,25.0850698 Z M136.031326,25.7150698 C136.031326,27.0825116 135.790395,28.2806512 135.306907,29.3111163 C134.823419,30.3415814 134.131558,31.136 133.232953,31.696 C132.332721,32.2543721 131.300628,32.5343721 130.136674,32.5343721 C128.985744,32.5343721 127.958535,32.2576279 127.056674,31.7041395 C126.153186,31.1522791 125.453186,30.3611163 124.958302,29.333907 C124.461791,28.3066977 124.211093,27.1264651 124.204581,25.7915814 L124.204581,25.1046047 C124.204581,23.7371628 124.450395,22.5341395 124.943651,21.493907 C125.435279,20.4536744 126.132023,19.656 127.032256,19.0992558 C127.932488,18.5425116 128.959698,18.2657674 130.11714,18.2657674 C131.274581,18.2657674 132.303419,18.5425116 133.203651,19.0992558 C134.103884,19.656 134.799,20.4536744 135.292256,21.493907 C135.785512,22.5341395 136.031326,23.733907 136.031326,25.0948372 L136.031326,25.7150698 Z" id="Fill-16" fill="#5B5C5F" mask="url(#mask-2)"></path>
            <polygon id="Fill-17" fill="#5B5C5F" mask="url(#mask-2)" points="140.972674 30.0451395 147.048023 30.0451395 147.048023 32.3437442 138.110814 32.3437442 138.110814 18.4560698 140.972674 18.4560698"></polygon>
            <polygon id="Fill-18" fill="#5B5C5F" mask="url(#mask-2)" points="148.870465 32.3432558 151.732326 32.3432558 151.732326 18.4555814 148.870465 18.4555814"></polygon>
            <path d="M165.286442,27.7177209 C165.179,29.2121395 164.62714,30.3891163 163.63086,31.2470233 C162.636209,32.1049302 161.324116,32.5346977 159.696209,32.5346977 C157.916907,32.5346977 156.515279,31.9356279 155.494581,30.7358605 C154.473884,29.5377209 153.964349,27.891907 153.964349,25.8000465 L153.964349,24.951907 C153.964349,23.6153953 154.198767,22.4400465 154.67086,21.4226047 C155.141326,20.4051628 155.813651,19.6237674 156.687837,19.0800465 C157.562023,18.5363256 158.577837,18.2644651 159.735279,18.2644651 C161.33714,18.2644651 162.62807,18.6942326 163.60807,19.5521395 C164.586442,20.4116744 165.152953,21.6163256 165.305977,23.1677209 L162.444116,23.1677209 C162.374116,22.2707442 162.125047,21.6212093 161.695279,21.2174884 C161.265512,20.8137674 160.612721,20.611907 159.735279,20.611907 C158.781326,20.611907 158.066674,20.9537674 157.592953,21.6374884 C157.119233,22.3212093 156.876674,23.3809767 156.863651,24.8184186 L156.863651,25.8667907 C156.863651,27.3677209 157.091558,28.4649302 157.545744,29.1584186 C157.99993,29.851907 158.717837,30.1970233 159.696209,30.1970233 C160.580163,30.1970233 161.241093,29.9951628 161.675744,29.5914419 C162.112023,29.1877209 162.361093,28.5642326 162.424581,27.7177209 L165.286442,27.7177209 Z" id="Fill-19" fill="#5B5C5F" mask="url(#mask-2)"></path>
            <polygon id="Fill-20" fill="#5B5C5F" mask="url(#mask-2)" points="175.521256 26.306 170.02707 26.306 170.02707 30.0453023 176.475209 30.0453023 176.475209 32.343907 167.165209 32.343907 167.165209 18.4562326 176.455674 18.4562326 176.455674 20.7743721 170.02707 20.7743721 170.02707 24.083907 175.521256 24.083907"></polygon>
            <polygon id="Fill-21" fill="#6D6E70" mask="url(#mask-2)" points="7.99465116 47.7891628 7.99465116 56.2835814 9.06744186 56.2835814 6.49372093 58.5626512 6.49372093 57.1105581 4.27 57.1105581 4.27 62.7675349 6.49372093 62.7675349 6.49372093 61.2047442 10.7653488 58.3591628 17.6839535 58.3591628 20.4416279 54.7973023 82.0627907 54.9177674 84.6967442 51.2468372 181.358605 51.2468372 181.358605 47.7891628 84.6967442 47.7891628"></polygon>
            <polygon id="Fill-22" fill="#6D6E70" mask="url(#mask-2)" points="145.914186 62.6565116 147.835116 62.6565116 147.835116 47.7611628 145.914186 47.7611628"></polygon>
            <polygon id="Fill-23" fill="#6D6E70" mask="url(#mask-2)" points="108.644884 62.6565116 110.564186 62.6565116 110.564186 47.7611628 108.644884 47.7611628"></polygon>
            <polygon id="Fill-24" fill="#6D6E70" mask="url(#mask-2)" points="104.944651 63.1823256 151.818605 63.1823256 151.818605 59.2476744 104.944651 59.2476744"></polygon>
            <polygon id="Fill-25" fill="#6D6E70" mask="url(#mask-2)" points="104.944651 56.1725581 151.818605 56.1725581 151.818605 52.237907 104.944651 52.237907"></polygon>
            <path d="M1.91930233,46.8348837 L206.22,46.8348837 L206.22,1.91116279 L1.91930233,1.91116279 L1.91930233,46.8348837 Z M0,48.7444186 L208.137674,48.7444186 L208.137674,0 L0,0 L0,48.7444186 Z" id="Fill-26" fill="#6D6E70" mask="url(#mask-2)"></path>
            <path d="M28.9126047,55.2076977 C26.2265581,55.2076977 24.0484186,57.3760698 24.0484186,60.0507209 C24.0484186,62.7237442 26.2265581,64.8937442 28.9126047,64.8937442 C31.5986512,64.8937442 33.7767907,62.7237442 33.7767907,60.0507209 C33.7767907,57.3760698 31.5986512,55.2076977 28.9126047,55.2076977 Z M40.1614419,61.0063023 L39.2009767,61.0063023 L38.8623721,61.0063023 C38.636093,63.3700233 37.5746977,65.492814 35.9809767,67.0816512 L35.9809767,67.084907 C34.1723721,68.8853721 31.671907,69.9988605 28.9126047,69.9988605 C26.1516744,69.9988605 23.6528372,68.8853721 21.8426047,67.084907 C20.2488837,65.4960698 19.1891163,63.3732791 18.9628372,61.0063023 L17.6621395,61.0063023 L16.7000465,61.0063023 L16.7000465,60.0507209 C16.7000465,56.5572326 17.794,53.3942093 20.0388837,51.159093 L20.0405116,51.1558372 L20.0421395,51.1542093 C20.891907,50.3093256 21.9012093,49.601186 23.0733023,49.0639767 L34.7567907,49.0639767 C35.9288837,49.601186 36.938186,50.3093256 37.7863256,51.1542093 L37.7863256,51.1574651 C38.8216744,52.1895581 39.6112093,53.417 40.1614419,54.7844419 L40.1614419,61.0063023 Z" id="Fill-27" fill="#6D6E70" mask="url(#mask-2)"></path>
            <path d="M28.9126047,57.4055349 C27.4458605,57.4055349 26.2542326,58.5906512 26.2542326,60.0508837 C26.2542326,61.5111163 27.4458605,62.6962326 28.9126047,62.6962326 C30.3793488,62.6962326 31.5709767,61.5111163 31.5709767,60.0508837 C31.5709767,58.5906512 30.3793488,57.4055349 28.9126047,57.4055349" id="Fill-28" fill="#6D6E70" mask="url(#mask-2)"></path>
            <path d="M51.4123953,55.2076977 C48.7263488,55.2076977 46.5482093,57.3760698 46.5482093,60.0507209 C46.5482093,62.7237442 48.7263488,64.8937442 51.4123953,64.8937442 C54.0984419,64.8937442 56.2782093,62.7237442 56.2782093,60.0507209 C56.2782093,57.3760698 54.0984419,55.2076977 51.4123953,55.2076977 Z M62.6628605,61.0063023 L61.7007674,61.0063023 L61.3621628,61.0063023 C61.1358837,63.3700233 60.0761163,65.492814 58.4807674,67.0816512 L58.4807674,67.084907 C56.6721628,68.8853721 54.1716977,69.9988605 51.4123953,69.9988605 C48.653093,69.9988605 46.1526279,68.8853721 44.3440233,67.084907 C42.7486744,65.4960698 41.688907,63.3732791 41.4626279,61.0063023 L40.1619302,61.0063023 L39.2014651,61.0063023 L39.2014651,60.0507209 C39.2014651,56.5572326 40.2937907,53.3942093 42.5386744,51.159093 L42.5403023,51.1558372 L42.5419302,51.1542093 C43.3916977,50.3093256 44.401,49.601186 45.573093,49.0639767 L57.2565814,49.0639767 C58.4286744,49.601186 59.4379767,50.3093256 60.2877442,51.1542093 L60.2877442,51.1574651 C61.3214651,52.1895581 62.111,53.417 62.6628605,54.7844419 L62.6628605,61.0063023 Z" id="Fill-29" fill="#6D6E70" mask="url(#mask-2)"></path>
            <path d="M51.4123953,57.4055349 C49.9456512,57.4055349 48.7540233,58.5906512 48.7540233,60.0508837 C48.7540233,61.5111163 49.9456512,62.6962326 51.4123953,62.6962326 C52.8791395,62.6962326 54.0707674,61.5111163 54.0707674,60.0508837 C54.0707674,58.5906512 52.8791395,57.4055349 51.4123953,57.4055349" id="Fill-30" fill="#6D6E70" mask="url(#mask-2)"></path>
            <path d="M73.912186,55.2076977 C76.5982326,55.2076977 78.778,57.3760698 78.778,60.0507209 C78.778,62.7237442 76.5982326,64.8937442 73.912186,64.8937442 C71.2261395,64.8937442 69.048,62.7237442 69.048,60.0507209 C69.048,57.3760698 71.2261395,55.2076977 73.912186,55.2076977 Z M62.6633488,61.0063023 L63.623814,61.0063023 L63.9640465,61.0063023 C64.1886977,63.3700233 65.250093,65.492814 66.843814,67.0816512 L66.843814,67.084907 C68.6540465,68.8853721 71.1528837,69.9988605 73.912186,69.9988605 C76.6714884,69.9988605 79.1719535,68.8853721 80.982186,67.084907 C82.5775349,65.4960698 83.6373023,63.3732791 83.8619535,61.0063023 L85.1626512,61.0063023 L86.1231163,61.0063023 L86.1231163,60.0507209 C86.1231163,56.5572326 85.0307907,53.3942093 82.785907,51.159093 L82.7842791,51.1558372 L82.7826512,51.1542093 C81.9345116,50.3093256 80.9235814,49.601186 79.7514884,49.0639767 L68.068,49.0639767 C66.895907,49.601186 65.8866047,50.3093256 65.0384651,51.1542093 L65.0384651,51.1574651 C64.0031163,52.1895581 63.2152093,53.417 62.6633488,54.7844419 L62.6633488,61.0063023 Z" id="Fill-31" fill="#6D6E70" mask="url(#mask-2)"></path>
            <path d="M73.912186,57.4055349 C75.3805581,57.4055349 76.5705581,58.5906512 76.5705581,60.0508837 C76.5705581,61.5111163 75.3805581,62.6962326 73.912186,62.6962326 C72.4454419,62.6962326 71.2554419,61.5111163 71.2554419,60.0508837 C71.2554419,58.5906512 72.4454419,57.4055349 73.912186,57.4055349" id="Fill-32" fill="#6D6E70" mask="url(#mask-2)"></path>
            <g id="Group-35" mask="url(#mask-2)">
                <g transform="translate(169.302326, 50.465116)">
                    <path d="M1.13009302,0.455813953 L1.13009302,17.5390698" id="Fill-33" stroke="none" fill="#6D6E70" fill-rule="evenodd"></path>
                    <path d="M1.13009302,0.455813953 L1.13009302,17.5390698" id="Stroke-34" stroke="#6D6E70" stroke-width="1.315" fill="none"></path>
                </g>
            </g>
        </g>
    </g>
</svg>
