<?xml version="1.0" encoding="UTF-8"?>
<svg viewBox="0 0 40 40" version="1.1" xmlns="http://www.w3.org/2000/svg" xmlns:xlink="http://www.w3.org/1999/xlink">
    <!-- Generator: Sketch 52.4 (67378) - http://www.bohemiancoding.com/sketch -->
    <title>print</title>
    <desc>Created with Sketch.</desc>
    <g id="Page-1" stroke="none" stroke-width="1" fill="none" fill-rule="evenodd">
        <g id="print">
            <polygon id="Fill-1" fill="#232020" points="0 40 40 40 40 0 0 0"></polygon>
            <path d="M14.903,30.2195122 L24.407,30.2195122 L24.407,28.6741463 L14.903,28.6741463 L14.903,30.2195122 Z M14.903,27.1287805 L24.407,27.1287805 L24.407,25.5834146 L14.903,25.5834146 L14.903,27.1287805 Z M13.319,27.1287805 L13.319,31.764878 L25.989,31.764878 L25.989,27.1287805 L25.989,24.0380488 L13.319,24.0380488 L13.319,27.1287805 Z" id="Fill-2" fill="#FFFFFF"></path>
            <polygon id="Fill-3" fill="#FFFFFF" points="25.9895 13.2210732 25.9895 8.58497561 13.3185 8.58497561 13.3185 13.2210732 13.3185 16.3118049 25.9895 16.3118049"></polygon>
            <path d="M29.1584,13.2210732 L27.5744,13.2210732 L27.5744,16.3118049 L27.5744,17.8571707 L11.7344,17.8571707 L11.7344,16.3118049 L11.7344,13.2210732 L10.1514,13.2210732 C8.5674,13.2210732 6.9824,14.766439 6.9824,16.3118049 L6.9824,24.0386341 C6.9824,25.584 8.5674,27.1293659 10.1514,27.1293659 L11.7344,27.1293659 L11.7344,24.0386341 L11.7344,22.4932683 L27.5744,22.4932683 L27.5744,24.0386341 L27.5744,27.1293659 L29.1584,27.1293659 C30.7424,27.1293659 32.3264,25.584 32.3264,24.0386341 L32.3264,16.3118049 C32.3264,14.766439 30.7424,13.2210732 29.1584,13.2210732" id="Fill-4" fill="#FFFFFF"></path>
        </g>
    </g>
</svg>
