<?xml version="1.0" encoding="UTF-8"?>
<svg viewBox="0 0 59 59" version="1.1" xmlns="http://www.w3.org/2000/svg" xmlns:xlink="http://www.w3.org/1999/xlink">
    <!-- Generator: Sketch 52.4 (67378) - http://www.bohemiancoding.com/sketch -->
    <title>service</title>
    <desc>Created with Sketch.</desc>
    <g id="Page-1" stroke="none" stroke-width="1" fill="none" fill-rule="evenodd">
        <g id="service">
            <path d="M54.0214,58.9279 L4.9074,58.9279 C2.1974,58.9279 0.0004,56.7319 0.0004,54.0209 L0.0004,4.9069 C0.0004,2.1979 2.1974,-0.0001 4.9074,-0.0001 L54.0214,-0.0001 C56.7314,-0.0001 58.9284,2.1979 58.9284,4.9069 L58.9284,54.0209 C58.9284,56.7319 56.7314,58.9279 54.0214,58.9279" id="panel" fill="#E0001B"></path>
            <path d="M31.9931,38.0519 L29.8461,38.0519 C28.6651,38.0519 27.6991,37.0869 27.6991,35.9049 C27.6991,34.7269 28.6651,33.7579 29.8461,33.7579 L31.9931,33.7579 C33.1731,33.7579 34.1391,34.7269 34.1391,35.9049 C34.1391,37.0869 33.1731,38.0519 31.9931,38.0519 Z M16.9651,38.0519 L14.8171,38.0519 C13.6381,38.0519 12.6711,37.0869 12.6711,35.9049 C12.6711,34.7269 13.6381,33.7579 14.8171,33.7579 L16.9651,33.7579 C18.1441,33.7579 19.1111,34.7269 19.1111,35.9049 C19.1111,37.0869 18.1441,38.0519 16.9651,38.0519 Z M29.8461,20.8759 C31.0321,20.8759 31.9931,21.8369 31.9931,23.0239 L31.9931,27.3179 L14.8171,27.3179 L14.8171,23.0239 C14.8171,21.8369 15.7781,20.8759 16.9651,20.8759 L29.8461,20.8759 Z M34.1391,12.2889 L12.6711,12.2889 C10.3001,12.2889 8.3771,14.2139 8.3771,16.5829 L8.3771,33.7579 L8.3771,34.8309 C8.3771,35.4269 8.8571,35.9049 9.4501,35.9049 L10.5241,35.9049 L10.5241,41.2719 C10.5241,41.8669 11.0041,42.3449 11.5971,42.3449 L12.6711,42.3449 L12.6711,44.4919 C12.6711,45.6789 13.6311,46.6389 14.8171,46.6389 L16.9651,46.6389 C18.1511,46.6389 19.1111,45.6789 19.1111,44.4919 L19.1111,42.3449 L27.6991,42.3449 L27.6991,44.4919 C27.6991,45.6789 28.6591,46.6389 29.8461,46.6389 L31.9931,46.6389 C33.1801,46.6389 34.1391,45.6789 34.1391,44.4919 L34.1391,42.3449 L35.2131,42.3449 C35.8061,42.3449 36.2861,41.8669 36.2861,41.2719 L36.2861,35.9049 L37.3601,35.9049 C37.9531,35.9049 38.4331,35.4269 38.4331,34.8309 L38.4331,33.7579 L38.4331,16.5829 C38.4331,14.2139 36.5111,12.2889 34.1391,12.2889 Z" id="Fill-4" fill="#FEFEFE"></path>
            <path d="M43.0224,22.7531 C43.4184,23.1491 43.8624,23.4791 44.3384,23.7421 L44.3384,36.1471 C43.8624,36.4111 43.4184,36.7401 43.0224,37.1361 C40.7304,39.4291 40.7304,43.1581 43.0224,45.4511 C43.6124,46.0401 44.5674,46.0401 45.1564,45.4511 C45.7464,44.8621 45.7464,43.9061 45.1564,43.3171 C44.0404,42.2011 44.0404,40.3861 45.1564,39.2701 C45.6974,38.7291 46.4164,38.4321 47.1804,38.4321 C47.9454,38.4321 48.6634,38.7291 49.2044,39.2701 C50.3204,40.3861 50.3204,42.2011 49.2044,43.3171 C48.6144,43.9061 48.6144,44.8621 49.2044,45.4511 C49.7934,46.0401 50.7484,46.0401 51.3374,45.4511 C53.6294,43.1581 53.6294,39.4291 51.3374,37.1361 C50.9424,36.7401 50.4984,36.4111 50.0214,36.1471 L50.0214,23.7421 C50.4984,23.4791 50.9414,23.1491 51.3374,22.7531 C52.4484,21.6431 53.0594,20.1661 53.0594,18.5961 C53.0594,17.0251 52.4484,15.5491 51.3374,14.4391 C50.7484,13.8501 49.7934,13.8501 49.2044,14.4391 C48.6144,15.0281 48.6144,15.9831 49.2044,16.5721 C49.7444,17.1121 50.0424,17.8311 50.0424,18.5961 C50.0424,19.3601 49.7444,20.0791 49.2044,20.6201 C48.7934,21.0301 48.2814,21.3001 47.7234,21.4061 L46.6364,21.4061 C46.0804,21.3001 45.5664,21.0301 45.1564,20.6201 C44.6164,20.0791 44.3184,19.3601 44.3184,18.5961 C44.3184,17.8311 44.6164,17.1121 45.1564,16.5721 C45.7464,15.9831 45.7464,15.0281 45.1574,14.4391 C44.8624,14.1441 44.4754,13.9971 44.0894,13.9971 C43.7034,13.9971 43.3174,14.1441 43.0224,14.4391 C41.9124,15.5491 41.3004,17.0251 41.3004,18.5961 C41.3004,20.1661 41.9124,21.6431 43.0224,22.7531" id="Fill-6" fill="#FEFEFE"></path>
        </g>
    </g>
</svg>
