<?xml version="1.0" encoding="UTF-8"?>
<svg viewBox="0 0 214 71" version="1.1" xmlns="http://www.w3.org/2000/svg" xmlns:xlink="http://www.w3.org/1999/xlink">
    <!-- Generator: Sketch 52.4 (67378) - http://www.bohemiancoding.com/sketch -->
    <title>specialis</title>
    <desc>Created with Sketch.</desc>
    <defs>
        <polygon id="path-1" points="0.42227907 0.226604651 23.8820465 0.226604651 23.8820465 21.1627907 0.42227907 21.1627907"></polygon>
        <polygon id="path-3" points="0.133 0.226604651 23.5927674 0.226604651 23.5927674 21.1627907 0.133 21.1627907"></polygon>
        <polygon id="path-5" points="0.80255814 0.226604651 24.2639535 0.226604651 24.2639535 21.1627907 0.80255814 21.1627907"></polygon>
        <polygon id="path-7" points="0 70 212.811395 70 212.811395 0 0 0"></polygon>
    </defs>
    <g id="specialis" stroke="none" stroke-width="1" fill="none" fill-rule="evenodd">
        <g id="specijalne">
            <polygon id="Fill-1" fill="#6D6E70" points="7.99432558 47.788186 7.99432558 56.2842326 9.06711628 56.2842326 6.49339535 58.5633023 6.49339535 57.1112093 4.26967442 57.1112093 4.26967442 62.7665581 6.49339535 62.7665581 6.49339535 61.2053953 10.7666512 58.359814 17.6836279 58.359814 17.6836279 53.6909767 81.2843256 54.2216744 84.6980465 51.2474884 181.358279 51.2474884 181.358279 47.788186 84.6980465 47.788186"></polygon>
            <path d="M12.9560233,-0.000325581395 L-0.000488372093,48.744093 L189.185093,48.744093 L212.810907,-0.000325581395 L12.9560233,-0.000325581395 Z M14.8753256,1.91083721 L209.032535,1.91083721 L187.264163,46.8345581 L3.073,46.8345581 L14.8753256,1.91083721 Z" id="Fill-2" fill="#6D6E70"></path>
            <g id="Group-37">
                <g id="Group-5" transform="translate(16.279070, 48.837209)">
                    <mask id="mask-2" fill="white">
                        <use xlink:href="#path-1"></use>
                    </mask>
                    <g id="Clip-4"></g>
                    <path d="M12.6332093,6.37032558 C9.94716279,6.37032558 7.76902326,8.53869767 7.76902326,11.2133488 C7.76902326,13.8863721 9.94716279,16.0547442 12.6332093,16.0547442 C15.3192558,16.0547442 17.4973953,13.8863721 17.4973953,11.2133488 C17.4973953,8.53869767 15.3192558,6.37032558 12.6332093,6.37032558 Z M23.8820465,12.1689302 L22.9232093,12.1689302 L22.5829767,12.1689302 C22.3566977,14.5326512 21.2969302,16.6554419 19.7032093,18.2442791 L19.7032093,18.2491628 C17.8929767,20.048 15.3925116,21.1631163 12.6332093,21.1631163 C9.87390698,21.1631163 7.37344186,20.048 5.56483721,18.2491628 C3.96948837,16.6586977 2.90972093,14.535907 2.68344186,12.1689302 L1.38274419,12.1689302 L0.42227907,12.1689302 L0.42227907,11.2133488 C0.42227907,7.71986047 1.51460465,4.55683721 3.75948837,2.32172093 L3.76111628,2.32009302 L3.76274419,2.31846512 C4.61251163,1.47195349 5.62181395,0.76544186 6.79390698,0.226604651 L18.4773953,0.226604651 C19.6494884,0.763813953 20.6587907,1.47195349 21.5069302,2.31683721 L21.5069302,2.32172093 C22.5422791,3.35218605 23.331814,4.57962791 23.8820465,5.94706977 L23.8820465,12.1689302 Z" id="Fill-3" fill="#6D6E70" mask="url(#mask-2)"></path>
                </g>
                <path d="M28.9122791,57.4045581 C27.4455349,57.4045581 26.253907,58.5913023 26.253907,60.049907 C26.253907,61.5101395 27.4455349,62.6968837 28.9122791,62.6968837 C30.3790233,62.6968837 31.5706512,61.5101395 31.5706512,60.049907 C31.5706512,58.5913023 30.3790233,57.4045581 28.9122791,57.4045581" id="Fill-6" fill="#6D6E70"></path>
                <g id="Group-10" transform="translate(39.069767, 48.837209)">
                    <mask id="mask-4" fill="white">
                        <use xlink:href="#path-3"></use>
                    </mask>
                    <g id="Clip-9"></g>
                    <path d="M12.3439302,6.37032558 C9.65625581,6.37032558 7.47811628,8.53869767 7.47811628,11.2133488 C7.47811628,13.8863721 9.65625581,16.0547442 12.3439302,16.0547442 C15.0299767,16.0547442 17.2081163,13.8863721 17.2081163,11.2133488 C17.2081163,8.53869767 15.0299767,6.37032558 12.3439302,6.37032558 Z M23.5927674,12.1689302 L22.6323023,12.1689302 L22.2920698,12.1689302 C22.0657907,14.5326512 21.0060233,16.6554419 19.4123023,18.2442791 L19.4123023,18.2491628 C17.6020698,20.048 15.1032326,21.1631163 12.3439302,21.1631163 C9.583,21.1631163 7.08416279,20.048 5.27393023,18.2491628 C3.6785814,16.6586977 2.61881395,14.535907 2.39416279,12.1689302 L1.09183721,12.1689302 L0.133,12.1689302 L0.133,11.2133488 C0.133,7.71986047 1.22532558,4.55683721 3.4685814,2.32172093 L3.47183721,2.32009302 L3.47346512,2.31846512 C4.32160465,1.47195349 5.33090698,0.76544186 6.503,0.226604651 L18.1864884,0.226604651 C19.3585814,0.763813953 20.3695116,1.47195349 21.2176512,2.31683721 L21.2176512,2.32172093 C22.253,3.35218605 23.040907,4.57962791 23.5927674,5.94706977 L23.5927674,12.1689302 Z" id="Fill-8" fill="#6D6E70" mask="url(#mask-4)"></path>
                </g>
                <path d="M51.4136977,57.4045581 C49.9453256,57.4045581 48.7553256,58.5913023 48.7553256,60.049907 C48.7553256,61.5101395 49.9453256,62.6968837 51.4136977,62.6968837 C52.8804419,62.6968837 54.0704419,61.5101395 54.0704419,60.049907 C54.0704419,58.5913023 52.8804419,57.4045581 51.4136977,57.4045581" id="Fill-11" fill="#6D6E70"></path>
                <g id="Group-15" transform="translate(61.860465, 48.837209)">
                    <mask id="mask-6" fill="white">
                        <use xlink:href="#path-5"></use>
                    </mask>
                    <g id="Clip-14"></g>
                    <path d="M12.0530233,6.37032558 C14.7390698,6.37032558 16.9172093,8.53869767 16.9172093,11.2133488 C16.9172093,13.8863721 14.7390698,16.0547442 12.0530233,16.0547442 C9.36534884,16.0547442 7.1872093,13.8863721 7.1872093,11.2133488 C7.1872093,8.53869767 9.36534884,6.37032558 12.0530233,6.37032558 Z M0.80255814,12.1689302 L1.76302326,12.1689302 L2.10325581,12.1689302 C2.32790698,14.5326512 3.38930233,16.6554419 4.98302326,18.2442791 L4.98302326,18.2491628 C6.79325581,20.048 9.29372093,21.1631163 12.0530233,21.1631163 C14.8123256,21.1631163 17.3111628,20.048 19.1213953,18.2491628 C20.7167442,16.6586977 21.7765116,14.535907 22.0011628,12.1689302 L23.3018605,12.1689302 L24.2639535,12.1689302 L24.2639535,11.2133488 C24.2639535,7.71986047 23.1716279,4.55683721 20.9267442,2.32172093 L20.9251163,2.32009302 L20.9218605,2.31846512 C20.0737209,1.47195349 19.0644186,0.76544186 17.8906977,0.226604651 L6.20883721,0.226604651 C5.03674419,0.763813953 4.02581395,1.47195349 3.17767442,2.31683721 L3.17767442,2.32172093 C2.14232558,3.35218605 1.3544186,4.57962791 0.80255814,5.94706977 L0.80255814,12.1689302 Z" id="Fill-13" fill="#6D6E70" mask="url(#mask-6)"></path>
                </g>
                <path d="M73.9134884,57.4045581 C75.3802326,57.4045581 76.5702326,58.5913023 76.5702326,60.049907 C76.5702326,61.5101395 75.3802326,62.6968837 73.9134884,62.6968837 C72.4451163,62.6968837 71.2551163,61.5101395 71.2551163,60.049907 C71.2551163,58.5913023 72.4451163,57.4045581 73.9134884,57.4045581" id="Fill-16" fill="#6D6E70"></path>
                <g id="Group-21" transform="translate(169.302326, 50.465116)">
                    <path d="M1.12976744,0.456465116 L1.12976744,17.5397209" id="Fill-18" fill="#6D6E70"></path>
                    <path d="M1.12976744,0.456465116 L1.12976744,17.5397209" id="Stroke-20" stroke="#6D6E70" stroke-width="1.315"></path>
                </g>
                <path d="M55.8713953,28.700814 C55.8713953,28.1603488 55.6809302,27.7452326 55.2983721,27.4554651 C54.9174419,27.1673256 54.2304651,26.8612791 53.2390698,26.5405814 C52.2460465,26.2198837 51.4613953,25.9024419 50.8834884,25.5915116 C49.3060465,24.7384884 48.5165116,23.590814 48.5165116,22.1484884 C48.5165116,21.3980233 48.7281395,20.7289535 49.1513953,20.1396512 C49.5746512,19.5519767 50.1818605,19.092907 50.9730233,18.7624419 C51.765814,18.4303488 52.6530233,18.2659302 53.6395349,18.2659302 C54.6309302,18.2659302 55.5148837,18.445 56.2913953,18.8047674 C57.0662791,19.1645349 57.6686047,19.670814 58.0983721,20.3252326 C58.5281395,20.9812791 58.7430233,21.7252326 58.7430233,22.5587209 L55.8811628,22.5587209 C55.8811628,21.9222093 55.6809302,21.4273256 55.2804651,21.0740698 C54.88,20.7224419 54.3167442,20.545 53.5923256,20.545 C52.8923256,20.545 52.3486047,20.6931395 51.9611628,20.9894186 C51.572093,21.2840698 51.3783721,21.6747674 51.3783721,22.1566279 C51.3783721,22.609186 51.6062791,22.9868605 52.0604651,23.292907 C52.5146512,23.5973256 53.1853488,23.8838372 54.0693023,24.150814 C55.6972093,24.640814 56.8823256,25.2480233 57.6262791,25.9724419 C58.3702326,26.6984884 58.7430233,27.6003488 58.7430233,28.6812791 C58.7430233,29.8843023 58.2872093,30.8268605 57.3788372,31.5105814 C56.4688372,32.1943023 55.2446512,32.5345349 53.7062791,32.5345349 C52.6383721,32.5345349 51.6648837,32.339186 50.7874419,31.9484884 C49.91,31.5577907 49.2409302,31.0222093 48.7802326,30.3417442 C48.317907,29.6612791 48.0883721,28.8717442 48.0883721,27.9763953 L50.9583721,27.9763953 C50.9583721,29.5082558 51.8748837,30.275 53.7062791,30.275 C54.3867442,30.275 54.9174419,30.1366279 55.2983721,29.8598837 C55.6809302,29.5831395 55.8713953,29.1973256 55.8713953,28.700814" id="Fill-22" fill="#5B5C5F"></path>
                <path d="M63.5403023,25.1334186 L66.0961163,25.1334186 C66.853093,25.1334186 67.431,24.9559767 67.8282093,24.5994651 C68.2254186,24.2429535 68.4240233,23.7350465 68.4240233,23.0724884 C68.4240233,22.3920233 68.2237907,21.8434186 67.8233256,21.4234186 C67.4228605,21.0034186 66.8693721,20.786907 66.1628605,20.7738837 L63.5403023,20.7738837 L63.5403023,25.1334186 Z M63.5403023,27.4515581 L63.5403023,32.3450465 L60.6784419,32.3450465 L60.6784419,18.4557442 L66.0961163,18.4557442 C67.1396047,18.4557442 68.0561163,18.6478372 68.848907,19.0287674 C69.6400698,19.4096977 70.248907,19.9517907 70.6754186,20.6550465 C71.1019302,21.3583023 71.3135581,22.1576047 71.3135581,23.0545814 C71.3135581,24.4155116 70.8479767,25.4883023 69.916814,26.2729535 C68.9856512,27.0592326 67.6963488,27.4515581 66.048907,27.4515581 L63.5403023,27.4515581 Z" id="Fill-24" fill="#5B5C5F"></path>
                <polygon id="Fill-26" fill="#5B5C5F" points="81.634814 26.3066512 76.1406279 26.3066512 76.1406279 30.0459535 82.5887674 30.0459535 82.5887674 32.3445581 73.2787674 32.3445581 73.2787674 18.4568837 82.5692326 18.4568837 82.5692326 20.7750233 76.1406279 20.7750233 76.1406279 24.0845581 81.634814 24.0845581"></polygon>
                <path d="M95.1700465,27.7183721 C95.0626047,29.2127907 94.5107442,30.3897674 93.5144651,31.2476744 C92.519814,32.1055814 91.2077209,32.5353488 89.579814,32.5353488 C87.8005116,32.5353488 86.3988837,31.9362791 85.378186,30.7365116 C84.3574884,29.5383721 83.8479535,27.8925581 83.8479535,25.8006977 L83.8479535,24.9525581 C83.8479535,23.6160465 84.0823721,22.4406977 84.5544651,21.4232558 C85.0249302,20.405814 85.6972558,19.6244186 86.5714419,19.0806977 C87.4456279,18.5369767 88.4614419,18.2651163 89.6188837,18.2651163 C91.2207442,18.2651163 92.5116744,18.6948837 93.4916744,19.5527907 C94.4700465,20.4123256 95.0365581,21.6169767 95.1895814,23.1683721 L92.3277209,23.1683721 C92.2577209,22.2713953 92.0086512,21.6218605 91.5788837,21.2181395 C91.1491163,20.8144186 90.4963256,20.6125581 89.6188837,20.6125581 C88.6649302,20.6125581 87.9502791,20.9544186 87.4765581,21.6381395 C87.0028372,22.3218605 86.7602791,23.3816279 86.7472558,24.8190698 L86.7472558,25.8674419 C86.7472558,27.3683721 86.9751628,28.4655814 87.4293488,29.1590698 C87.8835349,29.8525581 88.6014419,30.1976744 89.579814,30.1976744 C90.4637674,30.1976744 91.1246977,29.995814 91.5593488,29.592093 C91.9956279,29.1883721 92.2446977,28.5648837 92.308186,27.7183721 L95.1700465,27.7183721 Z" id="Fill-28" fill="#5B5C5F"></path>
                <mask id="mask-8" fill="white">
                    <use xlink:href="#path-7"></use>
                </mask>
                <g id="Clip-31"></g>
                <polygon id="Fill-30" fill="#5B5C5F" mask="url(#mask-8)" points="97.23 32.3448837 100.09186 32.3448837 100.09186 18.4572093 97.23 18.4572093"></polygon>
                <path d="M108.342744,18.4565581 L111.204605,18.4565581 L111.204605,28.0709767 C111.204605,28.9549302 111.009256,29.7363256 110.61693,30.4135349 C110.226233,31.0907442 109.674372,31.6133023 108.962977,31.9828372 C108.249953,32.3507442 107.445767,32.5346977 106.548791,32.5346977 C105.080419,32.5346977 103.936,32.161907 103.115535,31.4146977 C102.29507,30.6674884 101.884837,29.6109767 101.884837,28.2435349 L104.766233,28.2435349 C104.766233,28.924 104.909488,29.4253953 105.194372,29.7493488 C105.480884,30.0749302 105.933442,30.236093 106.548791,30.236093 C107.095767,30.236093 107.532047,30.0488837 107.856,29.6744651 C108.179953,29.2984186 108.342744,28.7644651 108.342744,28.0709767 L108.342744,18.4565581 Z" id="Fill-32" fill="#5B5C5F" mask="url(#mask-8)"></path>
                <path d="M117.041791,27.1652093 L120.514116,27.1652093 L118.769,21.9673023 L117.041791,27.1652093 Z M121.285744,29.4833488 L116.268535,29.4833488 L115.314581,32.3452093 L112.272023,32.3452093 L117.442256,18.455907 L120.094116,18.455907 L125.292023,32.3452093 L122.249465,32.3452093 L121.285744,29.4833488 Z" id="Fill-33" fill="#5B5C5F" mask="url(#mask-8)"></path>
                <polygon id="Fill-34" fill="#5B5C5F" mask="url(#mask-8)" points="129.451488 30.0457907 135.526837 30.0457907 135.526837 32.3443953 126.589628 32.3443953 126.589628 18.4567209 129.451488 18.4567209"></polygon>
                <polygon id="Fill-35" fill="#5B5C5F" mask="url(#mask-8)" points="148.461698 32.3445581 145.599837 32.3445581 140.02914 23.2071163 140.02914 32.3445581 137.168907 32.3445581 137.168907 18.4568837 140.02914 18.4568837 145.609605 27.6138605 145.609605 18.4568837 148.461698 18.4568837"></polygon>
                <polygon id="Fill-36" fill="#5B5C5F" mask="url(#mask-8)" points="159.316581 26.3066512 153.822395 26.3066512 153.822395 30.0459535 160.270535 30.0459535 160.270535 32.3445581 150.960535 32.3445581 150.960535 18.4568837 160.251 18.4568837 160.251 20.7750233 153.822395 20.7750233 153.822395 24.0845581 159.316581 24.0845581"></polygon>
            </g>
        </g>
    </g>
</svg>
