<?xml version="1.0" encoding="UTF-8"?>
<svg viewBox="0 0 115 70" version="1.1" xmlns="http://www.w3.org/2000/svg" xmlns:xlink="http://www.w3.org/1999/xlink">
    <!-- Generator: Sketch 52.4 (67378) - http://www.bohemiancoding.com/sketch -->
    <title>teherauto</title>
    <desc>Created with Sketch.</desc>
    <g id="teherauto" stroke="none" stroke-width="1" fill="none" fill-rule="evenodd">
        <g>
            <rect id="box" x="0" y="0" width="115" height="70"></rect>
            <path d="M0,47.7983 L76.348,47.7983 L76.348,3.0003 L0,3.0003 L0,47.7983 Z M1.789,46.0073 L74.56,46.0073 L74.56,4.7913 L1.789,4.7913 L1.789,46.0073 Z" id="Fill-1" fill="#6C6E70"></path>
            <g id="Group-29" transform="translate(0.000000, 2.323300)">
                <g id="Group-4" transform="translate(82.000000, 12.000000)">
                    <polygon id="Clip-3" points="0.3655 0.6349 31.798 0.6349 31.798 47.4369 0.3655 47.4369"></polygon>
                    <path d="M25.4645,47.4369 L18.3495,47.4369 L18.0925,47.1989 C17.6795,46.8149 17.2775,46.4849 16.8875,46.1999 L17.9405,44.7519 C18.3005,45.0139 18.6675,45.3109 19.0465,45.6459 L25.2305,45.6459 L30.0095,44.3659 L30.0095,37.7179 L28.4305,33.1519 L30.0095,33.1519 L30.0095,24.6959 C30.0095,21.5349 27.9425,14.8309 26.4335,9.9339 C25.9395,8.3289 25.4925,6.8809 25.1745,5.7449 C24.5735,3.6039 21.0145,2.4259 15.1485,2.4259 L2.1545,2.4259 L2.1545,30.3539 L0.3655,30.3539 L0.3655,0.6349 L15.1485,0.6349 C22.0855,0.6349 26.0385,2.1909 26.8985,5.2619 C27.2125,6.3869 27.6545,7.8189 28.1445,9.4069 C29.7735,14.6909 31.7985,21.2659 31.7985,24.6959 L31.7985,34.9429 L30.9435,34.9429 L31.7985,37.5679 L31.7985,45.7399 L25.4645,47.4369 Z" id="Fill-2" fill="#6C6E70"></path>
                </g>
                <path d="M112.6461,34.1654 C111.8961,29.7294 109.6881,23.0654 108.4361,18.8774 L106.3081,18.8774 L109.4021,33.3534 C109.4021,33.3534 110.9231,33.5274 112.6461,34.1654" id="Fill-5" fill="#6C6E70"></path>
                <path d="M89.9566,52.1459 C87.4516,52.1459 85.4216,54.1769 85.4216,56.6809 C85.4216,59.1869 87.4516,61.2169 89.9566,61.2169 C92.4606,61.2169 94.4916,59.1869 94.4916,56.6809 C94.4916,54.1769 92.4606,52.1459 89.9566,52.1459 Z M80.5466,58.5419 L80.5466,53.6549 C80.5466,48.9849 84.3656,45.1659 89.0346,45.1659 L90.6236,45.1659 C96.1656,45.1659 100.6996,49.6999 100.6996,55.2429 L100.6996,58.5419 L99.0886,58.5419 C98.7186,60.3669 97.8126,61.9999 96.5456,63.2669 L96.5456,63.2709 C94.8596,64.9559 92.5286,65.9999 89.9566,65.9999 C87.3866,65.9999 85.0566,64.9559 83.3686,63.2689 L83.3666,63.2709 C82.0986,62.0019 81.1936,60.3699 80.8236,58.5419 L80.5466,58.5419 Z" id="Fill-7" fill="#6C6E70"></path>
                <path d="M101.2975,57.9437 L102.4005,57.9437 L102.4005,53.5137 C102.4005,47.6027 96.3005,41.8007 90.0875,41.8007 L88.2425,41.8007 C83.1695,41.8007 78.3745,46.5957 78.3745,51.6677 L78.3745,57.9437 L79.9495,57.9437 L79.9495,53.6557 C79.9495,48.6447 84.0265,44.5677 89.0345,44.5677 L90.6225,44.5677 C96.5075,44.5677 101.2975,49.3577 101.2975,55.2427 L101.2975,57.9437 Z M103.5925,59.1387 L100.1045,59.1387 L100.1045,55.2427 C100.1045,50.0147 95.8505,45.7627 90.6225,45.7627 L89.0345,45.7627 C84.6835,45.7627 81.1425,49.3027 81.1425,53.6557 L81.1425,59.1387 L77.1815,59.1387 L77.1815,51.6677 C77.1815,45.8797 82.4535,40.6057 88.2425,40.6057 L90.0875,40.6057 C97.0305,40.6057 103.5925,46.8797 103.5925,53.5137 L103.5925,59.1387 Z" id="Fill-9" fill="#6C6E70"></path>
                <path d="M89.9566,54.204 C88.5886,54.204 87.4786,55.313 87.4786,56.682 C87.4786,58.05 88.5886,59.16 89.9566,59.16 C91.3246,59.16 92.4346,58.05 92.4346,56.682 C92.4346,55.313 91.3246,54.204 89.9566,54.204" id="Fill-11" fill="#6C6E70"></path>
                <path d="M94.7057,13.5297 C89.8427,10.7427 86.7377,9.9837 82.1437,9.8587 C81.1847,9.8327 80.3747,10.5667 80.3087,11.5237 C79.7117,20.1087 79.1147,28.6927 78.5177,37.2777 L78.5177,49.9767 C79.0357,46.9137 80.9177,44.1457 83.4957,42.5707 L83.2617,42.3537 L83.2617,13.5297 L94.7057,13.5297 Z" id="Fill-13" fill="#6C6E70"></path>
                <polygon id="Clip-16" points="0 66 113.798 66 113.798 0.677 0 0.677"></polygon>
                <polygon id="Fill-15" fill="#6C6E70" points="109.418 55.745 112.903 55.745 112.903 49.569 109.418 49.569"></polygon>
                <polygon id="Fill-17" fill="#6C6E70" points="102.964 52.854 110.603 52.854 110.603 51.66 102.964 51.66"></polygon>
                <polygon id="Fill-18" fill="#6C6E70" points="92.045 38.641 95.928 38.641 95.928 37.446 92.045 37.446"></polygon>
                <polygon id="Fill-19" fill="#6C6E70" points="102.966 55.745 110.602 55.745 110.602 54.551 102.966 54.551"></polygon>
                <path d="M79.5035,46.9686 L10.0745,46.9686 L10.0745,53.1546 L26.8255,53.1546 C27.6055,52.5236 28.5975,52.1456 29.6775,52.1456 C30.7565,52.1456 31.7485,52.5236 32.5275,53.1546 L78.3745,53.1546 L78.3745,51.6676 C78.3745,50.0226 78.7825,48.4126 79.5035,46.9686" id="Fill-20" fill="#6C6E70"></path>
                <path d="M29.6773,52.1459 C27.1723,52.1459 25.1423,54.1769 25.1423,56.6809 C25.1423,59.1869 27.1723,61.2169 29.6773,61.2169 C32.1823,61.2169 34.2123,59.1869 34.2123,56.6809 C34.2123,54.1769 32.1823,52.1459 29.6773,52.1459 Z M38.9513,57.5769 C38.7403,59.7909 37.7523,61.7799 36.2663,63.2669 L36.2663,63.2709 C34.5803,64.9559 32.2493,65.9999 29.6773,65.9999 C27.1073,65.9999 24.7773,64.9559 23.0893,63.2689 L23.0873,63.2709 C21.6003,61.7829 20.6133,59.7929 20.4023,57.5769 L19.1893,57.5769 L18.2933,57.5769 L18.2933,56.6809 C18.2933,53.4109 19.3123,50.4469 21.4053,48.3539 L21.4063,48.3529 L21.4073,48.3509 C23.3023,46.4579 26.0493,45.2989 29.6773,45.2989 C33.3083,45.2989 36.0563,46.4559 37.9493,48.3499 L37.9493,48.3539 C40.0403,50.4449 41.0593,53.4089 41.0593,56.6809 L41.0593,57.5769 L40.1633,57.5769 L38.9513,57.5769 Z" id="Fill-21" fill="#6C6E70"></path>
                <path d="M29.6773,54.204 C28.3093,54.204 27.1993,55.313 27.1993,56.682 C27.1993,58.05 28.3093,59.16 29.6773,59.16 C31.0453,59.16 32.1553,58.05 32.1553,56.682 C32.1553,55.313 31.0453,54.204 29.6773,54.204" id="Fill-22" fill="#6C6E70"></path>
                <path d="M59.5943,50.9828 L43.3403,50.9828 L43.3403,56.0368 C43.3403,57.0228 44.1453,57.8268 45.1313,57.8268 L57.8043,57.8268 C58.7903,57.8268 59.5943,57.0228 59.5943,56.0368 L59.5943,55.1228 L60.8693,55.1228 C60.8653,55.1798 60.8633,55.2368 60.8633,55.2948 C60.8633,56.6118 61.9303,57.6808 63.2473,57.6808 C64.2283,57.6808 65.0723,57.0878 65.4383,56.2408 L68.3293,56.2408 C68.6963,57.0878 69.5383,57.6808 70.5193,57.6808 C71.8373,57.6808 72.9053,56.6118 72.9053,55.2948 C72.9053,55.2368 72.9023,55.1798 72.8983,55.1228 L73.6853,55.1228 L73.6853,57.6398 L78.3933,57.6398 L78.3933,51.0548 L73.6853,51.0548 L73.6853,52.1938 L59.5943,52.1938 L59.5943,50.9828 Z" id="Fill-23" fill="#6C6E70"></path>
                <polygon id="Fill-24" fill="#6C6E70" points="8.6773 53.9276 6.6043 53.9276 6.6043 59.2256 8.6773 59.2256 8.6773 57.7626 12.6583 55.0976 19.1083 55.0976 19.1083 51.1656 11.4423 51.1656 11.4423 52.8866 11.3713 52.8906 8.6773 55.2886"></polygon>
                <polygon id="Fill-25" fill="#6C6E70" points="110.628 43.254 112.903 43.254 112.903 37.331 110.628 37.331"></polygon>
                <polygon id="Fill-26" fill="#6C6E70" points="54.559 48.622 68.444 48.622 68.444 44.581 54.559 44.581"></polygon>
                <polygon id="Fill-27" fill="#6C6E70" points="15.206 48.622 29.092 48.622 29.092 44.581 15.206 44.581"></polygon>
                <path d="M104.9723,20.4203 C105.4513,20.4203 105.8443,20.8133 105.8443,21.2923 L105.8443,29.3013 C105.8443,29.7803 105.4513,30.1723 104.9723,30.1723 L104.4823,30.1723 C104.0033,30.1723 103.6113,29.7793 103.6113,29.3013 L103.6113,21.2923 C103.6113,20.8133 104.0023,20.4203 104.4823,20.4203 L104.9723,20.4203 Z M102.9393,20.4333 L92.3583,20.4333 L92.3583,28.7193 C92.3583,29.6003 92.9823,30.3393 93.8513,30.4853 L106.2843,32.5833 L105.9903,30.7443 C105.7013,30.9473 105.3503,31.0673 104.9723,31.0673 L104.4823,31.0673 C103.5093,31.0673 102.7153,30.2743 102.7153,29.3013 L102.7153,21.2923 C102.7153,20.9803 102.7963,20.6873 102.9393,20.4333 Z" id="Fill-28" fill="#6C6E70"></path>
            </g>
        </g>
    </g>
</svg>
